G04 #@! TF.GenerationSoftware,KiCad,Pcbnew,(6.0.0)*
G04 #@! TF.CreationDate,2023-12-03T01:04:49-08:00*
G04 #@! TF.ProjectId,8BitSerialDACBoard,38426974-5365-4726-9961-6c444143426f,rev?*
G04 #@! TF.SameCoordinates,Original*
G04 #@! TF.FileFunction,Legend,Bot*
G04 #@! TF.FilePolarity,Positive*
%FSLAX46Y46*%
G04 Gerber Fmt 4.6, Leading zero omitted, Abs format (unit mm)*
G04 Created by KiCad (PCBNEW (6.0.0)) date 2023-12-03 01:04:49*
%MOMM*%
%LPD*%
G01*
G04 APERTURE LIST*
G04 Aperture macros list*
%AMRoundRect*
0 Rectangle with rounded corners*
0 $1 Rounding radius*
0 $2 $3 $4 $5 $6 $7 $8 $9 X,Y pos of 4 corners*
0 Add a 4 corners polygon primitive as box body*
4,1,4,$2,$3,$4,$5,$6,$7,$8,$9,$2,$3,0*
0 Add four circle primitives for the rounded corners*
1,1,$1+$1,$2,$3*
1,1,$1+$1,$4,$5*
1,1,$1+$1,$6,$7*
1,1,$1+$1,$8,$9*
0 Add four rect primitives between the rounded corners*
20,1,$1+$1,$2,$3,$4,$5,0*
20,1,$1+$1,$4,$5,$6,$7,0*
20,1,$1+$1,$6,$7,$8,$9,0*
20,1,$1+$1,$8,$9,$2,$3,0*%
G04 Aperture macros list end*
%ADD10C,0.125000*%
%ADD11C,0.100000*%
%ADD12C,0.120000*%
%ADD13RoundRect,0.237500X-0.237500X0.250000X-0.237500X-0.250000X0.237500X-0.250000X0.237500X0.250000X0*%
%ADD14RoundRect,0.237500X0.237500X-0.250000X0.237500X0.250000X-0.237500X0.250000X-0.237500X-0.250000X0*%
%ADD15R,1.700000X1.700000*%
%ADD16O,1.700000X1.700000*%
G04 APERTURE END LIST*
D10*
X143537619Y-88650476D02*
X143585238Y-88626666D01*
X143609047Y-88602857D01*
X143632857Y-88555238D01*
X143632857Y-88531428D01*
X143609047Y-88483809D01*
X143585238Y-88460000D01*
X143537619Y-88436190D01*
X143442380Y-88436190D01*
X143394761Y-88460000D01*
X143370952Y-88483809D01*
X143347142Y-88531428D01*
X143347142Y-88555238D01*
X143370952Y-88602857D01*
X143394761Y-88626666D01*
X143442380Y-88650476D01*
X143537619Y-88650476D01*
X143585238Y-88674285D01*
X143609047Y-88698095D01*
X143632857Y-88745714D01*
X143632857Y-88840952D01*
X143609047Y-88888571D01*
X143585238Y-88912380D01*
X143537619Y-88936190D01*
X143442380Y-88936190D01*
X143394761Y-88912380D01*
X143370952Y-88888571D01*
X143347142Y-88840952D01*
X143347142Y-88745714D01*
X143370952Y-88698095D01*
X143394761Y-88674285D01*
X143442380Y-88650476D01*
X143132857Y-88745714D02*
X142751904Y-88745714D01*
X142347142Y-88674285D02*
X142275714Y-88698095D01*
X142251904Y-88721904D01*
X142228095Y-88769523D01*
X142228095Y-88840952D01*
X142251904Y-88888571D01*
X142275714Y-88912380D01*
X142323333Y-88936190D01*
X142513809Y-88936190D01*
X142513809Y-88436190D01*
X142347142Y-88436190D01*
X142299523Y-88460000D01*
X142275714Y-88483809D01*
X142251904Y-88531428D01*
X142251904Y-88579047D01*
X142275714Y-88626666D01*
X142299523Y-88650476D01*
X142347142Y-88674285D01*
X142513809Y-88674285D01*
X142013809Y-88936190D02*
X142013809Y-88602857D01*
X142013809Y-88436190D02*
X142037619Y-88460000D01*
X142013809Y-88483809D01*
X141990000Y-88460000D01*
X142013809Y-88436190D01*
X142013809Y-88483809D01*
X141847142Y-88602857D02*
X141656666Y-88602857D01*
X141775714Y-88436190D02*
X141775714Y-88864761D01*
X141751904Y-88912380D01*
X141704285Y-88936190D01*
X141656666Y-88936190D01*
X141132857Y-88912380D02*
X141061428Y-88936190D01*
X140942380Y-88936190D01*
X140894761Y-88912380D01*
X140870952Y-88888571D01*
X140847142Y-88840952D01*
X140847142Y-88793333D01*
X140870952Y-88745714D01*
X140894761Y-88721904D01*
X140942380Y-88698095D01*
X141037619Y-88674285D01*
X141085238Y-88650476D01*
X141109047Y-88626666D01*
X141132857Y-88579047D01*
X141132857Y-88531428D01*
X141109047Y-88483809D01*
X141085238Y-88460000D01*
X141037619Y-88436190D01*
X140918571Y-88436190D01*
X140847142Y-88460000D01*
X140442380Y-88912380D02*
X140490000Y-88936190D01*
X140585238Y-88936190D01*
X140632857Y-88912380D01*
X140656666Y-88864761D01*
X140656666Y-88674285D01*
X140632857Y-88626666D01*
X140585238Y-88602857D01*
X140490000Y-88602857D01*
X140442380Y-88626666D01*
X140418571Y-88674285D01*
X140418571Y-88721904D01*
X140656666Y-88769523D01*
X140204285Y-88936190D02*
X140204285Y-88602857D01*
X140204285Y-88698095D02*
X140180476Y-88650476D01*
X140156666Y-88626666D01*
X140109047Y-88602857D01*
X140061428Y-88602857D01*
X139894761Y-88936190D02*
X139894761Y-88602857D01*
X139894761Y-88436190D02*
X139918571Y-88460000D01*
X139894761Y-88483809D01*
X139870952Y-88460000D01*
X139894761Y-88436190D01*
X139894761Y-88483809D01*
X139442380Y-88936190D02*
X139442380Y-88674285D01*
X139466190Y-88626666D01*
X139513809Y-88602857D01*
X139609047Y-88602857D01*
X139656666Y-88626666D01*
X139442380Y-88912380D02*
X139490000Y-88936190D01*
X139609047Y-88936190D01*
X139656666Y-88912380D01*
X139680476Y-88864761D01*
X139680476Y-88817142D01*
X139656666Y-88769523D01*
X139609047Y-88745714D01*
X139490000Y-88745714D01*
X139442380Y-88721904D01*
X139132857Y-88936190D02*
X139180476Y-88912380D01*
X139204285Y-88864761D01*
X139204285Y-88436190D01*
X138561428Y-88936190D02*
X138561428Y-88436190D01*
X138442380Y-88436190D01*
X138370952Y-88460000D01*
X138323333Y-88507619D01*
X138299523Y-88555238D01*
X138275714Y-88650476D01*
X138275714Y-88721904D01*
X138299523Y-88817142D01*
X138323333Y-88864761D01*
X138370952Y-88912380D01*
X138442380Y-88936190D01*
X138561428Y-88936190D01*
X138085238Y-88793333D02*
X137847142Y-88793333D01*
X138132857Y-88936190D02*
X137966190Y-88436190D01*
X137799523Y-88936190D01*
X137347142Y-88888571D02*
X137370952Y-88912380D01*
X137442380Y-88936190D01*
X137490000Y-88936190D01*
X137561428Y-88912380D01*
X137609047Y-88864761D01*
X137632857Y-88817142D01*
X137656666Y-88721904D01*
X137656666Y-88650476D01*
X137632857Y-88555238D01*
X137609047Y-88507619D01*
X137561428Y-88460000D01*
X137490000Y-88436190D01*
X137442380Y-88436190D01*
X137370952Y-88460000D01*
X137347142Y-88483809D01*
X145405238Y-99812380D02*
X145333809Y-99836190D01*
X145214761Y-99836190D01*
X145167142Y-99812380D01*
X145143333Y-99788571D01*
X145119523Y-99740952D01*
X145119523Y-99693333D01*
X145143333Y-99645714D01*
X145167142Y-99621904D01*
X145214761Y-99598095D01*
X145310000Y-99574285D01*
X145357619Y-99550476D01*
X145381428Y-99526666D01*
X145405238Y-99479047D01*
X145405238Y-99431428D01*
X145381428Y-99383809D01*
X145357619Y-99360000D01*
X145310000Y-99336190D01*
X145190952Y-99336190D01*
X145119523Y-99360000D01*
X144619523Y-99836190D02*
X144786190Y-99598095D01*
X144905238Y-99836190D02*
X144905238Y-99336190D01*
X144714761Y-99336190D01*
X144667142Y-99360000D01*
X144643333Y-99383809D01*
X144619523Y-99431428D01*
X144619523Y-99502857D01*
X144643333Y-99550476D01*
X144667142Y-99574285D01*
X144714761Y-99598095D01*
X144905238Y-99598095D01*
X144119523Y-99788571D02*
X144143333Y-99812380D01*
X144214761Y-99836190D01*
X144262380Y-99836190D01*
X144333809Y-99812380D01*
X144381428Y-99764761D01*
X144405238Y-99717142D01*
X144429047Y-99621904D01*
X144429047Y-99550476D01*
X144405238Y-99455238D01*
X144381428Y-99407619D01*
X144333809Y-99360000D01*
X144262380Y-99336190D01*
X144214761Y-99336190D01*
X144143333Y-99360000D01*
X144119523Y-99383809D01*
X143667142Y-99836190D02*
X143905238Y-99836190D01*
X143905238Y-99336190D01*
X143500476Y-99836190D02*
X143500476Y-99336190D01*
X143214761Y-99836190D02*
X143429047Y-99550476D01*
X143214761Y-99336190D02*
X143500476Y-99621904D01*
X147439047Y-99802380D02*
X147367619Y-99826190D01*
X147248571Y-99826190D01*
X147200952Y-99802380D01*
X147177142Y-99778571D01*
X147153333Y-99730952D01*
X147153333Y-99683333D01*
X147177142Y-99635714D01*
X147200952Y-99611904D01*
X147248571Y-99588095D01*
X147343809Y-99564285D01*
X147391428Y-99540476D01*
X147415238Y-99516666D01*
X147439047Y-99469047D01*
X147439047Y-99421428D01*
X147415238Y-99373809D01*
X147391428Y-99350000D01*
X147343809Y-99326190D01*
X147224761Y-99326190D01*
X147153333Y-99350000D01*
X146939047Y-99564285D02*
X146772380Y-99564285D01*
X146700952Y-99826190D02*
X146939047Y-99826190D01*
X146939047Y-99326190D01*
X146700952Y-99326190D01*
X146200952Y-99826190D02*
X146367619Y-99588095D01*
X146486666Y-99826190D02*
X146486666Y-99326190D01*
X146296190Y-99326190D01*
X146248571Y-99350000D01*
X146224761Y-99373809D01*
X146200952Y-99421428D01*
X146200952Y-99492857D01*
X146224761Y-99540476D01*
X146248571Y-99564285D01*
X146296190Y-99588095D01*
X146486666Y-99588095D01*
X139648095Y-99155000D02*
X139124285Y-99155000D01*
X139433809Y-99296190D02*
X139338571Y-99296190D01*
X139290952Y-99320000D01*
X139243333Y-99367619D01*
X139219523Y-99462857D01*
X139219523Y-99629523D01*
X139243333Y-99724761D01*
X139290952Y-99772380D01*
X139338571Y-99796190D01*
X139433809Y-99796190D01*
X139481428Y-99772380D01*
X139529047Y-99724761D01*
X139552857Y-99629523D01*
X139552857Y-99462857D01*
X139529047Y-99367619D01*
X139481428Y-99320000D01*
X139433809Y-99296190D01*
X139124285Y-99155000D02*
X138671904Y-99155000D01*
X139005238Y-99534285D02*
X138838571Y-99534285D01*
X138767142Y-99796190D02*
X139005238Y-99796190D01*
X139005238Y-99296190D01*
X138767142Y-99296190D01*
X137820476Y-99165000D02*
X137344285Y-99165000D01*
X137725238Y-99782380D02*
X137653809Y-99806190D01*
X137534761Y-99806190D01*
X137487142Y-99782380D01*
X137463333Y-99758571D01*
X137439523Y-99710952D01*
X137439523Y-99663333D01*
X137463333Y-99615714D01*
X137487142Y-99591904D01*
X137534761Y-99568095D01*
X137630000Y-99544285D01*
X137677619Y-99520476D01*
X137701428Y-99496666D01*
X137725238Y-99449047D01*
X137725238Y-99401428D01*
X137701428Y-99353809D01*
X137677619Y-99330000D01*
X137630000Y-99306190D01*
X137510952Y-99306190D01*
X137439523Y-99330000D01*
X137344285Y-99165000D02*
X136844285Y-99165000D01*
X136939523Y-99806190D02*
X137106190Y-99568095D01*
X137225238Y-99806190D02*
X137225238Y-99306190D01*
X137034761Y-99306190D01*
X136987142Y-99330000D01*
X136963333Y-99353809D01*
X136939523Y-99401428D01*
X136939523Y-99472857D01*
X136963333Y-99520476D01*
X136987142Y-99544285D01*
X137034761Y-99568095D01*
X137225238Y-99568095D01*
X136844285Y-99165000D02*
X136344285Y-99165000D01*
X136439523Y-99758571D02*
X136463333Y-99782380D01*
X136534761Y-99806190D01*
X136582380Y-99806190D01*
X136653809Y-99782380D01*
X136701428Y-99734761D01*
X136725238Y-99687142D01*
X136749047Y-99591904D01*
X136749047Y-99520476D01*
X136725238Y-99425238D01*
X136701428Y-99377619D01*
X136653809Y-99330000D01*
X136582380Y-99306190D01*
X136534761Y-99306190D01*
X136463333Y-99330000D01*
X136439523Y-99353809D01*
X136344285Y-99165000D02*
X135939523Y-99165000D01*
X135987142Y-99806190D02*
X136225238Y-99806190D01*
X136225238Y-99306190D01*
X135939523Y-99165000D02*
X135439523Y-99165000D01*
X135534761Y-99806190D02*
X135701428Y-99568095D01*
X135820476Y-99806190D02*
X135820476Y-99306190D01*
X135630000Y-99306190D01*
X135582380Y-99330000D01*
X135558571Y-99353809D01*
X135534761Y-99401428D01*
X135534761Y-99472857D01*
X135558571Y-99520476D01*
X135582380Y-99544285D01*
X135630000Y-99568095D01*
X135820476Y-99568095D01*
X142237619Y-99826190D02*
X142404285Y-99588095D01*
X142523333Y-99826190D02*
X142523333Y-99326190D01*
X142332857Y-99326190D01*
X142285238Y-99350000D01*
X142261428Y-99373809D01*
X142237619Y-99421428D01*
X142237619Y-99492857D01*
X142261428Y-99540476D01*
X142285238Y-99564285D01*
X142332857Y-99588095D01*
X142523333Y-99588095D01*
X141737619Y-99778571D02*
X141761428Y-99802380D01*
X141832857Y-99826190D01*
X141880476Y-99826190D01*
X141951904Y-99802380D01*
X141999523Y-99754761D01*
X142023333Y-99707142D01*
X142047142Y-99611904D01*
X142047142Y-99540476D01*
X142023333Y-99445238D01*
X141999523Y-99397619D01*
X141951904Y-99350000D01*
X141880476Y-99326190D01*
X141832857Y-99326190D01*
X141761428Y-99350000D01*
X141737619Y-99373809D01*
X141285238Y-99826190D02*
X141523333Y-99826190D01*
X141523333Y-99326190D01*
X141118571Y-99826190D02*
X141118571Y-99326190D01*
X140832857Y-99826190D02*
X141047142Y-99540476D01*
X140832857Y-99326190D02*
X141118571Y-99611904D01*
X149870000Y-99326190D02*
X149774761Y-99326190D01*
X149727142Y-99350000D01*
X149679523Y-99397619D01*
X149655714Y-99492857D01*
X149655714Y-99659523D01*
X149679523Y-99754761D01*
X149727142Y-99802380D01*
X149774761Y-99826190D01*
X149870000Y-99826190D01*
X149917619Y-99802380D01*
X149965238Y-99754761D01*
X149989047Y-99659523D01*
X149989047Y-99492857D01*
X149965238Y-99397619D01*
X149917619Y-99350000D01*
X149870000Y-99326190D01*
X149441428Y-99326190D02*
X149441428Y-99730952D01*
X149417619Y-99778571D01*
X149393809Y-99802380D01*
X149346190Y-99826190D01*
X149250952Y-99826190D01*
X149203333Y-99802380D01*
X149179523Y-99778571D01*
X149155714Y-99730952D01*
X149155714Y-99326190D01*
X148989047Y-99326190D02*
X148703333Y-99326190D01*
X148846190Y-99826190D02*
X148846190Y-99326190D01*
X131880952Y-99310000D02*
X131928571Y-99286190D01*
X132000000Y-99286190D01*
X132071428Y-99310000D01*
X132119047Y-99357619D01*
X132142857Y-99405238D01*
X132166666Y-99500476D01*
X132166666Y-99571904D01*
X132142857Y-99667142D01*
X132119047Y-99714761D01*
X132071428Y-99762380D01*
X132000000Y-99786190D01*
X131952380Y-99786190D01*
X131880952Y-99762380D01*
X131857142Y-99738571D01*
X131857142Y-99571904D01*
X131952380Y-99571904D01*
X131642857Y-99786190D02*
X131642857Y-99286190D01*
X131357142Y-99786190D01*
X131357142Y-99286190D01*
X131119047Y-99786190D02*
X131119047Y-99286190D01*
X131000000Y-99286190D01*
X130928571Y-99310000D01*
X130880952Y-99357619D01*
X130857142Y-99405238D01*
X130833333Y-99500476D01*
X130833333Y-99571904D01*
X130857142Y-99667142D01*
X130880952Y-99714761D01*
X130928571Y-99762380D01*
X131000000Y-99786190D01*
X131119047Y-99786190D01*
X134816666Y-99316190D02*
X134650000Y-99816190D01*
X134483333Y-99316190D01*
X134030952Y-99768571D02*
X134054761Y-99792380D01*
X134126190Y-99816190D01*
X134173809Y-99816190D01*
X134245238Y-99792380D01*
X134292857Y-99744761D01*
X134316666Y-99697142D01*
X134340476Y-99601904D01*
X134340476Y-99530476D01*
X134316666Y-99435238D01*
X134292857Y-99387619D01*
X134245238Y-99340000D01*
X134173809Y-99316190D01*
X134126190Y-99316190D01*
X134054761Y-99340000D01*
X134030952Y-99363809D01*
X133530952Y-99768571D02*
X133554761Y-99792380D01*
X133626190Y-99816190D01*
X133673809Y-99816190D01*
X133745238Y-99792380D01*
X133792857Y-99744761D01*
X133816666Y-99697142D01*
X133840476Y-99601904D01*
X133840476Y-99530476D01*
X133816666Y-99435238D01*
X133792857Y-99387619D01*
X133745238Y-99340000D01*
X133673809Y-99316190D01*
X133626190Y-99316190D01*
X133554761Y-99340000D01*
X133530952Y-99363809D01*
X151791428Y-90696190D02*
X151958095Y-90458095D01*
X152077142Y-90696190D02*
X152077142Y-90196190D01*
X151886666Y-90196190D01*
X151839047Y-90220000D01*
X151815238Y-90243809D01*
X151791428Y-90291428D01*
X151791428Y-90362857D01*
X151815238Y-90410476D01*
X151839047Y-90434285D01*
X151886666Y-90458095D01*
X152077142Y-90458095D01*
X151600952Y-90243809D02*
X151577142Y-90220000D01*
X151529523Y-90196190D01*
X151410476Y-90196190D01*
X151362857Y-90220000D01*
X151339047Y-90243809D01*
X151315238Y-90291428D01*
X151315238Y-90339047D01*
X151339047Y-90410476D01*
X151624761Y-90696190D01*
X151315238Y-90696190D01*
X151148571Y-90196190D02*
X150839047Y-90196190D01*
X151005714Y-90386666D01*
X150934285Y-90386666D01*
X150886666Y-90410476D01*
X150862857Y-90434285D01*
X150839047Y-90481904D01*
X150839047Y-90600952D01*
X150862857Y-90648571D01*
X150886666Y-90672380D01*
X150934285Y-90696190D01*
X151077142Y-90696190D01*
X151124761Y-90672380D01*
X151148571Y-90648571D01*
X149731428Y-98176190D02*
X149898095Y-97938095D01*
X150017142Y-98176190D02*
X150017142Y-97676190D01*
X149826666Y-97676190D01*
X149779047Y-97700000D01*
X149755238Y-97723809D01*
X149731428Y-97771428D01*
X149731428Y-97842857D01*
X149755238Y-97890476D01*
X149779047Y-97914285D01*
X149826666Y-97938095D01*
X150017142Y-97938095D01*
X149540952Y-97723809D02*
X149517142Y-97700000D01*
X149469523Y-97676190D01*
X149350476Y-97676190D01*
X149302857Y-97700000D01*
X149279047Y-97723809D01*
X149255238Y-97771428D01*
X149255238Y-97819047D01*
X149279047Y-97890476D01*
X149564761Y-98176190D01*
X149255238Y-98176190D01*
X149064761Y-97723809D02*
X149040952Y-97700000D01*
X148993333Y-97676190D01*
X148874285Y-97676190D01*
X148826666Y-97700000D01*
X148802857Y-97723809D01*
X148779047Y-97771428D01*
X148779047Y-97819047D01*
X148802857Y-97890476D01*
X149088571Y-98176190D01*
X148779047Y-98176190D01*
X149751428Y-90691190D02*
X149918095Y-90453095D01*
X150037142Y-90691190D02*
X150037142Y-90191190D01*
X149846666Y-90191190D01*
X149799047Y-90215000D01*
X149775238Y-90238809D01*
X149751428Y-90286428D01*
X149751428Y-90357857D01*
X149775238Y-90405476D01*
X149799047Y-90429285D01*
X149846666Y-90453095D01*
X150037142Y-90453095D01*
X149560952Y-90238809D02*
X149537142Y-90215000D01*
X149489523Y-90191190D01*
X149370476Y-90191190D01*
X149322857Y-90215000D01*
X149299047Y-90238809D01*
X149275238Y-90286428D01*
X149275238Y-90334047D01*
X149299047Y-90405476D01*
X149584761Y-90691190D01*
X149275238Y-90691190D01*
X148799047Y-90691190D02*
X149084761Y-90691190D01*
X148941904Y-90691190D02*
X148941904Y-90191190D01*
X148989523Y-90262619D01*
X149037142Y-90310238D01*
X149084761Y-90334047D01*
X147811428Y-98146190D02*
X147978095Y-97908095D01*
X148097142Y-98146190D02*
X148097142Y-97646190D01*
X147906666Y-97646190D01*
X147859047Y-97670000D01*
X147835238Y-97693809D01*
X147811428Y-97741428D01*
X147811428Y-97812857D01*
X147835238Y-97860476D01*
X147859047Y-97884285D01*
X147906666Y-97908095D01*
X148097142Y-97908095D01*
X147620952Y-97693809D02*
X147597142Y-97670000D01*
X147549523Y-97646190D01*
X147430476Y-97646190D01*
X147382857Y-97670000D01*
X147359047Y-97693809D01*
X147335238Y-97741428D01*
X147335238Y-97789047D01*
X147359047Y-97860476D01*
X147644761Y-98146190D01*
X147335238Y-98146190D01*
X147025714Y-97646190D02*
X146978095Y-97646190D01*
X146930476Y-97670000D01*
X146906666Y-97693809D01*
X146882857Y-97741428D01*
X146859047Y-97836666D01*
X146859047Y-97955714D01*
X146882857Y-98050952D01*
X146906666Y-98098571D01*
X146930476Y-98122380D01*
X146978095Y-98146190D01*
X147025714Y-98146190D01*
X147073333Y-98122380D01*
X147097142Y-98098571D01*
X147120952Y-98050952D01*
X147144761Y-97955714D01*
X147144761Y-97836666D01*
X147120952Y-97741428D01*
X147097142Y-97693809D01*
X147073333Y-97670000D01*
X147025714Y-97646190D01*
X147861428Y-90696190D02*
X148028095Y-90458095D01*
X148147142Y-90696190D02*
X148147142Y-90196190D01*
X147956666Y-90196190D01*
X147909047Y-90220000D01*
X147885238Y-90243809D01*
X147861428Y-90291428D01*
X147861428Y-90362857D01*
X147885238Y-90410476D01*
X147909047Y-90434285D01*
X147956666Y-90458095D01*
X148147142Y-90458095D01*
X147385238Y-90696190D02*
X147670952Y-90696190D01*
X147528095Y-90696190D02*
X147528095Y-90196190D01*
X147575714Y-90267619D01*
X147623333Y-90315238D01*
X147670952Y-90339047D01*
X147147142Y-90696190D02*
X147051904Y-90696190D01*
X147004285Y-90672380D01*
X146980476Y-90648571D01*
X146932857Y-90577142D01*
X146909047Y-90481904D01*
X146909047Y-90291428D01*
X146932857Y-90243809D01*
X146956666Y-90220000D01*
X147004285Y-90196190D01*
X147099523Y-90196190D01*
X147147142Y-90220000D01*
X147170952Y-90243809D01*
X147194761Y-90291428D01*
X147194761Y-90410476D01*
X147170952Y-90458095D01*
X147147142Y-90481904D01*
X147099523Y-90505714D01*
X147004285Y-90505714D01*
X146956666Y-90481904D01*
X146932857Y-90458095D01*
X146909047Y-90410476D01*
X145831428Y-98176190D02*
X145998095Y-97938095D01*
X146117142Y-98176190D02*
X146117142Y-97676190D01*
X145926666Y-97676190D01*
X145879047Y-97700000D01*
X145855238Y-97723809D01*
X145831428Y-97771428D01*
X145831428Y-97842857D01*
X145855238Y-97890476D01*
X145879047Y-97914285D01*
X145926666Y-97938095D01*
X146117142Y-97938095D01*
X145355238Y-98176190D02*
X145640952Y-98176190D01*
X145498095Y-98176190D02*
X145498095Y-97676190D01*
X145545714Y-97747619D01*
X145593333Y-97795238D01*
X145640952Y-97819047D01*
X145069523Y-97890476D02*
X145117142Y-97866666D01*
X145140952Y-97842857D01*
X145164761Y-97795238D01*
X145164761Y-97771428D01*
X145140952Y-97723809D01*
X145117142Y-97700000D01*
X145069523Y-97676190D01*
X144974285Y-97676190D01*
X144926666Y-97700000D01*
X144902857Y-97723809D01*
X144879047Y-97771428D01*
X144879047Y-97795238D01*
X144902857Y-97842857D01*
X144926666Y-97866666D01*
X144974285Y-97890476D01*
X145069523Y-97890476D01*
X145117142Y-97914285D01*
X145140952Y-97938095D01*
X145164761Y-97985714D01*
X145164761Y-98080952D01*
X145140952Y-98128571D01*
X145117142Y-98152380D01*
X145069523Y-98176190D01*
X144974285Y-98176190D01*
X144926666Y-98152380D01*
X144902857Y-98128571D01*
X144879047Y-98080952D01*
X144879047Y-97985714D01*
X144902857Y-97938095D01*
X144926666Y-97914285D01*
X144974285Y-97890476D01*
X145788928Y-90678690D02*
X145955595Y-90440595D01*
X146074642Y-90678690D02*
X146074642Y-90178690D01*
X145884166Y-90178690D01*
X145836547Y-90202500D01*
X145812738Y-90226309D01*
X145788928Y-90273928D01*
X145788928Y-90345357D01*
X145812738Y-90392976D01*
X145836547Y-90416785D01*
X145884166Y-90440595D01*
X146074642Y-90440595D01*
X145312738Y-90678690D02*
X145598452Y-90678690D01*
X145455595Y-90678690D02*
X145455595Y-90178690D01*
X145503214Y-90250119D01*
X145550833Y-90297738D01*
X145598452Y-90321547D01*
X145146071Y-90178690D02*
X144812738Y-90178690D01*
X145027023Y-90678690D01*
X143761428Y-98181190D02*
X143928095Y-97943095D01*
X144047142Y-98181190D02*
X144047142Y-97681190D01*
X143856666Y-97681190D01*
X143809047Y-97705000D01*
X143785238Y-97728809D01*
X143761428Y-97776428D01*
X143761428Y-97847857D01*
X143785238Y-97895476D01*
X143809047Y-97919285D01*
X143856666Y-97943095D01*
X144047142Y-97943095D01*
X143285238Y-98181190D02*
X143570952Y-98181190D01*
X143428095Y-98181190D02*
X143428095Y-97681190D01*
X143475714Y-97752619D01*
X143523333Y-97800238D01*
X143570952Y-97824047D01*
X142856666Y-97681190D02*
X142951904Y-97681190D01*
X142999523Y-97705000D01*
X143023333Y-97728809D01*
X143070952Y-97800238D01*
X143094761Y-97895476D01*
X143094761Y-98085952D01*
X143070952Y-98133571D01*
X143047142Y-98157380D01*
X142999523Y-98181190D01*
X142904285Y-98181190D01*
X142856666Y-98157380D01*
X142832857Y-98133571D01*
X142809047Y-98085952D01*
X142809047Y-97966904D01*
X142832857Y-97919285D01*
X142856666Y-97895476D01*
X142904285Y-97871666D01*
X142999523Y-97871666D01*
X143047142Y-97895476D01*
X143070952Y-97919285D01*
X143094761Y-97966904D01*
X143801428Y-90686190D02*
X143968095Y-90448095D01*
X144087142Y-90686190D02*
X144087142Y-90186190D01*
X143896666Y-90186190D01*
X143849047Y-90210000D01*
X143825238Y-90233809D01*
X143801428Y-90281428D01*
X143801428Y-90352857D01*
X143825238Y-90400476D01*
X143849047Y-90424285D01*
X143896666Y-90448095D01*
X144087142Y-90448095D01*
X143325238Y-90686190D02*
X143610952Y-90686190D01*
X143468095Y-90686190D02*
X143468095Y-90186190D01*
X143515714Y-90257619D01*
X143563333Y-90305238D01*
X143610952Y-90329047D01*
X142872857Y-90186190D02*
X143110952Y-90186190D01*
X143134761Y-90424285D01*
X143110952Y-90400476D01*
X143063333Y-90376666D01*
X142944285Y-90376666D01*
X142896666Y-90400476D01*
X142872857Y-90424285D01*
X142849047Y-90471904D01*
X142849047Y-90590952D01*
X142872857Y-90638571D01*
X142896666Y-90662380D01*
X142944285Y-90686190D01*
X143063333Y-90686190D01*
X143110952Y-90662380D01*
X143134761Y-90638571D01*
D11*
X141801428Y-98176190D02*
X141968095Y-97938095D01*
X142087142Y-98176190D02*
X142087142Y-97676190D01*
X141896666Y-97676190D01*
X141849047Y-97700000D01*
X141825238Y-97723809D01*
X141801428Y-97771428D01*
X141801428Y-97842857D01*
X141825238Y-97890476D01*
X141849047Y-97914285D01*
X141896666Y-97938095D01*
X142087142Y-97938095D01*
X141325238Y-98176190D02*
X141610952Y-98176190D01*
X141468095Y-98176190D02*
X141468095Y-97676190D01*
X141515714Y-97747619D01*
X141563333Y-97795238D01*
X141610952Y-97819047D01*
X140896666Y-97842857D02*
X140896666Y-98176190D01*
X141015714Y-97652380D02*
X141134761Y-98009523D01*
X140825238Y-98009523D01*
X141811428Y-90706190D02*
X141978095Y-90468095D01*
X142097142Y-90706190D02*
X142097142Y-90206190D01*
X141906666Y-90206190D01*
X141859047Y-90230000D01*
X141835238Y-90253809D01*
X141811428Y-90301428D01*
X141811428Y-90372857D01*
X141835238Y-90420476D01*
X141859047Y-90444285D01*
X141906666Y-90468095D01*
X142097142Y-90468095D01*
X141335238Y-90706190D02*
X141620952Y-90706190D01*
X141478095Y-90706190D02*
X141478095Y-90206190D01*
X141525714Y-90277619D01*
X141573333Y-90325238D01*
X141620952Y-90349047D01*
X141168571Y-90206190D02*
X140859047Y-90206190D01*
X141025714Y-90396666D01*
X140954285Y-90396666D01*
X140906666Y-90420476D01*
X140882857Y-90444285D01*
X140859047Y-90491904D01*
X140859047Y-90610952D01*
X140882857Y-90658571D01*
X140906666Y-90682380D01*
X140954285Y-90706190D01*
X141097142Y-90706190D01*
X141144761Y-90682380D01*
X141168571Y-90658571D01*
X139791428Y-98176190D02*
X139958095Y-97938095D01*
X140077142Y-98176190D02*
X140077142Y-97676190D01*
X139886666Y-97676190D01*
X139839047Y-97700000D01*
X139815238Y-97723809D01*
X139791428Y-97771428D01*
X139791428Y-97842857D01*
X139815238Y-97890476D01*
X139839047Y-97914285D01*
X139886666Y-97938095D01*
X140077142Y-97938095D01*
X139315238Y-98176190D02*
X139600952Y-98176190D01*
X139458095Y-98176190D02*
X139458095Y-97676190D01*
X139505714Y-97747619D01*
X139553333Y-97795238D01*
X139600952Y-97819047D01*
X139124761Y-97723809D02*
X139100952Y-97700000D01*
X139053333Y-97676190D01*
X138934285Y-97676190D01*
X138886666Y-97700000D01*
X138862857Y-97723809D01*
X138839047Y-97771428D01*
X138839047Y-97819047D01*
X138862857Y-97890476D01*
X139148571Y-98176190D01*
X138839047Y-98176190D01*
X139851428Y-90706190D02*
X140018095Y-90468095D01*
X140137142Y-90706190D02*
X140137142Y-90206190D01*
X139946666Y-90206190D01*
X139899047Y-90230000D01*
X139875238Y-90253809D01*
X139851428Y-90301428D01*
X139851428Y-90372857D01*
X139875238Y-90420476D01*
X139899047Y-90444285D01*
X139946666Y-90468095D01*
X140137142Y-90468095D01*
X139375238Y-90706190D02*
X139660952Y-90706190D01*
X139518095Y-90706190D02*
X139518095Y-90206190D01*
X139565714Y-90277619D01*
X139613333Y-90325238D01*
X139660952Y-90349047D01*
X138899047Y-90706190D02*
X139184761Y-90706190D01*
X139041904Y-90706190D02*
X139041904Y-90206190D01*
X139089523Y-90277619D01*
X139137142Y-90325238D01*
X139184761Y-90349047D01*
X137771428Y-98186190D02*
X137938095Y-97948095D01*
X138057142Y-98186190D02*
X138057142Y-97686190D01*
X137866666Y-97686190D01*
X137819047Y-97710000D01*
X137795238Y-97733809D01*
X137771428Y-97781428D01*
X137771428Y-97852857D01*
X137795238Y-97900476D01*
X137819047Y-97924285D01*
X137866666Y-97948095D01*
X138057142Y-97948095D01*
X137295238Y-98186190D02*
X137580952Y-98186190D01*
X137438095Y-98186190D02*
X137438095Y-97686190D01*
X137485714Y-97757619D01*
X137533333Y-97805238D01*
X137580952Y-97829047D01*
X136985714Y-97686190D02*
X136938095Y-97686190D01*
X136890476Y-97710000D01*
X136866666Y-97733809D01*
X136842857Y-97781428D01*
X136819047Y-97876666D01*
X136819047Y-97995714D01*
X136842857Y-98090952D01*
X136866666Y-98138571D01*
X136890476Y-98162380D01*
X136938095Y-98186190D01*
X136985714Y-98186190D01*
X137033333Y-98162380D01*
X137057142Y-98138571D01*
X137080952Y-98090952D01*
X137104761Y-97995714D01*
X137104761Y-97876666D01*
X137080952Y-97781428D01*
X137057142Y-97733809D01*
X137033333Y-97710000D01*
X136985714Y-97686190D01*
X137613333Y-90706190D02*
X137780000Y-90468095D01*
X137899047Y-90706190D02*
X137899047Y-90206190D01*
X137708571Y-90206190D01*
X137660952Y-90230000D01*
X137637142Y-90253809D01*
X137613333Y-90301428D01*
X137613333Y-90372857D01*
X137637142Y-90420476D01*
X137660952Y-90444285D01*
X137708571Y-90468095D01*
X137899047Y-90468095D01*
X137375238Y-90706190D02*
X137280000Y-90706190D01*
X137232380Y-90682380D01*
X137208571Y-90658571D01*
X137160952Y-90587142D01*
X137137142Y-90491904D01*
X137137142Y-90301428D01*
X137160952Y-90253809D01*
X137184761Y-90230000D01*
X137232380Y-90206190D01*
X137327619Y-90206190D01*
X137375238Y-90230000D01*
X137399047Y-90253809D01*
X137422857Y-90301428D01*
X137422857Y-90420476D01*
X137399047Y-90468095D01*
X137375238Y-90491904D01*
X137327619Y-90515714D01*
X137232380Y-90515714D01*
X137184761Y-90491904D01*
X137160952Y-90468095D01*
X137137142Y-90420476D01*
X135683333Y-98176190D02*
X135850000Y-97938095D01*
X135969047Y-98176190D02*
X135969047Y-97676190D01*
X135778571Y-97676190D01*
X135730952Y-97700000D01*
X135707142Y-97723809D01*
X135683333Y-97771428D01*
X135683333Y-97842857D01*
X135707142Y-97890476D01*
X135730952Y-97914285D01*
X135778571Y-97938095D01*
X135969047Y-97938095D01*
X135397619Y-97890476D02*
X135445238Y-97866666D01*
X135469047Y-97842857D01*
X135492857Y-97795238D01*
X135492857Y-97771428D01*
X135469047Y-97723809D01*
X135445238Y-97700000D01*
X135397619Y-97676190D01*
X135302380Y-97676190D01*
X135254761Y-97700000D01*
X135230952Y-97723809D01*
X135207142Y-97771428D01*
X135207142Y-97795238D01*
X135230952Y-97842857D01*
X135254761Y-97866666D01*
X135302380Y-97890476D01*
X135397619Y-97890476D01*
X135445238Y-97914285D01*
X135469047Y-97938095D01*
X135492857Y-97985714D01*
X135492857Y-98080952D01*
X135469047Y-98128571D01*
X135445238Y-98152380D01*
X135397619Y-98176190D01*
X135302380Y-98176190D01*
X135254761Y-98152380D01*
X135230952Y-98128571D01*
X135207142Y-98080952D01*
X135207142Y-97985714D01*
X135230952Y-97938095D01*
X135254761Y-97914285D01*
X135302380Y-97890476D01*
X135743333Y-90706190D02*
X135910000Y-90468095D01*
X136029047Y-90706190D02*
X136029047Y-90206190D01*
X135838571Y-90206190D01*
X135790952Y-90230000D01*
X135767142Y-90253809D01*
X135743333Y-90301428D01*
X135743333Y-90372857D01*
X135767142Y-90420476D01*
X135790952Y-90444285D01*
X135838571Y-90468095D01*
X136029047Y-90468095D01*
X135576666Y-90206190D02*
X135243333Y-90206190D01*
X135457619Y-90706190D01*
X133693333Y-98146190D02*
X133860000Y-97908095D01*
X133979047Y-98146190D02*
X133979047Y-97646190D01*
X133788571Y-97646190D01*
X133740952Y-97670000D01*
X133717142Y-97693809D01*
X133693333Y-97741428D01*
X133693333Y-97812857D01*
X133717142Y-97860476D01*
X133740952Y-97884285D01*
X133788571Y-97908095D01*
X133979047Y-97908095D01*
X133264761Y-97646190D02*
X133360000Y-97646190D01*
X133407619Y-97670000D01*
X133431428Y-97693809D01*
X133479047Y-97765238D01*
X133502857Y-97860476D01*
X133502857Y-98050952D01*
X133479047Y-98098571D01*
X133455238Y-98122380D01*
X133407619Y-98146190D01*
X133312380Y-98146190D01*
X133264761Y-98122380D01*
X133240952Y-98098571D01*
X133217142Y-98050952D01*
X133217142Y-97931904D01*
X133240952Y-97884285D01*
X133264761Y-97860476D01*
X133312380Y-97836666D01*
X133407619Y-97836666D01*
X133455238Y-97860476D01*
X133479047Y-97884285D01*
X133502857Y-97931904D01*
X133803333Y-90686190D02*
X133970000Y-90448095D01*
X134089047Y-90686190D02*
X134089047Y-90186190D01*
X133898571Y-90186190D01*
X133850952Y-90210000D01*
X133827142Y-90233809D01*
X133803333Y-90281428D01*
X133803333Y-90352857D01*
X133827142Y-90400476D01*
X133850952Y-90424285D01*
X133898571Y-90448095D01*
X134089047Y-90448095D01*
X133350952Y-90186190D02*
X133589047Y-90186190D01*
X133612857Y-90424285D01*
X133589047Y-90400476D01*
X133541428Y-90376666D01*
X133422380Y-90376666D01*
X133374761Y-90400476D01*
X133350952Y-90424285D01*
X133327142Y-90471904D01*
X133327142Y-90590952D01*
X133350952Y-90638571D01*
X133374761Y-90662380D01*
X133422380Y-90686190D01*
X133541428Y-90686190D01*
X133589047Y-90662380D01*
X133612857Y-90638571D01*
X131793333Y-98176190D02*
X131960000Y-97938095D01*
X132079047Y-98176190D02*
X132079047Y-97676190D01*
X131888571Y-97676190D01*
X131840952Y-97700000D01*
X131817142Y-97723809D01*
X131793333Y-97771428D01*
X131793333Y-97842857D01*
X131817142Y-97890476D01*
X131840952Y-97914285D01*
X131888571Y-97938095D01*
X132079047Y-97938095D01*
X131364761Y-97842857D02*
X131364761Y-98176190D01*
X131483809Y-97652380D02*
X131602857Y-98009523D01*
X131293333Y-98009523D01*
X131793333Y-90686190D02*
X131960000Y-90448095D01*
X132079047Y-90686190D02*
X132079047Y-90186190D01*
X131888571Y-90186190D01*
X131840952Y-90210000D01*
X131817142Y-90233809D01*
X131793333Y-90281428D01*
X131793333Y-90352857D01*
X131817142Y-90400476D01*
X131840952Y-90424285D01*
X131888571Y-90448095D01*
X132079047Y-90448095D01*
X131626666Y-90186190D02*
X131317142Y-90186190D01*
X131483809Y-90376666D01*
X131412380Y-90376666D01*
X131364761Y-90400476D01*
X131340952Y-90424285D01*
X131317142Y-90471904D01*
X131317142Y-90590952D01*
X131340952Y-90638571D01*
X131364761Y-90662380D01*
X131412380Y-90686190D01*
X131555238Y-90686190D01*
X131602857Y-90662380D01*
X131626666Y-90638571D01*
X129853333Y-98136190D02*
X130020000Y-97898095D01*
X130139047Y-98136190D02*
X130139047Y-97636190D01*
X129948571Y-97636190D01*
X129900952Y-97660000D01*
X129877142Y-97683809D01*
X129853333Y-97731428D01*
X129853333Y-97802857D01*
X129877142Y-97850476D01*
X129900952Y-97874285D01*
X129948571Y-97898095D01*
X130139047Y-97898095D01*
X129662857Y-97683809D02*
X129639047Y-97660000D01*
X129591428Y-97636190D01*
X129472380Y-97636190D01*
X129424761Y-97660000D01*
X129400952Y-97683809D01*
X129377142Y-97731428D01*
X129377142Y-97779047D01*
X129400952Y-97850476D01*
X129686666Y-98136190D01*
X129377142Y-98136190D01*
X129883333Y-90686190D02*
X130050000Y-90448095D01*
X130169047Y-90686190D02*
X130169047Y-90186190D01*
X129978571Y-90186190D01*
X129930952Y-90210000D01*
X129907142Y-90233809D01*
X129883333Y-90281428D01*
X129883333Y-90352857D01*
X129907142Y-90400476D01*
X129930952Y-90424285D01*
X129978571Y-90448095D01*
X130169047Y-90448095D01*
X129407142Y-90686190D02*
X129692857Y-90686190D01*
X129550000Y-90686190D02*
X129550000Y-90186190D01*
X129597619Y-90257619D01*
X129645238Y-90305238D01*
X129692857Y-90329047D01*
D12*
X150957500Y-92232776D02*
X150957500Y-92742224D01*
X152002500Y-92232776D02*
X152002500Y-92742224D01*
X149972500Y-96127224D02*
X149972500Y-95617776D01*
X148927500Y-96127224D02*
X148927500Y-95617776D01*
X148927500Y-92232776D02*
X148927500Y-92742224D01*
X149972500Y-92232776D02*
X149972500Y-92742224D01*
X148012500Y-96127224D02*
X148012500Y-95617776D01*
X146967500Y-96127224D02*
X146967500Y-95617776D01*
X146967500Y-92232776D02*
X146967500Y-92742224D01*
X148012500Y-92232776D02*
X148012500Y-92742224D01*
X144977500Y-95617776D02*
X144977500Y-96127224D01*
X146022500Y-95617776D02*
X146022500Y-96127224D01*
X144977500Y-92227776D02*
X144977500Y-92737224D01*
X146022500Y-92227776D02*
X146022500Y-92737224D01*
X142967500Y-95622776D02*
X142967500Y-96132224D01*
X144012500Y-95622776D02*
X144012500Y-96132224D01*
X144002500Y-92742224D02*
X144002500Y-92232776D01*
X142957500Y-92742224D02*
X142957500Y-92232776D01*
X140967500Y-95622776D02*
X140967500Y-96132224D01*
X142012500Y-95622776D02*
X142012500Y-96132224D01*
X140967500Y-92232776D02*
X140967500Y-92742224D01*
X142012500Y-92232776D02*
X142012500Y-92742224D01*
X138997500Y-95617776D02*
X138997500Y-96127224D01*
X140042500Y-95617776D02*
X140042500Y-96127224D01*
X138997500Y-92225276D02*
X138997500Y-92734724D01*
X140042500Y-92225276D02*
X140042500Y-92734724D01*
X138072500Y-96132224D02*
X138072500Y-95622776D01*
X137027500Y-96132224D02*
X137027500Y-95622776D01*
X137027500Y-92232776D02*
X137027500Y-92742224D01*
X138072500Y-92232776D02*
X138072500Y-92742224D01*
X135097500Y-95622776D02*
X135097500Y-96132224D01*
X136142500Y-95622776D02*
X136142500Y-96132224D01*
X135107500Y-92222776D02*
X135107500Y-92732224D01*
X136152500Y-92222776D02*
X136152500Y-92732224D01*
X134202500Y-96107224D02*
X134202500Y-95597776D01*
X133157500Y-96107224D02*
X133157500Y-95597776D01*
X133167500Y-92202776D02*
X133167500Y-92712224D01*
X134212500Y-92202776D02*
X134212500Y-92712224D01*
X132252500Y-95607776D02*
X132252500Y-96117224D01*
X131207500Y-95607776D02*
X131207500Y-96117224D01*
X132262500Y-92722224D02*
X132262500Y-92212776D01*
X131217500Y-92722224D02*
X131217500Y-92212776D01*
X129267500Y-95592776D02*
X129267500Y-96102224D01*
X130312500Y-95592776D02*
X130312500Y-96102224D01*
X130312500Y-92212776D02*
X130312500Y-92722224D01*
X129267500Y-92212776D02*
X129267500Y-92722224D01*
%LPC*%
D13*
X151480000Y-91575000D03*
X151480000Y-93400000D03*
D14*
X149450000Y-96785000D03*
X149450000Y-94960000D03*
D13*
X149450000Y-91575000D03*
X149450000Y-93400000D03*
D14*
X147490000Y-96785000D03*
X147490000Y-94960000D03*
D13*
X147490000Y-91575000D03*
X147490000Y-93400000D03*
X145500000Y-94960000D03*
X145500000Y-96785000D03*
X145500000Y-91570000D03*
X145500000Y-93395000D03*
X143490000Y-94965000D03*
X143490000Y-96790000D03*
D14*
X143480000Y-93400000D03*
X143480000Y-91575000D03*
D13*
X141490000Y-94965000D03*
X141490000Y-96790000D03*
X141490000Y-91575000D03*
X141490000Y-93400000D03*
X139520000Y-94960000D03*
X139520000Y-96785000D03*
X139520000Y-91567500D03*
X139520000Y-93392500D03*
D14*
X137550000Y-96790000D03*
X137550000Y-94965000D03*
D13*
X137550000Y-91575000D03*
X137550000Y-93400000D03*
X135620000Y-94965000D03*
X135620000Y-96790000D03*
X135630000Y-91565000D03*
X135630000Y-93390000D03*
D14*
X133680000Y-96765000D03*
X133680000Y-94940000D03*
D13*
X133690000Y-91545000D03*
X133690000Y-93370000D03*
X131730000Y-96775000D03*
X131730000Y-94950000D03*
D14*
X131740000Y-93380000D03*
X131740000Y-91555000D03*
D13*
X129790000Y-94935000D03*
X129790000Y-96760000D03*
X129790000Y-93380000D03*
X129790000Y-91555000D03*
D15*
X149370000Y-101300000D03*
D16*
X146830000Y-101300000D03*
X144290000Y-101300000D03*
X141750000Y-101300000D03*
X139210000Y-101300000D03*
X136670000Y-101300000D03*
X134130000Y-101300000D03*
X131590000Y-101300000D03*
M02*
