M48
; DRILL file {KiCad (6.0.0)} date Sun Dec  3 01:07:36 2023
; FORMAT={-:-/ absolute / metric / decimal}
; #@! TF.CreationDate,2023-12-03T01:07:36-08:00
; #@! TF.GenerationSoftware,Kicad,Pcbnew,(6.0.0)
; #@! TF.FileFunction,Plated,1,4,PTH
FMAT,2
METRIC
; #@! TA.AperFunction,Plated,PTH,ViaDrill
T1C0.400
; #@! TA.AperFunction,Plated,PTH,ComponentDrill
T2C1.000
%
G90
G05
T1
X128.12Y-96.16
X128.16Y-94.29
X128.21Y-101.96
X128.25Y-89.07
X130.29Y-98.65
X130.79Y-90.36
X133.45Y-88.45
X134.71Y-90.31
X136.6Y-90.23
X138.42Y-90.35
X139.303Y-99.854
X141.233Y-98.826
X143.38Y-90.34
X144.549Y-91.228
X146.19Y-98.48
X146.4Y-88.51
X148.45Y-97.89
X150.45Y-90.42
X151.47Y-94.7
X152.58Y-102.17
X152.61Y-89.04
X152.78Y-94.54
X152.8Y-96.57
T2
X131.59Y-101.3
X134.13Y-101.3
X136.67Y-101.3
X139.21Y-101.3
X141.75Y-101.3
X144.29Y-101.3
X146.83Y-101.3
X149.37Y-101.3
T0
M30
