G04 #@! TF.GenerationSoftware,KiCad,Pcbnew,(6.0.0)*
G04 #@! TF.CreationDate,2023-12-03T01:04:49-08:00*
G04 #@! TF.ProjectId,8BitSerialDACBoard,38426974-5365-4726-9961-6c444143426f,rev?*
G04 #@! TF.SameCoordinates,Original*
G04 #@! TF.FileFunction,Legend,Top*
G04 #@! TF.FilePolarity,Positive*
%FSLAX46Y46*%
G04 Gerber Fmt 4.6, Leading zero omitted, Abs format (unit mm)*
G04 Created by KiCad (PCBNEW (6.0.0)) date 2023-12-03 01:04:49*
%MOMM*%
%LPD*%
G01*
G04 APERTURE LIST*
G04 Aperture macros list*
%AMRoundRect*
0 Rectangle with rounded corners*
0 $1 Rounding radius*
0 $2 $3 $4 $5 $6 $7 $8 $9 X,Y pos of 4 corners*
0 Add a 4 corners polygon primitive as box body*
4,1,4,$2,$3,$4,$5,$6,$7,$8,$9,$2,$3,0*
0 Add four circle primitives for the rounded corners*
1,1,$1+$1,$2,$3*
1,1,$1+$1,$4,$5*
1,1,$1+$1,$6,$7*
1,1,$1+$1,$8,$9*
0 Add four rect primitives between the rounded corners*
20,1,$1+$1,$2,$3,$4,$5,0*
20,1,$1+$1,$4,$5,$6,$7,0*
20,1,$1+$1,$6,$7,$8,$9,0*
20,1,$1+$1,$8,$9,$2,$3,0*%
%AMFreePoly0*
4,1,6,0.500000,-0.750000,-0.650000,-0.750000,-0.150000,0.000000,-0.650000,0.750000,0.500000,0.750000,0.500000,-0.750000,0.500000,-0.750000,$1*%
%AMFreePoly1*
4,1,6,1.000000,0.000000,0.500000,-0.750000,-0.500000,-0.750000,-0.500000,0.750000,0.500000,0.750000,1.000000,0.000000,1.000000,0.000000,$1*%
G04 Aperture macros list end*
%ADD10C,0.125000*%
%ADD11C,0.100000*%
%ADD12C,0.150000*%
%ADD13C,0.298607*%
%ADD14C,0.120000*%
%ADD15RoundRect,0.112500X-0.112500X0.637500X-0.112500X-0.637500X0.112500X-0.637500X0.112500X0.637500X0*%
%ADD16FreePoly0,90.000000*%
%ADD17FreePoly1,90.000000*%
%ADD18R,1.700000X1.700000*%
%ADD19O,1.700000X1.700000*%
%ADD20RoundRect,0.237500X0.237500X-0.300000X0.237500X0.300000X-0.237500X0.300000X-0.237500X-0.300000X0*%
G04 APERTURE END LIST*
D10*
X148890000Y-99296190D02*
X148985238Y-99296190D01*
X149032857Y-99320000D01*
X149080476Y-99367619D01*
X149104285Y-99462857D01*
X149104285Y-99629523D01*
X149080476Y-99724761D01*
X149032857Y-99772380D01*
X148985238Y-99796190D01*
X148890000Y-99796190D01*
X148842380Y-99772380D01*
X148794761Y-99724761D01*
X148770952Y-99629523D01*
X148770952Y-99462857D01*
X148794761Y-99367619D01*
X148842380Y-99320000D01*
X148890000Y-99296190D01*
X149318571Y-99296190D02*
X149318571Y-99700952D01*
X149342380Y-99748571D01*
X149366190Y-99772380D01*
X149413809Y-99796190D01*
X149509047Y-99796190D01*
X149556666Y-99772380D01*
X149580476Y-99748571D01*
X149604285Y-99700952D01*
X149604285Y-99296190D01*
X149770952Y-99296190D02*
X150056666Y-99296190D01*
X149913809Y-99796190D02*
X149913809Y-99296190D01*
X146200952Y-99782380D02*
X146272380Y-99806190D01*
X146391428Y-99806190D01*
X146439047Y-99782380D01*
X146462857Y-99758571D01*
X146486666Y-99710952D01*
X146486666Y-99663333D01*
X146462857Y-99615714D01*
X146439047Y-99591904D01*
X146391428Y-99568095D01*
X146296190Y-99544285D01*
X146248571Y-99520476D01*
X146224761Y-99496666D01*
X146200952Y-99449047D01*
X146200952Y-99401428D01*
X146224761Y-99353809D01*
X146248571Y-99330000D01*
X146296190Y-99306190D01*
X146415238Y-99306190D01*
X146486666Y-99330000D01*
X146700952Y-99544285D02*
X146867619Y-99544285D01*
X146939047Y-99806190D02*
X146700952Y-99806190D01*
X146700952Y-99306190D01*
X146939047Y-99306190D01*
X147439047Y-99806190D02*
X147272380Y-99568095D01*
X147153333Y-99806190D02*
X147153333Y-99306190D01*
X147343809Y-99306190D01*
X147391428Y-99330000D01*
X147415238Y-99353809D01*
X147439047Y-99401428D01*
X147439047Y-99472857D01*
X147415238Y-99520476D01*
X147391428Y-99544285D01*
X147343809Y-99568095D01*
X147153333Y-99568095D01*
X143174761Y-99772380D02*
X143246190Y-99796190D01*
X143365238Y-99796190D01*
X143412857Y-99772380D01*
X143436666Y-99748571D01*
X143460476Y-99700952D01*
X143460476Y-99653333D01*
X143436666Y-99605714D01*
X143412857Y-99581904D01*
X143365238Y-99558095D01*
X143270000Y-99534285D01*
X143222380Y-99510476D01*
X143198571Y-99486666D01*
X143174761Y-99439047D01*
X143174761Y-99391428D01*
X143198571Y-99343809D01*
X143222380Y-99320000D01*
X143270000Y-99296190D01*
X143389047Y-99296190D01*
X143460476Y-99320000D01*
X143960476Y-99796190D02*
X143793809Y-99558095D01*
X143674761Y-99796190D02*
X143674761Y-99296190D01*
X143865238Y-99296190D01*
X143912857Y-99320000D01*
X143936666Y-99343809D01*
X143960476Y-99391428D01*
X143960476Y-99462857D01*
X143936666Y-99510476D01*
X143912857Y-99534285D01*
X143865238Y-99558095D01*
X143674761Y-99558095D01*
X144460476Y-99748571D02*
X144436666Y-99772380D01*
X144365238Y-99796190D01*
X144317619Y-99796190D01*
X144246190Y-99772380D01*
X144198571Y-99724761D01*
X144174761Y-99677142D01*
X144150952Y-99581904D01*
X144150952Y-99510476D01*
X144174761Y-99415238D01*
X144198571Y-99367619D01*
X144246190Y-99320000D01*
X144317619Y-99296190D01*
X144365238Y-99296190D01*
X144436666Y-99320000D01*
X144460476Y-99343809D01*
X144912857Y-99796190D02*
X144674761Y-99796190D01*
X144674761Y-99296190D01*
X145079523Y-99796190D02*
X145079523Y-99296190D01*
X145365238Y-99796190D02*
X145150952Y-99510476D01*
X145365238Y-99296190D02*
X145079523Y-99581904D01*
X141182380Y-99796190D02*
X141015714Y-99558095D01*
X140896666Y-99796190D02*
X140896666Y-99296190D01*
X141087142Y-99296190D01*
X141134761Y-99320000D01*
X141158571Y-99343809D01*
X141182380Y-99391428D01*
X141182380Y-99462857D01*
X141158571Y-99510476D01*
X141134761Y-99534285D01*
X141087142Y-99558095D01*
X140896666Y-99558095D01*
X141682380Y-99748571D02*
X141658571Y-99772380D01*
X141587142Y-99796190D01*
X141539523Y-99796190D01*
X141468095Y-99772380D01*
X141420476Y-99724761D01*
X141396666Y-99677142D01*
X141372857Y-99581904D01*
X141372857Y-99510476D01*
X141396666Y-99415238D01*
X141420476Y-99367619D01*
X141468095Y-99320000D01*
X141539523Y-99296190D01*
X141587142Y-99296190D01*
X141658571Y-99320000D01*
X141682380Y-99343809D01*
X142134761Y-99796190D02*
X141896666Y-99796190D01*
X141896666Y-99296190D01*
X142301428Y-99796190D02*
X142301428Y-99296190D01*
X142587142Y-99796190D02*
X142372857Y-99510476D01*
X142587142Y-99296190D02*
X142301428Y-99581904D01*
X138701904Y-99165000D02*
X139225714Y-99165000D01*
X138916190Y-99306190D02*
X139011428Y-99306190D01*
X139059047Y-99330000D01*
X139106666Y-99377619D01*
X139130476Y-99472857D01*
X139130476Y-99639523D01*
X139106666Y-99734761D01*
X139059047Y-99782380D01*
X139011428Y-99806190D01*
X138916190Y-99806190D01*
X138868571Y-99782380D01*
X138820952Y-99734761D01*
X138797142Y-99639523D01*
X138797142Y-99472857D01*
X138820952Y-99377619D01*
X138868571Y-99330000D01*
X138916190Y-99306190D01*
X139225714Y-99165000D02*
X139678095Y-99165000D01*
X139344761Y-99544285D02*
X139511428Y-99544285D01*
X139582857Y-99806190D02*
X139344761Y-99806190D01*
X139344761Y-99306190D01*
X139582857Y-99306190D01*
X135469523Y-99155000D02*
X135945714Y-99155000D01*
X135564761Y-99772380D02*
X135636190Y-99796190D01*
X135755238Y-99796190D01*
X135802857Y-99772380D01*
X135826666Y-99748571D01*
X135850476Y-99700952D01*
X135850476Y-99653333D01*
X135826666Y-99605714D01*
X135802857Y-99581904D01*
X135755238Y-99558095D01*
X135660000Y-99534285D01*
X135612380Y-99510476D01*
X135588571Y-99486666D01*
X135564761Y-99439047D01*
X135564761Y-99391428D01*
X135588571Y-99343809D01*
X135612380Y-99320000D01*
X135660000Y-99296190D01*
X135779047Y-99296190D01*
X135850476Y-99320000D01*
X135945714Y-99155000D02*
X136445714Y-99155000D01*
X136350476Y-99796190D02*
X136183809Y-99558095D01*
X136064761Y-99796190D02*
X136064761Y-99296190D01*
X136255238Y-99296190D01*
X136302857Y-99320000D01*
X136326666Y-99343809D01*
X136350476Y-99391428D01*
X136350476Y-99462857D01*
X136326666Y-99510476D01*
X136302857Y-99534285D01*
X136255238Y-99558095D01*
X136064761Y-99558095D01*
X136445714Y-99155000D02*
X136945714Y-99155000D01*
X136850476Y-99748571D02*
X136826666Y-99772380D01*
X136755238Y-99796190D01*
X136707619Y-99796190D01*
X136636190Y-99772380D01*
X136588571Y-99724761D01*
X136564761Y-99677142D01*
X136540952Y-99581904D01*
X136540952Y-99510476D01*
X136564761Y-99415238D01*
X136588571Y-99367619D01*
X136636190Y-99320000D01*
X136707619Y-99296190D01*
X136755238Y-99296190D01*
X136826666Y-99320000D01*
X136850476Y-99343809D01*
X136945714Y-99155000D02*
X137350476Y-99155000D01*
X137302857Y-99796190D02*
X137064761Y-99796190D01*
X137064761Y-99296190D01*
X137350476Y-99155000D02*
X137850476Y-99155000D01*
X137755238Y-99796190D02*
X137588571Y-99558095D01*
X137469523Y-99796190D02*
X137469523Y-99296190D01*
X137660000Y-99296190D01*
X137707619Y-99320000D01*
X137731428Y-99343809D01*
X137755238Y-99391428D01*
X137755238Y-99462857D01*
X137731428Y-99510476D01*
X137707619Y-99534285D01*
X137660000Y-99558095D01*
X137469523Y-99558095D01*
X131219047Y-99340000D02*
X131171428Y-99316190D01*
X131100000Y-99316190D01*
X131028571Y-99340000D01*
X130980952Y-99387619D01*
X130957142Y-99435238D01*
X130933333Y-99530476D01*
X130933333Y-99601904D01*
X130957142Y-99697142D01*
X130980952Y-99744761D01*
X131028571Y-99792380D01*
X131100000Y-99816190D01*
X131147619Y-99816190D01*
X131219047Y-99792380D01*
X131242857Y-99768571D01*
X131242857Y-99601904D01*
X131147619Y-99601904D01*
X131457142Y-99816190D02*
X131457142Y-99316190D01*
X131742857Y-99816190D01*
X131742857Y-99316190D01*
X131980952Y-99816190D02*
X131980952Y-99316190D01*
X132100000Y-99316190D01*
X132171428Y-99340000D01*
X132219047Y-99387619D01*
X132242857Y-99435238D01*
X132266666Y-99530476D01*
X132266666Y-99601904D01*
X132242857Y-99697142D01*
X132219047Y-99744761D01*
X132171428Y-99792380D01*
X132100000Y-99816190D01*
X131980952Y-99816190D01*
X133503333Y-99306190D02*
X133670000Y-99806190D01*
X133836666Y-99306190D01*
X134289047Y-99758571D02*
X134265238Y-99782380D01*
X134193809Y-99806190D01*
X134146190Y-99806190D01*
X134074761Y-99782380D01*
X134027142Y-99734761D01*
X134003333Y-99687142D01*
X133979523Y-99591904D01*
X133979523Y-99520476D01*
X134003333Y-99425238D01*
X134027142Y-99377619D01*
X134074761Y-99330000D01*
X134146190Y-99306190D01*
X134193809Y-99306190D01*
X134265238Y-99330000D01*
X134289047Y-99353809D01*
X134789047Y-99758571D02*
X134765238Y-99782380D01*
X134693809Y-99806190D01*
X134646190Y-99806190D01*
X134574761Y-99782380D01*
X134527142Y-99734761D01*
X134503333Y-99687142D01*
X134479523Y-99591904D01*
X134479523Y-99520476D01*
X134503333Y-99425238D01*
X134527142Y-99377619D01*
X134574761Y-99330000D01*
X134646190Y-99306190D01*
X134693809Y-99306190D01*
X134765238Y-99330000D01*
X134789047Y-99353809D01*
D11*
X137309047Y-94416190D02*
X137309047Y-94820952D01*
X137332857Y-94868571D01*
X137356666Y-94892380D01*
X137404285Y-94916190D01*
X137499523Y-94916190D01*
X137547142Y-94892380D01*
X137570952Y-94868571D01*
X137594761Y-94820952D01*
X137594761Y-94416190D01*
X138094761Y-94916190D02*
X137809047Y-94916190D01*
X137951904Y-94916190D02*
X137951904Y-94416190D01*
X137904285Y-94487619D01*
X137856666Y-94535238D01*
X137809047Y-94559047D01*
D10*
X129918333Y-94276190D02*
X129918333Y-94633333D01*
X129894523Y-94704761D01*
X129846904Y-94752380D01*
X129775476Y-94776190D01*
X129727857Y-94776190D01*
X130156428Y-94776190D02*
X130156428Y-94276190D01*
X130346904Y-94276190D01*
X130394523Y-94300000D01*
X130418333Y-94323809D01*
X130442142Y-94371428D01*
X130442142Y-94442857D01*
X130418333Y-94490476D01*
X130394523Y-94514285D01*
X130346904Y-94538095D01*
X130156428Y-94538095D01*
X130632619Y-94323809D02*
X130656428Y-94300000D01*
X130704047Y-94276190D01*
X130823095Y-94276190D01*
X130870714Y-94300000D01*
X130894523Y-94323809D01*
X130918333Y-94371428D01*
X130918333Y-94419047D01*
X130894523Y-94490476D01*
X130608809Y-94776190D01*
X130918333Y-94776190D01*
X132438333Y-94266190D02*
X132438333Y-94623333D01*
X132414523Y-94694761D01*
X132366904Y-94742380D01*
X132295476Y-94766190D01*
X132247857Y-94766190D01*
X132676428Y-94766190D02*
X132676428Y-94266190D01*
X132866904Y-94266190D01*
X132914523Y-94290000D01*
X132938333Y-94313809D01*
X132962142Y-94361428D01*
X132962142Y-94432857D01*
X132938333Y-94480476D01*
X132914523Y-94504285D01*
X132866904Y-94528095D01*
X132676428Y-94528095D01*
X133438333Y-94766190D02*
X133152619Y-94766190D01*
X133295476Y-94766190D02*
X133295476Y-94266190D01*
X133247857Y-94337619D01*
X133200238Y-94385238D01*
X133152619Y-94409047D01*
X151426190Y-101466666D02*
X151783333Y-101466666D01*
X151854761Y-101490476D01*
X151902380Y-101538095D01*
X151926190Y-101609523D01*
X151926190Y-101657142D01*
X151926190Y-100966666D02*
X151926190Y-101252380D01*
X151926190Y-101109523D02*
X151426190Y-101109523D01*
X151497619Y-101157142D01*
X151545238Y-101204761D01*
X151569047Y-101252380D01*
X134876666Y-94716071D02*
X134852857Y-94739880D01*
X134781428Y-94763690D01*
X134733809Y-94763690D01*
X134662380Y-94739880D01*
X134614761Y-94692261D01*
X134590952Y-94644642D01*
X134567142Y-94549404D01*
X134567142Y-94477976D01*
X134590952Y-94382738D01*
X134614761Y-94335119D01*
X134662380Y-94287500D01*
X134733809Y-94263690D01*
X134781428Y-94263690D01*
X134852857Y-94287500D01*
X134876666Y-94311309D01*
X135352857Y-94763690D02*
X135067142Y-94763690D01*
X135210000Y-94763690D02*
X135210000Y-94263690D01*
X135162380Y-94335119D01*
X135114761Y-94382738D01*
X135067142Y-94406547D01*
G36*
X141617575Y-89225003D02*
G01*
X141617782Y-89227057D01*
X141617575Y-89227311D01*
X141616546Y-89227074D01*
X141616421Y-89226157D01*
X141617054Y-89224733D01*
X141617575Y-89225003D01*
G37*
G36*
X141615436Y-89231888D02*
G01*
X141614070Y-89236219D01*
X141611870Y-89242411D01*
X141609442Y-89248815D01*
X141606804Y-89255406D01*
X141604806Y-89260025D01*
X141603641Y-89262250D01*
X141603505Y-89261665D01*
X141604594Y-89257669D01*
X141606422Y-89252165D01*
X141608678Y-89245955D01*
X141611050Y-89239841D01*
X141613228Y-89234628D01*
X141614900Y-89231116D01*
X141615741Y-89230092D01*
X141615436Y-89231888D01*
G37*
G36*
X146170008Y-96856259D02*
G01*
X146174762Y-96850730D01*
X146180986Y-96843788D01*
X146188366Y-96835789D01*
X146194440Y-96829346D01*
X146223031Y-96798948D01*
X146249159Y-96770429D01*
X146273048Y-96743485D01*
X146294922Y-96717812D01*
X146315004Y-96693104D01*
X146333519Y-96669059D01*
X146350688Y-96645372D01*
X146366737Y-96621739D01*
X146381889Y-96597854D01*
X146396367Y-96573415D01*
X146410394Y-96548116D01*
X146424195Y-96521654D01*
X146431961Y-96506106D01*
X146454763Y-96457210D01*
X146475052Y-96408119D01*
X146490273Y-96365918D01*
X146682854Y-96365918D01*
X146683719Y-96366783D01*
X146684584Y-96365918D01*
X146683719Y-96365052D01*
X146682854Y-96365918D01*
X146490273Y-96365918D01*
X146491522Y-96362456D01*
X146684584Y-96362456D01*
X146685450Y-96363322D01*
X146686315Y-96362456D01*
X146685450Y-96361591D01*
X146684584Y-96362456D01*
X146491522Y-96362456D01*
X146493094Y-96358098D01*
X146509153Y-96306413D01*
X146523494Y-96252328D01*
X146523650Y-96251690D01*
X146527253Y-96236736D01*
X146529962Y-96225083D01*
X146531779Y-96216690D01*
X146532711Y-96211517D01*
X146532764Y-96209522D01*
X146531942Y-96210664D01*
X146530251Y-96214903D01*
X146527696Y-96222197D01*
X146527380Y-96223134D01*
X146515873Y-96254377D01*
X146503165Y-96283078D01*
X146488821Y-96310068D01*
X146472405Y-96336181D01*
X146457289Y-96357264D01*
X146451479Y-96364400D01*
X146443609Y-96373261D01*
X146434230Y-96383294D01*
X146423889Y-96393948D01*
X146413136Y-96404671D01*
X146402520Y-96414912D01*
X146392589Y-96424119D01*
X146383894Y-96431741D01*
X146379978Y-96434945D01*
X146362531Y-96448252D01*
X146344845Y-96460696D01*
X146326322Y-96472644D01*
X146306365Y-96484462D01*
X146284375Y-96496519D01*
X146259756Y-96509180D01*
X146256232Y-96510939D01*
X146220381Y-96529221D01*
X146187011Y-96547220D01*
X146155240Y-96565465D01*
X146124185Y-96584485D01*
X146092963Y-96604810D01*
X146060691Y-96626969D01*
X146049411Y-96634952D01*
X146024316Y-96652834D01*
X146051142Y-96625284D01*
X146085265Y-96588899D01*
X146117330Y-96551868D01*
X146147707Y-96513690D01*
X146176772Y-96473861D01*
X146204895Y-96431881D01*
X146232449Y-96387246D01*
X146249072Y-96358617D01*
X146252913Y-96351701D01*
X146257611Y-96342998D01*
X146262948Y-96332934D01*
X146268706Y-96321937D01*
X146274667Y-96310436D01*
X146280612Y-96298857D01*
X146286324Y-96287629D01*
X146291583Y-96277178D01*
X146296172Y-96267934D01*
X146299872Y-96260322D01*
X146302466Y-96254771D01*
X146303736Y-96251709D01*
X146303827Y-96251312D01*
X146303048Y-96252236D01*
X146300922Y-96255673D01*
X146297759Y-96261098D01*
X146293872Y-96267986D01*
X146293288Y-96269037D01*
X146272369Y-96305526D01*
X146249329Y-96343478D01*
X146224680Y-96382108D01*
X146198933Y-96420633D01*
X146172600Y-96458265D01*
X146149620Y-96489658D01*
X146128776Y-96517095D01*
X146109058Y-96542150D01*
X146089910Y-96565466D01*
X146070779Y-96587687D01*
X146051109Y-96609457D01*
X146030346Y-96631419D01*
X146007934Y-96654218D01*
X146007119Y-96655034D01*
X145997254Y-96664815D01*
X145987502Y-96674309D01*
X145977608Y-96683742D01*
X145967321Y-96693337D01*
X145956387Y-96703318D01*
X145944554Y-96713910D01*
X145931569Y-96725337D01*
X145917178Y-96737823D01*
X145901130Y-96751593D01*
X145883171Y-96766869D01*
X145863049Y-96783878D01*
X145840510Y-96802842D01*
X145839440Y-96803741D01*
X145826544Y-96814651D01*
X145813332Y-96825970D01*
X145800315Y-96837252D01*
X145788001Y-96848051D01*
X145776901Y-96857920D01*
X145767524Y-96866413D01*
X145761247Y-96872256D01*
X145749586Y-96883233D01*
X145738120Y-96893850D01*
X145727096Y-96903893D01*
X145716762Y-96913149D01*
X145707364Y-96921405D01*
X145699149Y-96928446D01*
X145692365Y-96934060D01*
X145687259Y-96938034D01*
X145684076Y-96940153D01*
X145683065Y-96940205D01*
X145683348Y-96939558D01*
X145686155Y-96935328D01*
X145690891Y-96928812D01*
X145697262Y-96920380D01*
X145704975Y-96910399D01*
X145713736Y-96899239D01*
X145723253Y-96887268D01*
X145733231Y-96874855D01*
X145743377Y-96862369D01*
X145753398Y-96850177D01*
X145763000Y-96838650D01*
X145771890Y-96828155D01*
X145773492Y-96826288D01*
X145786114Y-96811809D01*
X145800302Y-96795917D01*
X145816142Y-96778519D01*
X145833722Y-96759523D01*
X145853131Y-96738837D01*
X145874456Y-96716368D01*
X145897784Y-96692026D01*
X145923204Y-96665716D01*
X145950805Y-96637347D01*
X145980672Y-96606826D01*
X146012895Y-96574062D01*
X146034700Y-96551968D01*
X146110852Y-96474904D01*
X146197661Y-96370220D01*
X146215738Y-96348417D01*
X146231756Y-96329084D01*
X146245868Y-96312030D01*
X146258227Y-96297061D01*
X146268984Y-96283986D01*
X146278293Y-96272612D01*
X146286306Y-96262746D01*
X146293176Y-96254197D01*
X146299056Y-96246773D01*
X146304098Y-96240280D01*
X146308455Y-96234526D01*
X146312280Y-96229320D01*
X146315724Y-96224468D01*
X146318942Y-96219779D01*
X146322085Y-96215060D01*
X146325306Y-96210119D01*
X146327795Y-96206260D01*
X146331881Y-96199625D01*
X146534149Y-96199625D01*
X146534467Y-96201869D01*
X146535058Y-96201896D01*
X146535471Y-96199580D01*
X146535194Y-96198579D01*
X146534426Y-96197923D01*
X146534149Y-96199625D01*
X146331881Y-96199625D01*
X146336055Y-96192846D01*
X146535743Y-96192846D01*
X146536608Y-96193711D01*
X146537473Y-96192846D01*
X146536608Y-96191981D01*
X146535743Y-96192846D01*
X146336055Y-96192846D01*
X146366631Y-96143194D01*
X146402137Y-96079878D01*
X146434300Y-96016352D01*
X146463103Y-95952654D01*
X146488534Y-95888823D01*
X146510577Y-95824898D01*
X146529219Y-95760919D01*
X146544444Y-95696923D01*
X146556237Y-95632951D01*
X146564586Y-95569041D01*
X146564598Y-95568923D01*
X146565453Y-95558414D01*
X146566178Y-95545005D01*
X146566771Y-95529251D01*
X146567229Y-95511712D01*
X146567549Y-95492944D01*
X146567729Y-95473506D01*
X146567767Y-95453956D01*
X146567659Y-95434850D01*
X146567403Y-95416747D01*
X146566997Y-95400204D01*
X146566437Y-95385779D01*
X146565722Y-95374031D01*
X146565522Y-95371621D01*
X146558190Y-95305934D01*
X146547941Y-95241401D01*
X146534826Y-95178232D01*
X146518893Y-95116640D01*
X146500190Y-95056835D01*
X146480164Y-95002527D01*
X146474280Y-94988752D01*
X146466674Y-94972571D01*
X146457599Y-94954424D01*
X146447304Y-94934749D01*
X146436042Y-94913984D01*
X146424065Y-94892567D01*
X146411623Y-94870937D01*
X146398970Y-94849533D01*
X146386356Y-94828793D01*
X146374032Y-94809155D01*
X146362252Y-94791058D01*
X146351265Y-94774941D01*
X146342880Y-94763313D01*
X146335962Y-94754209D01*
X146328004Y-94744088D01*
X146318832Y-94732742D01*
X146308271Y-94719959D01*
X146296144Y-94705532D01*
X146282277Y-94689250D01*
X146266494Y-94670905D01*
X146248621Y-94650285D01*
X146241517Y-94642124D01*
X146215805Y-94612458D01*
X146192324Y-94585037D01*
X146170888Y-94559628D01*
X146151311Y-94535999D01*
X146133409Y-94513915D01*
X146116994Y-94493145D01*
X146101882Y-94473455D01*
X146087886Y-94454612D01*
X146074820Y-94436384D01*
X146062500Y-94418537D01*
X146058641Y-94412804D01*
X146035530Y-94376807D01*
X146015309Y-94342117D01*
X145997847Y-94308358D01*
X145983009Y-94275153D01*
X145970663Y-94242124D01*
X145960676Y-94208895D01*
X145952915Y-94175087D01*
X145947248Y-94140325D01*
X145943540Y-94104231D01*
X145942240Y-94082636D01*
X145941780Y-94037016D01*
X145944506Y-93990299D01*
X145950380Y-93942656D01*
X145959367Y-93894259D01*
X145971431Y-93845279D01*
X145986535Y-93795887D01*
X146004646Y-93746256D01*
X146020633Y-93707946D01*
X146031882Y-93682395D01*
X146025503Y-93679671D01*
X145990036Y-93666304D01*
X145954131Y-93656283D01*
X145917938Y-93649631D01*
X145881605Y-93646374D01*
X145845282Y-93646535D01*
X145827630Y-93647859D01*
X145814232Y-93649474D01*
X145800206Y-93651686D01*
X145786351Y-93654329D01*
X145773462Y-93657235D01*
X145762336Y-93660237D01*
X145753771Y-93663168D01*
X145752959Y-93663505D01*
X145745991Y-93666315D01*
X145739217Y-93668798D01*
X145734320Y-93670353D01*
X145731166Y-93671584D01*
X145727538Y-93673866D01*
X145723020Y-93677549D01*
X145717194Y-93682986D01*
X145709644Y-93690526D01*
X145706262Y-93693989D01*
X145686762Y-93713219D01*
X145668004Y-93729929D01*
X145649265Y-93744732D01*
X145633174Y-93756034D01*
X145623860Y-93762109D01*
X145614907Y-93767636D01*
X145605907Y-93772805D01*
X145596455Y-93777808D01*
X145586143Y-93782837D01*
X145574565Y-93788082D01*
X145561314Y-93793736D01*
X145545985Y-93799989D01*
X145528171Y-93807034D01*
X145509428Y-93814305D01*
X145483317Y-93824667D01*
X145460388Y-93834409D01*
X145440434Y-93843628D01*
X145423249Y-93852418D01*
X145408627Y-93860874D01*
X145408181Y-93861151D01*
X145382919Y-93878764D01*
X145360108Y-93898621D01*
X145339558Y-93920924D01*
X145321076Y-93945875D01*
X145309098Y-93965319D01*
X145305038Y-93972330D01*
X145301673Y-93977953D01*
X145299320Y-93981670D01*
X145298299Y-93982964D01*
X145298280Y-93982917D01*
X145298917Y-93980937D01*
X145300675Y-93976342D01*
X145303327Y-93969706D01*
X145306645Y-93961601D01*
X145308897Y-93956185D01*
X145340548Y-93884913D01*
X145375096Y-93815533D01*
X145412550Y-93748032D01*
X145452920Y-93682394D01*
X145496212Y-93618606D01*
X145542438Y-93556653D01*
X145574385Y-93516969D01*
X145592086Y-93495622D01*
X145593283Y-93482851D01*
X145593491Y-93468933D01*
X145591818Y-93457195D01*
X145587232Y-93426787D01*
X145585758Y-93395561D01*
X145587359Y-93364136D01*
X145591997Y-93333132D01*
X145599635Y-93303168D01*
X145601323Y-93297941D01*
X145612984Y-93268375D01*
X145627583Y-93240439D01*
X145644914Y-93214313D01*
X145664773Y-93190175D01*
X145686954Y-93168206D01*
X145711253Y-93148585D01*
X145737464Y-93131491D01*
X145765382Y-93117103D01*
X145794803Y-93105602D01*
X145825521Y-93097166D01*
X145832416Y-93095742D01*
X145841192Y-93094299D01*
X145852184Y-93092882D01*
X145864149Y-93091631D01*
X145875844Y-93090686D01*
X145878936Y-93090493D01*
X145890029Y-93089845D01*
X145901463Y-93089157D01*
X145912098Y-93088500D01*
X145920796Y-93087942D01*
X145923069Y-93087791D01*
X145936454Y-93087459D01*
X145952122Y-93088017D01*
X145969034Y-93089381D01*
X145986153Y-93091469D01*
X146002017Y-93094115D01*
X146024449Y-93099374D01*
X146047269Y-93106458D01*
X146069870Y-93115083D01*
X146091649Y-93124968D01*
X146112001Y-93135828D01*
X146130321Y-93147383D01*
X146146006Y-93159348D01*
X146150965Y-93163771D01*
X146158565Y-93171349D01*
X146165422Y-93179308D01*
X146171835Y-93188133D01*
X146178105Y-93198312D01*
X146184531Y-93210331D01*
X146191414Y-93224677D01*
X146199001Y-93241716D01*
X146208509Y-93261716D01*
X146218510Y-93278715D01*
X146229381Y-93293174D01*
X146241503Y-93305552D01*
X146255253Y-93316309D01*
X146266041Y-93323115D01*
X146270296Y-93325453D01*
X146273759Y-93326721D01*
X146277590Y-93327083D01*
X146282950Y-93326702D01*
X146287675Y-93326149D01*
X146296217Y-93324715D01*
X146305273Y-93322589D01*
X146312434Y-93320382D01*
X146317566Y-93318323D01*
X146321771Y-93316038D01*
X146325804Y-93312936D01*
X146330415Y-93308427D01*
X146336357Y-93301917D01*
X146337387Y-93300757D01*
X146362638Y-93269938D01*
X146385236Y-93237544D01*
X146405021Y-93203875D01*
X146421834Y-93169230D01*
X146435516Y-93133908D01*
X146445908Y-93098209D01*
X146446502Y-93095728D01*
X146450000Y-93080000D01*
X146452660Y-93065641D01*
X146454581Y-93051740D01*
X146455858Y-93037388D01*
X146456587Y-93021674D01*
X146456866Y-93003687D01*
X146456877Y-92997943D01*
X146456844Y-92986940D01*
X146456729Y-92977171D01*
X146456489Y-92968173D01*
X146456083Y-92959481D01*
X146455467Y-92950634D01*
X146454598Y-92941167D01*
X146453434Y-92930616D01*
X146451931Y-92918519D01*
X146450048Y-92904411D01*
X146447741Y-92887829D01*
X146444967Y-92868310D01*
X146444819Y-92867274D01*
X146442063Y-92847945D01*
X146439763Y-92831583D01*
X146437878Y-92817728D01*
X146436367Y-92805921D01*
X146435189Y-92795702D01*
X146434305Y-92786612D01*
X146433672Y-92778193D01*
X146433251Y-92769984D01*
X146433001Y-92761527D01*
X146432881Y-92752362D01*
X146432850Y-92742029D01*
X146432864Y-92732278D01*
X146432973Y-92715574D01*
X146433239Y-92701810D01*
X146433684Y-92690466D01*
X146434335Y-92681023D01*
X146435215Y-92672962D01*
X146435857Y-92668611D01*
X146444750Y-92624596D01*
X146456935Y-92581552D01*
X146472343Y-92539607D01*
X146490909Y-92498891D01*
X146512566Y-92459531D01*
X146537246Y-92421655D01*
X146564885Y-92385393D01*
X146595414Y-92350873D01*
X146606654Y-92339342D01*
X146637716Y-92310330D01*
X146669618Y-92284648D01*
X146702442Y-92262245D01*
X146736272Y-92243073D01*
X146771191Y-92227082D01*
X146807284Y-92214223D01*
X146829874Y-92207906D01*
X146846068Y-92204128D01*
X146863256Y-92200730D01*
X146881802Y-92197666D01*
X146902073Y-92194889D01*
X146924435Y-92192352D01*
X146949253Y-92190009D01*
X146976893Y-92187813D01*
X146999575Y-92186241D01*
X147025501Y-92184493D01*
X147048396Y-92182830D01*
X147068687Y-92181191D01*
X147086799Y-92179518D01*
X147103162Y-92177751D01*
X147118200Y-92175832D01*
X147132342Y-92173700D01*
X147146013Y-92171297D01*
X147159642Y-92168562D01*
X147173655Y-92165438D01*
X147188479Y-92161864D01*
X147204541Y-92157781D01*
X147204665Y-92157749D01*
X147227069Y-92151723D01*
X147252275Y-92144550D01*
X147279873Y-92136364D01*
X147309449Y-92127305D01*
X147340593Y-92117507D01*
X147372892Y-92107109D01*
X147405936Y-92096247D01*
X147439313Y-92085058D01*
X147472610Y-92073680D01*
X147505417Y-92062248D01*
X147537322Y-92050900D01*
X147567912Y-92039774D01*
X147596778Y-92029005D01*
X147623506Y-92018730D01*
X147628825Y-92016642D01*
X147707574Y-91984168D01*
X147787285Y-91948465D01*
X147867859Y-91909598D01*
X147949197Y-91867633D01*
X148031198Y-91822635D01*
X148113763Y-91774670D01*
X148196792Y-91723802D01*
X148280186Y-91670098D01*
X148363844Y-91613621D01*
X148447668Y-91554439D01*
X148531557Y-91492616D01*
X148615412Y-91428218D01*
X148699133Y-91361309D01*
X148782620Y-91291956D01*
X148865774Y-91220224D01*
X148927593Y-91165144D01*
X148935258Y-91158288D01*
X148941700Y-91152658D01*
X148946619Y-91148504D01*
X148949713Y-91146079D01*
X148950680Y-91145634D01*
X148950387Y-91146091D01*
X148946759Y-91150436D01*
X148941019Y-91156919D01*
X148933478Y-91165209D01*
X148924450Y-91174978D01*
X148914248Y-91185894D01*
X148903185Y-91197627D01*
X148891575Y-91209847D01*
X148879730Y-91222223D01*
X148867964Y-91234426D01*
X148856590Y-91246124D01*
X148845921Y-91256989D01*
X148836270Y-91266689D01*
X148832140Y-91270786D01*
X148812980Y-91289419D01*
X148795517Y-91305778D01*
X148779267Y-91320275D01*
X148763745Y-91333325D01*
X148748466Y-91345341D01*
X148732947Y-91356736D01*
X148724497Y-91362638D01*
X148693773Y-91384115D01*
X148665940Y-91404365D01*
X148640752Y-91423623D01*
X148617962Y-91442122D01*
X148597323Y-91460098D01*
X148578587Y-91477784D01*
X148561509Y-91495415D01*
X148545842Y-91513225D01*
X148531338Y-91531447D01*
X148517751Y-91550318D01*
X148504834Y-91570070D01*
X148503202Y-91572697D01*
X148498968Y-91579457D01*
X148495475Y-91585022D01*
X148492649Y-91589797D01*
X148490420Y-91594187D01*
X148488715Y-91598598D01*
X148487463Y-91603434D01*
X148486592Y-91609100D01*
X148486030Y-91616002D01*
X148485704Y-91624545D01*
X148485544Y-91635133D01*
X148485477Y-91648172D01*
X148485432Y-91664067D01*
X148485396Y-91673070D01*
X148485225Y-91695406D01*
X148484910Y-91714935D01*
X148484403Y-91732310D01*
X148483656Y-91748185D01*
X148482620Y-91763212D01*
X148481247Y-91778045D01*
X148479488Y-91793337D01*
X148477296Y-91809742D01*
X148474621Y-91827912D01*
X148473279Y-91836632D01*
X148462419Y-91896308D01*
X148448401Y-91956313D01*
X148431392Y-92016158D01*
X148411561Y-92075349D01*
X148389075Y-92133397D01*
X148364102Y-92189809D01*
X148336810Y-92244095D01*
X148329319Y-92257864D01*
X148317957Y-92277873D01*
X148305311Y-92299195D01*
X148291850Y-92321094D01*
X148278043Y-92342831D01*
X148264357Y-92363670D01*
X148251260Y-92382875D01*
X148239248Y-92399670D01*
X148235191Y-92405474D01*
X148232182Y-92410360D01*
X148230655Y-92413595D01*
X148230574Y-92414340D01*
X148231824Y-92414020D01*
X148234708Y-92411054D01*
X148239029Y-92405734D01*
X148244588Y-92398352D01*
X148251186Y-92389198D01*
X148258627Y-92378564D01*
X148266711Y-92366741D01*
X148275240Y-92354020D01*
X148284017Y-92340693D01*
X148292843Y-92327050D01*
X148301520Y-92313383D01*
X148309849Y-92299984D01*
X148317633Y-92287143D01*
X148321021Y-92281426D01*
X148328102Y-92269039D01*
X148336206Y-92254288D01*
X148344969Y-92237881D01*
X148354027Y-92220527D01*
X148363017Y-92202935D01*
X148371574Y-92185814D01*
X148379335Y-92169871D01*
X148385935Y-92155816D01*
X148389021Y-92148963D01*
X148413083Y-92090492D01*
X148434028Y-92031354D01*
X148451791Y-91971784D01*
X148466308Y-91912016D01*
X148477516Y-91852283D01*
X148484454Y-91801152D01*
X148486506Y-91781796D01*
X148488139Y-91764045D01*
X148489394Y-91747097D01*
X148490311Y-91730153D01*
X148490931Y-91712412D01*
X148491295Y-91693074D01*
X148491444Y-91671339D01*
X148491453Y-91663625D01*
X148491453Y-91607225D01*
X148497347Y-91595586D01*
X148515483Y-91563515D01*
X148536741Y-91532686D01*
X148560914Y-91503385D01*
X148571818Y-91491675D01*
X148585019Y-91478311D01*
X148597986Y-91465905D01*
X148611168Y-91454098D01*
X148625016Y-91442530D01*
X148639976Y-91430843D01*
X148656499Y-91418677D01*
X148675034Y-91405675D01*
X148696028Y-91391477D01*
X148702600Y-91387111D01*
X148723682Y-91372905D01*
X148742739Y-91359473D01*
X148760341Y-91346342D01*
X148777060Y-91333037D01*
X148793464Y-91319082D01*
X148810125Y-91304004D01*
X148827613Y-91287326D01*
X148846500Y-91268576D01*
X148853200Y-91261787D01*
X148868255Y-91246310D01*
X148881794Y-91232012D01*
X148894413Y-91218216D01*
X148906707Y-91204247D01*
X148919272Y-91189430D01*
X148932703Y-91173089D01*
X148946302Y-91156172D01*
X148953210Y-91147554D01*
X148959366Y-91139960D01*
X148964456Y-91133769D01*
X148968166Y-91129362D01*
X148970182Y-91127119D01*
X148970452Y-91126917D01*
X148969849Y-91128529D01*
X148967918Y-91132842D01*
X148964850Y-91139444D01*
X148960838Y-91147928D01*
X148956073Y-91157883D01*
X148950825Y-91168743D01*
X148921498Y-91229846D01*
X148891459Y-91293777D01*
X148860938Y-91360035D01*
X148830162Y-91428114D01*
X148799358Y-91497513D01*
X148768755Y-91567728D01*
X148745996Y-91620800D01*
X148736815Y-91642401D01*
X148728789Y-91661387D01*
X148721695Y-91678315D01*
X148715309Y-91693746D01*
X148709406Y-91708237D01*
X148703762Y-91722347D01*
X148698154Y-91736636D01*
X148692357Y-91751662D01*
X148686147Y-91767984D01*
X148679301Y-91786160D01*
X148673804Y-91800835D01*
X148664035Y-91826427D01*
X148654607Y-91849930D01*
X148645130Y-91872213D01*
X148635214Y-91894148D01*
X148624466Y-91916605D01*
X148612498Y-91940457D01*
X148602831Y-91959124D01*
X148561639Y-92034537D01*
X148518172Y-92107659D01*
X148472243Y-92178758D01*
X148423663Y-92248105D01*
X148372244Y-92315969D01*
X148317796Y-92382621D01*
X148264284Y-92443748D01*
X148254551Y-92454629D01*
X148246962Y-92463401D01*
X148241232Y-92470422D01*
X148237078Y-92476054D01*
X148234220Y-92480656D01*
X148232553Y-92484132D01*
X148224775Y-92499157D01*
X148214461Y-92512019D01*
X148201416Y-92522926D01*
X148189443Y-92530095D01*
X148184002Y-92533140D01*
X148178595Y-92536698D01*
X148172727Y-92541164D01*
X148165906Y-92546938D01*
X148157637Y-92554415D01*
X148147905Y-92563540D01*
X148136620Y-92574217D01*
X148127439Y-92582840D01*
X148119972Y-92589753D01*
X148113828Y-92595300D01*
X148108613Y-92599825D01*
X148103938Y-92603673D01*
X148099411Y-92607186D01*
X148094640Y-92610709D01*
X148092301Y-92612395D01*
X148086608Y-92616828D01*
X148079295Y-92623038D01*
X148071156Y-92630321D01*
X148062989Y-92637975D01*
X148059829Y-92641046D01*
X148047970Y-92652080D01*
X148034446Y-92663626D01*
X148020628Y-92674533D01*
X148015051Y-92678657D01*
X148005626Y-92685473D01*
X147995875Y-92692533D01*
X147986683Y-92699195D01*
X147978938Y-92704816D01*
X147975699Y-92707171D01*
X147967960Y-92712704D01*
X147958657Y-92719204D01*
X147949126Y-92725747D01*
X147942815Y-92730000D01*
X147933959Y-92735914D01*
X147923569Y-92742857D01*
X147912990Y-92749933D01*
X147904216Y-92755806D01*
X147896007Y-92761280D01*
X147888049Y-92766544D01*
X147881165Y-92771057D01*
X147876179Y-92774276D01*
X147875540Y-92774680D01*
X147871826Y-92777324D01*
X147867126Y-92781092D01*
X147862031Y-92785448D01*
X147857137Y-92789855D01*
X147853036Y-92793775D01*
X147850322Y-92796673D01*
X147849588Y-92798011D01*
X147849710Y-92798045D01*
X147851584Y-92798302D01*
X147856378Y-92799024D01*
X147863590Y-92800132D01*
X147872722Y-92801549D01*
X147883271Y-92803199D01*
X147888453Y-92804014D01*
X147933664Y-92810981D01*
X147975894Y-92817167D01*
X148015523Y-92822610D01*
X148052931Y-92827348D01*
X148088501Y-92831421D01*
X148122614Y-92834867D01*
X148155649Y-92837725D01*
X148187989Y-92840033D01*
X148220014Y-92841829D01*
X148252105Y-92843154D01*
X148282901Y-92844007D01*
X148300304Y-92844454D01*
X148315158Y-92845020D01*
X148328371Y-92845769D01*
X148340857Y-92846763D01*
X148353526Y-92848067D01*
X148367288Y-92849742D01*
X148369437Y-92850021D01*
X148460659Y-92861275D01*
X148549614Y-92870892D01*
X148637057Y-92878920D01*
X148723743Y-92885411D01*
X148810427Y-92890411D01*
X148897864Y-92893972D01*
X148986810Y-92896141D01*
X149078021Y-92896969D01*
X149089415Y-92896980D01*
X149147949Y-92896760D01*
X149203815Y-92896060D01*
X149257776Y-92894849D01*
X149310596Y-92893097D01*
X149363039Y-92890775D01*
X149415868Y-92887851D01*
X149469848Y-92884296D01*
X149525741Y-92880079D01*
X149535075Y-92879328D01*
X149574942Y-92875899D01*
X149616723Y-92871945D01*
X149659734Y-92867544D01*
X149703289Y-92862777D01*
X149746705Y-92857722D01*
X149789295Y-92852458D01*
X149830376Y-92847066D01*
X149869262Y-92841625D01*
X149900007Y-92837031D01*
X149909516Y-92835576D01*
X149917802Y-92834334D01*
X149924272Y-92833391D01*
X149928334Y-92832835D01*
X149929429Y-92832722D01*
X149928165Y-92833196D01*
X149924018Y-92834493D01*
X149917429Y-92836481D01*
X149908842Y-92839025D01*
X149898700Y-92841995D01*
X149891603Y-92844056D01*
X149861850Y-92852959D01*
X149830565Y-92862855D01*
X149798939Y-92873348D01*
X149768168Y-92884039D01*
X149739444Y-92894532D01*
X149735838Y-92895892D01*
X149723460Y-92900650D01*
X149710332Y-92905814D01*
X149696861Y-92911215D01*
X149683453Y-92916680D01*
X149670517Y-92922039D01*
X149658460Y-92927120D01*
X149647689Y-92931751D01*
X149638611Y-92935763D01*
X149631634Y-92938982D01*
X149627166Y-92941239D01*
X149625703Y-92942199D01*
X149624533Y-92944482D01*
X149622543Y-92949472D01*
X149619953Y-92956572D01*
X149616981Y-92965188D01*
X149614733Y-92971982D01*
X149597957Y-93019580D01*
X149578393Y-93068013D01*
X149556370Y-93116649D01*
X149532216Y-93164852D01*
X149506261Y-93211989D01*
X149478832Y-93257425D01*
X149450259Y-93300526D01*
X149429817Y-93328881D01*
X149392044Y-93376824D01*
X149351009Y-93424009D01*
X149306850Y-93470330D01*
X149259705Y-93515679D01*
X149209712Y-93559951D01*
X149157008Y-93603037D01*
X149101732Y-93644831D01*
X149044022Y-93685226D01*
X148984016Y-93724116D01*
X148921851Y-93761393D01*
X148857665Y-93796950D01*
X148791596Y-93830682D01*
X148767204Y-93842439D01*
X148699500Y-93873452D01*
X148632314Y-93901933D01*
X148564707Y-93928246D01*
X148495740Y-93952755D01*
X148424477Y-93975823D01*
X148419628Y-93977317D01*
X148405782Y-93981569D01*
X148417897Y-93981695D01*
X148432501Y-93981444D01*
X148449618Y-93980481D01*
X148468394Y-93978900D01*
X148487977Y-93976792D01*
X148507512Y-93974253D01*
X148526147Y-93971373D01*
X148543029Y-93968248D01*
X148545105Y-93967817D01*
X148552266Y-93966220D01*
X148560724Y-93964198D01*
X148569891Y-93961908D01*
X148579179Y-93959505D01*
X148588000Y-93957148D01*
X148595766Y-93954993D01*
X148601888Y-93953196D01*
X148605780Y-93951916D01*
X148606882Y-93951328D01*
X148605076Y-93951435D01*
X148600523Y-93952121D01*
X148593869Y-93953278D01*
X148585760Y-93954798D01*
X148583937Y-93955152D01*
X148572180Y-93957370D01*
X148558976Y-93959719D01*
X148544754Y-93962137D01*
X148529946Y-93964558D01*
X148514984Y-93966920D01*
X148500298Y-93969157D01*
X148486320Y-93971205D01*
X148473481Y-93973001D01*
X148462213Y-93974480D01*
X148452945Y-93975578D01*
X148446110Y-93976231D01*
X148442140Y-93976375D01*
X148441617Y-93976319D01*
X148442305Y-93975726D01*
X148445878Y-93974396D01*
X148451874Y-93972477D01*
X148459832Y-93970116D01*
X148469290Y-93967460D01*
X148469602Y-93967375D01*
X148529551Y-93949837D01*
X148610872Y-93949837D01*
X148611737Y-93950702D01*
X148612603Y-93949837D01*
X148611737Y-93948972D01*
X148610872Y-93949837D01*
X148529551Y-93949837D01*
X148546882Y-93944767D01*
X148622555Y-93919671D01*
X148696475Y-93892155D01*
X148768496Y-93862292D01*
X148838472Y-93830151D01*
X148906259Y-93795803D01*
X148971709Y-93759318D01*
X149034678Y-93720767D01*
X149095019Y-93680220D01*
X149152587Y-93637748D01*
X149154570Y-93636211D01*
X149209928Y-93591215D01*
X149262335Y-93544429D01*
X149311785Y-93495861D01*
X149358273Y-93445521D01*
X149401793Y-93393415D01*
X149442338Y-93339554D01*
X149479903Y-93283944D01*
X149514481Y-93226594D01*
X149546067Y-93167512D01*
X149574654Y-93106708D01*
X149600237Y-93044188D01*
X149618254Y-92993784D01*
X149631953Y-92952944D01*
X149660098Y-92940327D01*
X149735516Y-92908313D01*
X149812564Y-92879120D01*
X149890833Y-92852881D01*
X149969914Y-92829724D01*
X150049399Y-92809781D01*
X150112269Y-92796370D01*
X150126605Y-92793553D01*
X150138208Y-92791282D01*
X150147738Y-92789440D01*
X150155860Y-92787909D01*
X150163237Y-92786571D01*
X150170530Y-92785308D01*
X150178403Y-92784002D01*
X150187518Y-92782535D01*
X150198538Y-92780790D01*
X150210015Y-92778980D01*
X150222253Y-92777027D01*
X150233610Y-92775169D01*
X150243559Y-92773495D01*
X150251574Y-92772096D01*
X150257126Y-92771062D01*
X150259470Y-92770549D01*
X150264989Y-92769825D01*
X150270963Y-92770108D01*
X150271185Y-92770144D01*
X150277539Y-92771219D01*
X150251694Y-92790024D01*
X150181131Y-92843398D01*
X150111806Y-92899917D01*
X150043870Y-92959438D01*
X149977475Y-93021821D01*
X149912771Y-93086924D01*
X149849912Y-93154603D01*
X149796383Y-93216013D01*
X149782278Y-93232558D01*
X149768927Y-93247933D01*
X149755898Y-93262602D01*
X149742760Y-93277029D01*
X149729082Y-93291678D01*
X149714432Y-93307012D01*
X149698379Y-93323496D01*
X149680492Y-93341594D01*
X149668423Y-93353697D01*
X149609009Y-93411388D01*
X149549205Y-93465955D01*
X149488603Y-93517735D01*
X149426794Y-93567065D01*
X149363367Y-93614283D01*
X149297915Y-93659725D01*
X149293640Y-93662586D01*
X149228299Y-93704614D01*
X149163034Y-93743341D01*
X149097530Y-93778906D01*
X149031476Y-93811447D01*
X148964555Y-93841104D01*
X148896455Y-93868015D01*
X148826862Y-93892319D01*
X148755463Y-93914154D01*
X148681942Y-93933659D01*
X148678370Y-93934535D01*
X148664208Y-93938093D01*
X148649291Y-93942008D01*
X148634515Y-93946034D01*
X148620775Y-93949925D01*
X148608966Y-93953434D01*
X148603084Y-93955284D01*
X148516769Y-93981477D01*
X148429112Y-94004546D01*
X148340313Y-94024467D01*
X148250570Y-94041216D01*
X148160085Y-94054768D01*
X148069055Y-94065100D01*
X147977681Y-94072186D01*
X147886163Y-94076002D01*
X147794699Y-94076525D01*
X147703490Y-94073729D01*
X147655516Y-94070906D01*
X147593905Y-94065894D01*
X147531025Y-94059279D01*
X147468565Y-94051252D01*
X147427480Y-94045131D01*
X147389684Y-94039167D01*
X147368592Y-94043291D01*
X147324059Y-94053719D01*
X147280228Y-94067398D01*
X147237525Y-94084172D01*
X147196375Y-94103885D01*
X147182204Y-94111570D01*
X147171717Y-94117617D01*
X147160441Y-94124423D01*
X147149030Y-94131565D01*
X147138135Y-94138623D01*
X147128409Y-94145175D01*
X147120505Y-94150800D01*
X147115787Y-94154468D01*
X147109984Y-94159315D01*
X147115338Y-94167938D01*
X147122874Y-94183217D01*
X147127445Y-94200087D01*
X147128850Y-94211854D01*
X147129547Y-94218871D01*
X147130797Y-94226021D01*
X147132794Y-94234097D01*
X147135732Y-94243894D01*
X147139205Y-94254443D01*
X147159258Y-94319126D01*
X147175893Y-94384292D01*
X147189109Y-94449867D01*
X147198904Y-94515777D01*
X147205277Y-94581947D01*
X147208225Y-94648303D01*
X147207747Y-94714771D01*
X147203842Y-94781276D01*
X147196508Y-94847744D01*
X147185743Y-94914100D01*
X147171546Y-94980269D01*
X147156162Y-95038458D01*
X147142345Y-95083756D01*
X147127424Y-95127325D01*
X147115948Y-95157877D01*
X147113406Y-95164309D01*
X147110969Y-95170158D01*
X147108430Y-95175790D01*
X147105586Y-95181573D01*
X147102230Y-95187870D01*
X147098158Y-95195048D01*
X147093166Y-95203472D01*
X147087047Y-95213508D01*
X147079597Y-95225522D01*
X147070611Y-95239880D01*
X147064660Y-95249352D01*
X147038923Y-95290334D01*
X147014984Y-95328551D01*
X146992759Y-95364141D01*
X146972164Y-95397244D01*
X146953116Y-95427998D01*
X146935529Y-95456542D01*
X146919320Y-95483016D01*
X146904404Y-95507558D01*
X146890697Y-95530307D01*
X146878115Y-95551403D01*
X146866574Y-95570984D01*
X146855990Y-95589190D01*
X146846278Y-95606158D01*
X146837353Y-95622029D01*
X146829133Y-95636942D01*
X146823207Y-95647902D01*
X146795813Y-95702108D01*
X146771775Y-95756327D01*
X146750997Y-95810874D01*
X146733388Y-95866063D01*
X146718854Y-95922206D01*
X146707301Y-95979618D01*
X146698637Y-96038613D01*
X146694223Y-96081215D01*
X146692541Y-96104294D01*
X146691303Y-96129087D01*
X146690527Y-96154610D01*
X146690231Y-96179879D01*
X146690435Y-96203910D01*
X146691157Y-96225719D01*
X146691383Y-96230056D01*
X146692440Y-96249176D01*
X146693278Y-96265278D01*
X146693904Y-96278801D01*
X146694323Y-96290182D01*
X146694538Y-96299858D01*
X146694556Y-96308267D01*
X146694382Y-96315846D01*
X146694020Y-96323032D01*
X146693475Y-96330264D01*
X146692753Y-96337977D01*
X146692635Y-96339150D01*
X146687853Y-96370105D01*
X146679776Y-96401578D01*
X146668493Y-96433381D01*
X146654097Y-96465324D01*
X146636680Y-96497221D01*
X146616334Y-96528881D01*
X146593150Y-96560118D01*
X146573250Y-96583960D01*
X146527112Y-96634477D01*
X146479635Y-96682329D01*
X146430989Y-96727363D01*
X146381345Y-96769428D01*
X146330874Y-96808373D01*
X146279748Y-96844047D01*
X146277866Y-96845289D01*
X146266328Y-96852882D01*
X146253719Y-96861169D01*
X146241039Y-96869494D01*
X146229292Y-96877198D01*
X146219887Y-96883356D01*
X146210255Y-96889817D01*
X146198479Y-96897982D01*
X146184912Y-96907585D01*
X146169911Y-96918362D01*
X146153832Y-96930046D01*
X146137030Y-96942373D01*
X146119862Y-96955077D01*
X146102683Y-96967893D01*
X146085848Y-96980556D01*
X146069714Y-96992799D01*
X146054637Y-97004358D01*
X146040971Y-97014968D01*
X146029073Y-97024362D01*
X146019299Y-97032276D01*
X146012201Y-97038272D01*
X146004989Y-97044308D01*
X145997265Y-97050316D01*
X145989496Y-97055988D01*
X145982151Y-97061013D01*
X145975696Y-97065081D01*
X145970600Y-97067884D01*
X145967331Y-97069110D01*
X145966337Y-97068640D01*
X145967416Y-97066961D01*
X145970434Y-97063062D01*
X145975060Y-97057339D01*
X145980963Y-97050186D01*
X145987811Y-97041997D01*
X145995275Y-97033167D01*
X146003023Y-97024090D01*
X146010724Y-97015161D01*
X146018047Y-97006775D01*
X146021541Y-97002821D01*
X146033628Y-96989532D01*
X146047265Y-96975097D01*
X146062020Y-96959934D01*
X146077462Y-96944459D01*
X146093160Y-96929091D01*
X146108683Y-96914248D01*
X146123598Y-96900346D01*
X146137476Y-96887805D01*
X146149885Y-96877040D01*
X146159753Y-96868972D01*
X146163662Y-96865518D01*
X146165923Y-96862751D01*
X146166158Y-96861645D01*
X146166248Y-96861478D01*
X146167819Y-96861478D01*
X146167965Y-96861441D01*
X146169832Y-96860279D01*
X146174006Y-96857361D01*
X146180029Y-96853016D01*
X146187445Y-96847576D01*
X146195798Y-96841368D01*
X146196522Y-96840827D01*
X146204051Y-96835296D01*
X146213951Y-96828182D01*
X146225726Y-96819833D01*
X146238875Y-96810600D01*
X146252901Y-96800833D01*
X146267305Y-96790881D01*
X146281588Y-96781095D01*
X146283923Y-96779503D01*
X146306459Y-96764121D01*
X146326396Y-96750431D01*
X146344030Y-96738223D01*
X146359653Y-96727289D01*
X146373561Y-96717419D01*
X146386048Y-96708404D01*
X146397409Y-96700036D01*
X146407938Y-96692105D01*
X146417929Y-96684402D01*
X146418424Y-96684016D01*
X146459682Y-96650244D01*
X146497870Y-96615671D01*
X146533357Y-96579902D01*
X146566511Y-96542544D01*
X146597699Y-96503202D01*
X146627290Y-96461481D01*
X146630430Y-96456780D01*
X146635991Y-96448245D01*
X146642096Y-96438601D01*
X146648506Y-96428253D01*
X146654984Y-96417603D01*
X146661294Y-96407056D01*
X146667198Y-96397014D01*
X146672460Y-96387882D01*
X146676841Y-96380062D01*
X146680104Y-96373959D01*
X146682013Y-96369975D01*
X146682331Y-96368514D01*
X146682318Y-96368514D01*
X146681153Y-96369879D01*
X146678619Y-96373538D01*
X146675161Y-96378836D01*
X146673204Y-96381927D01*
X146644252Y-96426209D01*
X146614584Y-96467714D01*
X146583663Y-96507118D01*
X146550951Y-96545101D01*
X146515910Y-96582342D01*
X146508127Y-96590210D01*
X146492231Y-96605992D01*
X146477395Y-96620352D01*
X146463234Y-96633602D01*
X146449366Y-96646052D01*
X146435404Y-96658012D01*
X146420965Y-96669792D01*
X146405665Y-96681703D01*
X146389119Y-96694054D01*
X146370943Y-96707157D01*
X146350753Y-96721322D01*
X146328164Y-96736859D01*
X146317672Y-96744001D01*
X146305501Y-96752314D01*
X146293206Y-96760797D01*
X146281372Y-96769041D01*
X146270586Y-96776634D01*
X146261435Y-96783165D01*
X146254506Y-96788223D01*
X146253891Y-96788682D01*
X146245608Y-96794999D01*
X146236456Y-96802177D01*
X146226756Y-96809945D01*
X146216829Y-96818029D01*
X146206998Y-96826159D01*
X146197582Y-96834062D01*
X146188904Y-96841466D01*
X146181284Y-96848099D01*
X146175045Y-96853689D01*
X146170506Y-96857963D01*
X146167991Y-96860650D01*
X146167819Y-96861478D01*
X146166248Y-96861478D01*
X146167035Y-96860016D01*
X146170008Y-96856259D01*
G37*
D12*
X138430000Y-93130000D02*
X138430000Y-96130000D01*
X142980000Y-96130000D02*
X142980000Y-93630000D01*
X142480000Y-93130000D02*
X138430000Y-93130000D01*
X142980000Y-93630000D02*
X142480000Y-93130000D01*
X138430000Y-96130000D02*
X142980000Y-96130000D01*
D13*
X143829303Y-91730000D02*
G75*
G03*
X143829303Y-91730000I-149303J0D01*
G01*
D14*
X131290000Y-97910000D02*
X129290000Y-97910000D01*
X131290000Y-95110000D02*
X131290000Y-97910000D01*
X129290000Y-95110000D02*
X131290000Y-95110000D01*
X129290000Y-97910000D02*
X129290000Y-95110000D01*
X133850000Y-97910000D02*
X131850000Y-97910000D01*
X133850000Y-95110000D02*
X133850000Y-97910000D01*
X131850000Y-95110000D02*
X133850000Y-95110000D01*
X131850000Y-97910000D02*
X131850000Y-95110000D01*
X130260000Y-99970000D02*
X130260000Y-102630000D01*
X148100000Y-99970000D02*
X130260000Y-99970000D01*
X148100000Y-102630000D02*
X130260000Y-102630000D01*
X148100000Y-99970000D02*
X148100000Y-102630000D01*
X149370000Y-99970000D02*
X150700000Y-99970000D01*
X150700000Y-99970000D02*
X150700000Y-101300000D01*
X135880000Y-94683767D02*
X135880000Y-94391233D01*
X136900000Y-94683767D02*
X136900000Y-94391233D01*
%LPC*%
D15*
X142980000Y-91730000D03*
X142330000Y-91730000D03*
X141680000Y-91730000D03*
X141030000Y-91730000D03*
X140380000Y-91730000D03*
X139730000Y-91730000D03*
X139080000Y-91730000D03*
X138430000Y-91730000D03*
X138430000Y-97530000D03*
X139080000Y-97530000D03*
X139730000Y-97530000D03*
X140380000Y-97530000D03*
X141030000Y-97530000D03*
X141680000Y-97530000D03*
X142330000Y-97530000D03*
X142980000Y-97530000D03*
D16*
X130290000Y-95785000D03*
D17*
X130290000Y-97235000D03*
D16*
X132850000Y-95785000D03*
D17*
X132850000Y-97235000D03*
D18*
X149370000Y-101300000D03*
D19*
X146830000Y-101300000D03*
X144290000Y-101300000D03*
X141750000Y-101300000D03*
X139210000Y-101300000D03*
X136670000Y-101300000D03*
X134130000Y-101300000D03*
X131590000Y-101300000D03*
D20*
X136390000Y-95400000D03*
X136390000Y-93675000D03*
M02*
