G04 #@! TF.GenerationSoftware,KiCad,Pcbnew,(6.0.0)*
G04 #@! TF.CreationDate,2023-12-03T01:04:50-08:00*
G04 #@! TF.ProjectId,8BitSerialDACBoard,38426974-5365-4726-9961-6c444143426f,rev?*
G04 #@! TF.SameCoordinates,Original*
G04 #@! TF.FileFunction,Soldermask,Bot*
G04 #@! TF.FilePolarity,Negative*
%FSLAX46Y46*%
G04 Gerber Fmt 4.6, Leading zero omitted, Abs format (unit mm)*
G04 Created by KiCad (PCBNEW (6.0.0)) date 2023-12-03 01:04:50*
%MOMM*%
%LPD*%
G01*
G04 APERTURE LIST*
G04 Aperture macros list*
%AMRoundRect*
0 Rectangle with rounded corners*
0 $1 Rounding radius*
0 $2 $3 $4 $5 $6 $7 $8 $9 X,Y pos of 4 corners*
0 Add a 4 corners polygon primitive as box body*
4,1,4,$2,$3,$4,$5,$6,$7,$8,$9,$2,$3,0*
0 Add four circle primitives for the rounded corners*
1,1,$1+$1,$2,$3*
1,1,$1+$1,$4,$5*
1,1,$1+$1,$6,$7*
1,1,$1+$1,$8,$9*
0 Add four rect primitives between the rounded corners*
20,1,$1+$1,$2,$3,$4,$5,0*
20,1,$1+$1,$4,$5,$6,$7,0*
20,1,$1+$1,$6,$7,$8,$9,0*
20,1,$1+$1,$8,$9,$2,$3,0*%
G04 Aperture macros list end*
%ADD10RoundRect,0.237500X-0.237500X0.250000X-0.237500X-0.250000X0.237500X-0.250000X0.237500X0.250000X0*%
%ADD11RoundRect,0.237500X0.237500X-0.250000X0.237500X0.250000X-0.237500X0.250000X-0.237500X-0.250000X0*%
%ADD12R,1.700000X1.700000*%
%ADD13O,1.700000X1.700000*%
G04 APERTURE END LIST*
D10*
X151480000Y-91575000D03*
X151480000Y-93400000D03*
D11*
X149450000Y-96785000D03*
X149450000Y-94960000D03*
D10*
X149450000Y-91575000D03*
X149450000Y-93400000D03*
D11*
X147490000Y-96785000D03*
X147490000Y-94960000D03*
D10*
X147490000Y-91575000D03*
X147490000Y-93400000D03*
X145500000Y-94960000D03*
X145500000Y-96785000D03*
X145500000Y-91570000D03*
X145500000Y-93395000D03*
X143490000Y-94965000D03*
X143490000Y-96790000D03*
D11*
X143480000Y-93400000D03*
X143480000Y-91575000D03*
D10*
X141490000Y-94965000D03*
X141490000Y-96790000D03*
X141490000Y-91575000D03*
X141490000Y-93400000D03*
X139520000Y-94960000D03*
X139520000Y-96785000D03*
X139520000Y-91567500D03*
X139520000Y-93392500D03*
D11*
X137550000Y-96790000D03*
X137550000Y-94965000D03*
D10*
X137550000Y-91575000D03*
X137550000Y-93400000D03*
X135620000Y-94965000D03*
X135620000Y-96790000D03*
X135630000Y-91565000D03*
X135630000Y-93390000D03*
D11*
X133680000Y-96765000D03*
X133680000Y-94940000D03*
D10*
X133690000Y-91545000D03*
X133690000Y-93370000D03*
X131730000Y-96775000D03*
X131730000Y-94950000D03*
D11*
X131740000Y-93380000D03*
X131740000Y-91555000D03*
D10*
X129790000Y-94935000D03*
X129790000Y-96760000D03*
X129790000Y-93380000D03*
X129790000Y-91555000D03*
D12*
X149370000Y-101300000D03*
D13*
X146830000Y-101300000D03*
X144290000Y-101300000D03*
X141750000Y-101300000D03*
X139210000Y-101300000D03*
X136670000Y-101300000D03*
X134130000Y-101300000D03*
X131590000Y-101300000D03*
M02*
