%FSLAX45Y45*%
G04 Gerber Fmt 4.5, Leading zero omitted, Abs format (unit mm)*
G04 Created by KiCad (PCBNEW (6.0.0)) date 2023-12-03 01:07:49*
%MOMM*%
%LPD*%
G01*
G04 APERTURE LIST*
%TA.AperFunction,Profile*%
%ADD10C,0.100000*%
%TD*%
%ADD11C,0.200000*%
G04 APERTURE END LIST*
D10*
X15178000Y-10354000D02*
G75*
G03*
X15372000Y-10151000I-2932J197002D01*
G01*
X12672000Y-10160000D02*
G75*
G03*
X12871421Y-10355000I194498J-563D01*
G01*
X12872421Y-8754000D02*
G75*
G03*
X12672000Y-8952421I-1576J-198840D01*
G01*
X15372000Y-8954000D02*
G75*
G03*
X15172000Y-8754000I-200000J0D01*
G01*
X12672000Y-10160000D02*
X12672000Y-8952421D01*
X15178000Y-10354000D02*
X12871421Y-10355000D01*
X15372000Y-8954000D02*
X15372000Y-10151000D01*
X12872421Y-8754000D02*
X15172000Y-8754000D01*
D11*
X12924618Y-10670538D02*
X12924618Y-10470538D01*
X12972237Y-10470538D01*
X13000809Y-10480062D01*
X13019856Y-10499110D01*
X13029380Y-10518158D01*
X13038904Y-10556253D01*
X13038904Y-10584824D01*
X13029380Y-10622919D01*
X13019856Y-10641967D01*
X13000809Y-10661015D01*
X12972237Y-10670538D01*
X12924618Y-10670538D01*
X13124618Y-10670538D02*
X13124618Y-10537205D01*
X13124618Y-10575300D02*
X13134142Y-10556253D01*
X13143666Y-10546729D01*
X13162713Y-10537205D01*
X13181761Y-10537205D01*
X13248428Y-10670538D02*
X13248428Y-10537205D01*
X13248428Y-10470538D02*
X13238904Y-10480062D01*
X13248428Y-10489586D01*
X13257951Y-10480062D01*
X13248428Y-10470538D01*
X13248428Y-10489586D01*
X13372237Y-10670538D02*
X13353190Y-10661015D01*
X13343666Y-10641967D01*
X13343666Y-10470538D01*
X13476999Y-10670538D02*
X13457951Y-10661015D01*
X13448428Y-10641967D01*
X13448428Y-10470538D01*
X13705571Y-10670538D02*
X13705571Y-10470538D01*
X13772237Y-10613396D01*
X13838904Y-10470538D01*
X13838904Y-10670538D01*
X14019856Y-10670538D02*
X14019856Y-10565777D01*
X14010332Y-10546729D01*
X13991285Y-10537205D01*
X13953190Y-10537205D01*
X13934142Y-10546729D01*
X14019856Y-10661015D02*
X14000809Y-10670538D01*
X13953190Y-10670538D01*
X13934142Y-10661015D01*
X13924618Y-10641967D01*
X13924618Y-10622919D01*
X13934142Y-10603872D01*
X13953190Y-10594348D01*
X14000809Y-10594348D01*
X14019856Y-10584824D01*
X14115094Y-10537205D02*
X14115094Y-10737205D01*
X14115094Y-10546729D02*
X14134142Y-10537205D01*
X14172237Y-10537205D01*
X14191285Y-10546729D01*
X14200809Y-10556253D01*
X14210332Y-10575300D01*
X14210332Y-10632443D01*
X14200809Y-10651491D01*
X14191285Y-10661015D01*
X14172237Y-10670538D01*
X14134142Y-10670538D01*
X14115094Y-10661015D01*
X14296047Y-10651491D02*
X14305571Y-10661015D01*
X14296047Y-10670538D01*
X14286523Y-10661015D01*
X14296047Y-10651491D01*
X14296047Y-10670538D01*
X14296047Y-10546729D02*
X14305571Y-10556253D01*
X14296047Y-10565777D01*
X14286523Y-10556253D01*
X14296047Y-10546729D01*
X14296047Y-10565777D01*
M02*
