%FSLAX45Y45*%
G04 Gerber Fmt 4.5, Leading zero omitted, Abs format (unit mm)*
G04 Created by KiCad (PCBNEW (6.0.0)) date 2023-12-03 01:07:49*
%MOMM*%
%LPD*%
G01*
G04 APERTURE LIST*
%TA.AperFunction,Profile*%
%ADD10C,0.100000*%
%TD*%
%ADD11C,0.200000*%
%ADD12C,0.040000*%
%ADD13C,0.100000*%
G04 APERTURE END LIST*
D10*
X15178000Y-10354000D02*
G75*
G03*
X15372000Y-10151000I-2932J197002D01*
G01*
X12672000Y-10160000D02*
G75*
G03*
X12871421Y-10355000I194498J-563D01*
G01*
X12872421Y-8754000D02*
G75*
G03*
X12672000Y-8952421I-1576J-198840D01*
G01*
X15372000Y-8954000D02*
G75*
G03*
X15172000Y-8754000I-200000J0D01*
G01*
X12672000Y-10160000D02*
X12672000Y-8952421D01*
X15178000Y-10354000D02*
X12871421Y-10355000D01*
X15372000Y-8954000D02*
X15372000Y-10151000D01*
X12872421Y-8754000D02*
X15172000Y-8754000D01*
D11*
D12*
X12792000Y-9596000D02*
X12832000Y-9636000D01*
X12832000Y-9596000D02*
X12792000Y-9636000D01*
X12796000Y-9409000D02*
X12836000Y-9449000D01*
X12836000Y-9409000D02*
X12796000Y-9449000D01*
X12801000Y-10176000D02*
X12841000Y-10216000D01*
X12841000Y-10176000D02*
X12801000Y-10216000D01*
X12805000Y-8887000D02*
X12845000Y-8927000D01*
X12845000Y-8887000D02*
X12805000Y-8927000D01*
X13009000Y-9845000D02*
X13049000Y-9885000D01*
X13049000Y-9845000D02*
X13009000Y-9885000D01*
X13059000Y-9016000D02*
X13099000Y-9056000D01*
X13099000Y-9016000D02*
X13059000Y-9056000D01*
X13325000Y-8825000D02*
X13365000Y-8865000D01*
X13365000Y-8825000D02*
X13325000Y-8865000D01*
X13451000Y-9011000D02*
X13491000Y-9051000D01*
X13491000Y-9011000D02*
X13451000Y-9051000D01*
X13640000Y-9003000D02*
X13680000Y-9043000D01*
X13680000Y-9003000D02*
X13640000Y-9043000D01*
X13822000Y-9015000D02*
X13862000Y-9055000D01*
X13862000Y-9015000D02*
X13822000Y-9055000D01*
X13910332Y-9965350D02*
X13950332Y-10005350D01*
X13950332Y-9965350D02*
X13910332Y-10005350D01*
X14103348Y-9862612D02*
X14143348Y-9902612D01*
X14143348Y-9862612D02*
X14103348Y-9902612D01*
X14318000Y-9014000D02*
X14358000Y-9054000D01*
X14358000Y-9014000D02*
X14318000Y-9054000D01*
X14434890Y-9102831D02*
X14474890Y-9142831D01*
X14474890Y-9102831D02*
X14434890Y-9142831D01*
X14599000Y-9828000D02*
X14639000Y-9868000D01*
X14639000Y-9828000D02*
X14599000Y-9868000D01*
X14620000Y-8831000D02*
X14660000Y-8871000D01*
X14660000Y-8831000D02*
X14620000Y-8871000D01*
X14825000Y-9769000D02*
X14865000Y-9809000D01*
X14865000Y-9769000D02*
X14825000Y-9809000D01*
X15025000Y-9022000D02*
X15065000Y-9062000D01*
X15065000Y-9022000D02*
X15025000Y-9062000D01*
X15127000Y-9450000D02*
X15167000Y-9490000D01*
X15167000Y-9450000D02*
X15127000Y-9490000D01*
X15238000Y-10197000D02*
X15278000Y-10237000D01*
X15278000Y-10197000D02*
X15238000Y-10237000D01*
X15241000Y-8884000D02*
X15281000Y-8924000D01*
X15281000Y-8884000D02*
X15241000Y-8924000D01*
X15258000Y-9434000D02*
X15298000Y-9474000D01*
X15298000Y-9434000D02*
X15258000Y-9474000D01*
X15260000Y-9637000D02*
X15300000Y-9677000D01*
X15300000Y-9637000D02*
X15260000Y-9677000D01*
D13*
X13209000Y-10130000D02*
G75*
G03*
X13209000Y-10130000I-50000J0D01*
G01*
X13463000Y-10130000D02*
G75*
G03*
X13463000Y-10130000I-50000J0D01*
G01*
X13717000Y-10130000D02*
G75*
G03*
X13717000Y-10130000I-50000J0D01*
G01*
X13971000Y-10130000D02*
G75*
G03*
X13971000Y-10130000I-50000J0D01*
G01*
X14225000Y-10130000D02*
G75*
G03*
X14225000Y-10130000I-50000J0D01*
G01*
X14479000Y-10130000D02*
G75*
G03*
X14479000Y-10130000I-50000J0D01*
G01*
X14733000Y-10130000D02*
G75*
G03*
X14733000Y-10130000I-50000J0D01*
G01*
X14987000Y-10130000D02*
G75*
G03*
X14987000Y-10130000I-50000J0D01*
G01*
D11*
X12924618Y-10670538D02*
X12924618Y-10470538D01*
X12972237Y-10470538D01*
X13000809Y-10480062D01*
X13019856Y-10499110D01*
X13029380Y-10518158D01*
X13038904Y-10556253D01*
X13038904Y-10584824D01*
X13029380Y-10622919D01*
X13019856Y-10641967D01*
X13000809Y-10661015D01*
X12972237Y-10670538D01*
X12924618Y-10670538D01*
X13124618Y-10670538D02*
X13124618Y-10537205D01*
X13124618Y-10575300D02*
X13134142Y-10556253D01*
X13143666Y-10546729D01*
X13162713Y-10537205D01*
X13181761Y-10537205D01*
X13248428Y-10670538D02*
X13248428Y-10537205D01*
X13248428Y-10470538D02*
X13238904Y-10480062D01*
X13248428Y-10489586D01*
X13257951Y-10480062D01*
X13248428Y-10470538D01*
X13248428Y-10489586D01*
X13372237Y-10670538D02*
X13353190Y-10661015D01*
X13343666Y-10641967D01*
X13343666Y-10470538D01*
X13476999Y-10670538D02*
X13457951Y-10661015D01*
X13448428Y-10641967D01*
X13448428Y-10470538D01*
X13705571Y-10670538D02*
X13705571Y-10470538D01*
X13772237Y-10613396D01*
X13838904Y-10470538D01*
X13838904Y-10670538D01*
X14019856Y-10670538D02*
X14019856Y-10565777D01*
X14010332Y-10546729D01*
X13991285Y-10537205D01*
X13953190Y-10537205D01*
X13934142Y-10546729D01*
X14019856Y-10661015D02*
X14000809Y-10670538D01*
X13953190Y-10670538D01*
X13934142Y-10661015D01*
X13924618Y-10641967D01*
X13924618Y-10622919D01*
X13934142Y-10603872D01*
X13953190Y-10594348D01*
X14000809Y-10594348D01*
X14019856Y-10584824D01*
X14115094Y-10537205D02*
X14115094Y-10737205D01*
X14115094Y-10546729D02*
X14134142Y-10537205D01*
X14172237Y-10537205D01*
X14191285Y-10546729D01*
X14200809Y-10556253D01*
X14210332Y-10575300D01*
X14210332Y-10632443D01*
X14200809Y-10651491D01*
X14191285Y-10661015D01*
X14172237Y-10670538D01*
X14134142Y-10670538D01*
X14115094Y-10661015D01*
X14296047Y-10651491D02*
X14305571Y-10661015D01*
X14296047Y-10670538D01*
X14286523Y-10661015D01*
X14296047Y-10651491D01*
X14296047Y-10670538D01*
X14296047Y-10546729D02*
X14305571Y-10556253D01*
X14296047Y-10565777D01*
X14286523Y-10556253D01*
X14296047Y-10546729D01*
X14296047Y-10565777D01*
D12*
X12626999Y-10980062D02*
X12666999Y-11020062D01*
X12666999Y-10980062D02*
X12626999Y-11020062D01*
D11*
X12962713Y-10890538D02*
X12981761Y-10890538D01*
X13000809Y-10900062D01*
X13010332Y-10909586D01*
X13019856Y-10928634D01*
X13029380Y-10966729D01*
X13029380Y-11014348D01*
X13019856Y-11052443D01*
X13010332Y-11071491D01*
X13000809Y-11081015D01*
X12981761Y-11090538D01*
X12962713Y-11090538D01*
X12943666Y-11081015D01*
X12934142Y-11071491D01*
X12924618Y-11052443D01*
X12915094Y-11014348D01*
X12915094Y-10966729D01*
X12924618Y-10928634D01*
X12934142Y-10909586D01*
X12943666Y-10900062D01*
X12962713Y-10890538D01*
X13115094Y-11071491D02*
X13124618Y-11081015D01*
X13115094Y-11090538D01*
X13105571Y-11081015D01*
X13115094Y-11071491D01*
X13115094Y-11090538D01*
X13296047Y-10957205D02*
X13296047Y-11090538D01*
X13248428Y-10881015D02*
X13200809Y-11023872D01*
X13324618Y-11023872D01*
X13438904Y-10890538D02*
X13457951Y-10890538D01*
X13476999Y-10900062D01*
X13486523Y-10909586D01*
X13496047Y-10928634D01*
X13505571Y-10966729D01*
X13505571Y-11014348D01*
X13496047Y-11052443D01*
X13486523Y-11071491D01*
X13476999Y-11081015D01*
X13457951Y-11090538D01*
X13438904Y-11090538D01*
X13419856Y-11081015D01*
X13410332Y-11071491D01*
X13400809Y-11052443D01*
X13391285Y-11014348D01*
X13391285Y-10966729D01*
X13400809Y-10928634D01*
X13410332Y-10909586D01*
X13419856Y-10900062D01*
X13438904Y-10890538D01*
X13629380Y-10890538D02*
X13648428Y-10890538D01*
X13667475Y-10900062D01*
X13676999Y-10909586D01*
X13686523Y-10928634D01*
X13696047Y-10966729D01*
X13696047Y-11014348D01*
X13686523Y-11052443D01*
X13676999Y-11071491D01*
X13667475Y-11081015D01*
X13648428Y-11090538D01*
X13629380Y-11090538D01*
X13610332Y-11081015D01*
X13600809Y-11071491D01*
X13591285Y-11052443D01*
X13581761Y-11014348D01*
X13581761Y-10966729D01*
X13591285Y-10928634D01*
X13600809Y-10909586D01*
X13610332Y-10900062D01*
X13629380Y-10890538D01*
X13781761Y-11090538D02*
X13781761Y-10957205D01*
X13781761Y-10976253D02*
X13791285Y-10966729D01*
X13810332Y-10957205D01*
X13838904Y-10957205D01*
X13857951Y-10966729D01*
X13867475Y-10985777D01*
X13867475Y-11090538D01*
X13867475Y-10985777D02*
X13876999Y-10966729D01*
X13896047Y-10957205D01*
X13924618Y-10957205D01*
X13943666Y-10966729D01*
X13953190Y-10985777D01*
X13953190Y-11090538D01*
X14048428Y-11090538D02*
X14048428Y-10957205D01*
X14048428Y-10976253D02*
X14057951Y-10966729D01*
X14076999Y-10957205D01*
X14105571Y-10957205D01*
X14124618Y-10966729D01*
X14134142Y-10985777D01*
X14134142Y-11090538D01*
X14134142Y-10985777D02*
X14143666Y-10966729D01*
X14162713Y-10957205D01*
X14191285Y-10957205D01*
X14210332Y-10966729D01*
X14219856Y-10985777D01*
X14219856Y-11090538D01*
X14610332Y-10881015D02*
X14438904Y-11138158D01*
X14867475Y-10890538D02*
X14886523Y-10890538D01*
X14905571Y-10900062D01*
X14915094Y-10909586D01*
X14924618Y-10928634D01*
X14934142Y-10966729D01*
X14934142Y-11014348D01*
X14924618Y-11052443D01*
X14915094Y-11071491D01*
X14905571Y-11081015D01*
X14886523Y-11090538D01*
X14867475Y-11090538D01*
X14848428Y-11081015D01*
X14838904Y-11071491D01*
X14829380Y-11052443D01*
X14819856Y-11014348D01*
X14819856Y-10966729D01*
X14829380Y-10928634D01*
X14838904Y-10909586D01*
X14848428Y-10900062D01*
X14867475Y-10890538D01*
X15019856Y-11071491D02*
X15029380Y-11081015D01*
X15019856Y-11090538D01*
X15010332Y-11081015D01*
X15019856Y-11071491D01*
X15019856Y-11090538D01*
X15153190Y-10890538D02*
X15172237Y-10890538D01*
X15191285Y-10900062D01*
X15200809Y-10909586D01*
X15210332Y-10928634D01*
X15219856Y-10966729D01*
X15219856Y-11014348D01*
X15210332Y-11052443D01*
X15200809Y-11071491D01*
X15191285Y-11081015D01*
X15172237Y-11090538D01*
X15153190Y-11090538D01*
X15134142Y-11081015D01*
X15124618Y-11071491D01*
X15115094Y-11052443D01*
X15105571Y-11014348D01*
X15105571Y-10966729D01*
X15115094Y-10928634D01*
X15124618Y-10909586D01*
X15134142Y-10900062D01*
X15153190Y-10890538D01*
X15410332Y-11090538D02*
X15296047Y-11090538D01*
X15353190Y-11090538D02*
X15353190Y-10890538D01*
X15334142Y-10919110D01*
X15315094Y-10938158D01*
X15296047Y-10947681D01*
X15591285Y-10890538D02*
X15496047Y-10890538D01*
X15486523Y-10985777D01*
X15496047Y-10976253D01*
X15515094Y-10966729D01*
X15562713Y-10966729D01*
X15581761Y-10976253D01*
X15591285Y-10985777D01*
X15600809Y-11004824D01*
X15600809Y-11052443D01*
X15591285Y-11071491D01*
X15581761Y-11081015D01*
X15562713Y-11090538D01*
X15515094Y-11090538D01*
X15496047Y-11081015D01*
X15486523Y-11071491D01*
X15667475Y-10890538D02*
X15800809Y-10890538D01*
X15715094Y-11090538D01*
X15867475Y-10890538D02*
X15867475Y-10928634D01*
X15943666Y-10890538D02*
X15943666Y-10928634D01*
X16238904Y-11166729D02*
X16229380Y-11157205D01*
X16210332Y-11128634D01*
X16200809Y-11109586D01*
X16191285Y-11081015D01*
X16181761Y-11033396D01*
X16181761Y-10995300D01*
X16191285Y-10947681D01*
X16200809Y-10919110D01*
X16210332Y-10900062D01*
X16229380Y-10871491D01*
X16238904Y-10861967D01*
X16305571Y-10909586D02*
X16315094Y-10900062D01*
X16334142Y-10890538D01*
X16381761Y-10890538D01*
X16400809Y-10900062D01*
X16410332Y-10909586D01*
X16419856Y-10928634D01*
X16419856Y-10947681D01*
X16410332Y-10976253D01*
X16296047Y-11090538D01*
X16419856Y-11090538D01*
X16486523Y-10890538D02*
X16610332Y-10890538D01*
X16543666Y-10966729D01*
X16572237Y-10966729D01*
X16591285Y-10976253D01*
X16600809Y-10985777D01*
X16610332Y-11004824D01*
X16610332Y-11052443D01*
X16600809Y-11071491D01*
X16591285Y-11081015D01*
X16572237Y-11090538D01*
X16515094Y-11090538D01*
X16496047Y-11081015D01*
X16486523Y-11071491D01*
X16848428Y-11090538D02*
X16848428Y-10890538D01*
X16934142Y-11090538D02*
X16934142Y-10985777D01*
X16924618Y-10966729D01*
X16905571Y-10957205D01*
X16876999Y-10957205D01*
X16857952Y-10966729D01*
X16848428Y-10976253D01*
X17057952Y-11090538D02*
X17038904Y-11081015D01*
X17029380Y-11071491D01*
X17019856Y-11052443D01*
X17019856Y-10995300D01*
X17029380Y-10976253D01*
X17038904Y-10966729D01*
X17057952Y-10957205D01*
X17086523Y-10957205D01*
X17105571Y-10966729D01*
X17115094Y-10976253D01*
X17124618Y-10995300D01*
X17124618Y-11052443D01*
X17115094Y-11071491D01*
X17105571Y-11081015D01*
X17086523Y-11090538D01*
X17057952Y-11090538D01*
X17238904Y-11090538D02*
X17219856Y-11081015D01*
X17210333Y-11061967D01*
X17210333Y-10890538D01*
X17391285Y-11081015D02*
X17372237Y-11090538D01*
X17334142Y-11090538D01*
X17315094Y-11081015D01*
X17305571Y-11061967D01*
X17305571Y-10985777D01*
X17315094Y-10966729D01*
X17334142Y-10957205D01*
X17372237Y-10957205D01*
X17391285Y-10966729D01*
X17400809Y-10985777D01*
X17400809Y-11004824D01*
X17305571Y-11023872D01*
X17476999Y-11081015D02*
X17496047Y-11090538D01*
X17534142Y-11090538D01*
X17553190Y-11081015D01*
X17562713Y-11061967D01*
X17562713Y-11052443D01*
X17553190Y-11033396D01*
X17534142Y-11023872D01*
X17505571Y-11023872D01*
X17486523Y-11014348D01*
X17476999Y-10995300D01*
X17476999Y-10985777D01*
X17486523Y-10966729D01*
X17505571Y-10957205D01*
X17534142Y-10957205D01*
X17553190Y-10966729D01*
X17629380Y-11166729D02*
X17638904Y-11157205D01*
X17657952Y-11128634D01*
X17667475Y-11109586D01*
X17676999Y-11081015D01*
X17686523Y-11033396D01*
X17686523Y-10995300D01*
X17676999Y-10947681D01*
X17667475Y-10919110D01*
X17657952Y-10900062D01*
X17638904Y-10871491D01*
X17629380Y-10861967D01*
D13*
X12666999Y-11264062D02*
G75*
G03*
X12666999Y-11264062I-50000J0D01*
G01*
D11*
X13029380Y-11354538D02*
X12915094Y-11354538D01*
X12972237Y-11354538D02*
X12972237Y-11154538D01*
X12953190Y-11183110D01*
X12934142Y-11202157D01*
X12915094Y-11211681D01*
X13115094Y-11335491D02*
X13124618Y-11345015D01*
X13115094Y-11354538D01*
X13105571Y-11345015D01*
X13115094Y-11335491D01*
X13115094Y-11354538D01*
X13248428Y-11154538D02*
X13267475Y-11154538D01*
X13286523Y-11164062D01*
X13296047Y-11173586D01*
X13305571Y-11192634D01*
X13315094Y-11230729D01*
X13315094Y-11278348D01*
X13305571Y-11316443D01*
X13296047Y-11335491D01*
X13286523Y-11345015D01*
X13267475Y-11354538D01*
X13248428Y-11354538D01*
X13229380Y-11345015D01*
X13219856Y-11335491D01*
X13210332Y-11316443D01*
X13200809Y-11278348D01*
X13200809Y-11230729D01*
X13210332Y-11192634D01*
X13219856Y-11173586D01*
X13229380Y-11164062D01*
X13248428Y-11154538D01*
X13438904Y-11154538D02*
X13457951Y-11154538D01*
X13476999Y-11164062D01*
X13486523Y-11173586D01*
X13496047Y-11192634D01*
X13505571Y-11230729D01*
X13505571Y-11278348D01*
X13496047Y-11316443D01*
X13486523Y-11335491D01*
X13476999Y-11345015D01*
X13457951Y-11354538D01*
X13438904Y-11354538D01*
X13419856Y-11345015D01*
X13410332Y-11335491D01*
X13400809Y-11316443D01*
X13391285Y-11278348D01*
X13391285Y-11230729D01*
X13400809Y-11192634D01*
X13410332Y-11173586D01*
X13419856Y-11164062D01*
X13438904Y-11154538D01*
X13629380Y-11154538D02*
X13648428Y-11154538D01*
X13667475Y-11164062D01*
X13676999Y-11173586D01*
X13686523Y-11192634D01*
X13696047Y-11230729D01*
X13696047Y-11278348D01*
X13686523Y-11316443D01*
X13676999Y-11335491D01*
X13667475Y-11345015D01*
X13648428Y-11354538D01*
X13629380Y-11354538D01*
X13610332Y-11345015D01*
X13600809Y-11335491D01*
X13591285Y-11316443D01*
X13581761Y-11278348D01*
X13581761Y-11230729D01*
X13591285Y-11192634D01*
X13600809Y-11173586D01*
X13610332Y-11164062D01*
X13629380Y-11154538D01*
X13781761Y-11354538D02*
X13781761Y-11221205D01*
X13781761Y-11240253D02*
X13791285Y-11230729D01*
X13810332Y-11221205D01*
X13838904Y-11221205D01*
X13857951Y-11230729D01*
X13867475Y-11249776D01*
X13867475Y-11354538D01*
X13867475Y-11249776D02*
X13876999Y-11230729D01*
X13896047Y-11221205D01*
X13924618Y-11221205D01*
X13943666Y-11230729D01*
X13953190Y-11249776D01*
X13953190Y-11354538D01*
X14048428Y-11354538D02*
X14048428Y-11221205D01*
X14048428Y-11240253D02*
X14057951Y-11230729D01*
X14076999Y-11221205D01*
X14105571Y-11221205D01*
X14124618Y-11230729D01*
X14134142Y-11249776D01*
X14134142Y-11354538D01*
X14134142Y-11249776D02*
X14143666Y-11230729D01*
X14162713Y-11221205D01*
X14191285Y-11221205D01*
X14210332Y-11230729D01*
X14219856Y-11249776D01*
X14219856Y-11354538D01*
X14610332Y-11145015D02*
X14438904Y-11402157D01*
X14867475Y-11154538D02*
X14886523Y-11154538D01*
X14905571Y-11164062D01*
X14915094Y-11173586D01*
X14924618Y-11192634D01*
X14934142Y-11230729D01*
X14934142Y-11278348D01*
X14924618Y-11316443D01*
X14915094Y-11335491D01*
X14905571Y-11345015D01*
X14886523Y-11354538D01*
X14867475Y-11354538D01*
X14848428Y-11345015D01*
X14838904Y-11335491D01*
X14829380Y-11316443D01*
X14819856Y-11278348D01*
X14819856Y-11230729D01*
X14829380Y-11192634D01*
X14838904Y-11173586D01*
X14848428Y-11164062D01*
X14867475Y-11154538D01*
X15019856Y-11335491D02*
X15029380Y-11345015D01*
X15019856Y-11354538D01*
X15010332Y-11345015D01*
X15019856Y-11335491D01*
X15019856Y-11354538D01*
X15153190Y-11154538D02*
X15172237Y-11154538D01*
X15191285Y-11164062D01*
X15200809Y-11173586D01*
X15210332Y-11192634D01*
X15219856Y-11230729D01*
X15219856Y-11278348D01*
X15210332Y-11316443D01*
X15200809Y-11335491D01*
X15191285Y-11345015D01*
X15172237Y-11354538D01*
X15153190Y-11354538D01*
X15134142Y-11345015D01*
X15124618Y-11335491D01*
X15115094Y-11316443D01*
X15105571Y-11278348D01*
X15105571Y-11230729D01*
X15115094Y-11192634D01*
X15124618Y-11173586D01*
X15134142Y-11164062D01*
X15153190Y-11154538D01*
X15286523Y-11154538D02*
X15410332Y-11154538D01*
X15343666Y-11230729D01*
X15372237Y-11230729D01*
X15391285Y-11240253D01*
X15400809Y-11249776D01*
X15410332Y-11268824D01*
X15410332Y-11316443D01*
X15400809Y-11335491D01*
X15391285Y-11345015D01*
X15372237Y-11354538D01*
X15315094Y-11354538D01*
X15296047Y-11345015D01*
X15286523Y-11335491D01*
X15505571Y-11354538D02*
X15543666Y-11354538D01*
X15562713Y-11345015D01*
X15572237Y-11335491D01*
X15591285Y-11306919D01*
X15600809Y-11268824D01*
X15600809Y-11192634D01*
X15591285Y-11173586D01*
X15581761Y-11164062D01*
X15562713Y-11154538D01*
X15524618Y-11154538D01*
X15505571Y-11164062D01*
X15496047Y-11173586D01*
X15486523Y-11192634D01*
X15486523Y-11240253D01*
X15496047Y-11259300D01*
X15505571Y-11268824D01*
X15524618Y-11278348D01*
X15562713Y-11278348D01*
X15581761Y-11268824D01*
X15591285Y-11259300D01*
X15600809Y-11240253D01*
X15772237Y-11221205D02*
X15772237Y-11354538D01*
X15724618Y-11145015D02*
X15676999Y-11287872D01*
X15800809Y-11287872D01*
X15867475Y-11154538D02*
X15867475Y-11192634D01*
X15943666Y-11154538D02*
X15943666Y-11192634D01*
X16238904Y-11430729D02*
X16229380Y-11421205D01*
X16210332Y-11392634D01*
X16200809Y-11373586D01*
X16191285Y-11345015D01*
X16181761Y-11297396D01*
X16181761Y-11259300D01*
X16191285Y-11211681D01*
X16200809Y-11183110D01*
X16210332Y-11164062D01*
X16229380Y-11135491D01*
X16238904Y-11125967D01*
X16343666Y-11240253D02*
X16324618Y-11230729D01*
X16315094Y-11221205D01*
X16305571Y-11202157D01*
X16305571Y-11192634D01*
X16315094Y-11173586D01*
X16324618Y-11164062D01*
X16343666Y-11154538D01*
X16381761Y-11154538D01*
X16400809Y-11164062D01*
X16410332Y-11173586D01*
X16419856Y-11192634D01*
X16419856Y-11202157D01*
X16410332Y-11221205D01*
X16400809Y-11230729D01*
X16381761Y-11240253D01*
X16343666Y-11240253D01*
X16324618Y-11249776D01*
X16315094Y-11259300D01*
X16305571Y-11278348D01*
X16305571Y-11316443D01*
X16315094Y-11335491D01*
X16324618Y-11345015D01*
X16343666Y-11354538D01*
X16381761Y-11354538D01*
X16400809Y-11345015D01*
X16410332Y-11335491D01*
X16419856Y-11316443D01*
X16419856Y-11278348D01*
X16410332Y-11259300D01*
X16400809Y-11249776D01*
X16381761Y-11240253D01*
X16657951Y-11354538D02*
X16657951Y-11154538D01*
X16743666Y-11354538D02*
X16743666Y-11249776D01*
X16734142Y-11230729D01*
X16715094Y-11221205D01*
X16686523Y-11221205D01*
X16667475Y-11230729D01*
X16657951Y-11240253D01*
X16867475Y-11354538D02*
X16848428Y-11345015D01*
X16838904Y-11335491D01*
X16829380Y-11316443D01*
X16829380Y-11259300D01*
X16838904Y-11240253D01*
X16848428Y-11230729D01*
X16867475Y-11221205D01*
X16896047Y-11221205D01*
X16915094Y-11230729D01*
X16924618Y-11240253D01*
X16934142Y-11259300D01*
X16934142Y-11316443D01*
X16924618Y-11335491D01*
X16915094Y-11345015D01*
X16896047Y-11354538D01*
X16867475Y-11354538D01*
X17048428Y-11354538D02*
X17029380Y-11345015D01*
X17019856Y-11325967D01*
X17019856Y-11154538D01*
X17200809Y-11345015D02*
X17181761Y-11354538D01*
X17143666Y-11354538D01*
X17124618Y-11345015D01*
X17115094Y-11325967D01*
X17115094Y-11249776D01*
X17124618Y-11230729D01*
X17143666Y-11221205D01*
X17181761Y-11221205D01*
X17200809Y-11230729D01*
X17210333Y-11249776D01*
X17210333Y-11268824D01*
X17115094Y-11287872D01*
X17286523Y-11345015D02*
X17305571Y-11354538D01*
X17343666Y-11354538D01*
X17362713Y-11345015D01*
X17372237Y-11325967D01*
X17372237Y-11316443D01*
X17362713Y-11297396D01*
X17343666Y-11287872D01*
X17315094Y-11287872D01*
X17296047Y-11278348D01*
X17286523Y-11259300D01*
X17286523Y-11249776D01*
X17296047Y-11230729D01*
X17315094Y-11221205D01*
X17343666Y-11221205D01*
X17362713Y-11230729D01*
X17438904Y-11430729D02*
X17448428Y-11421205D01*
X17467475Y-11392634D01*
X17476999Y-11373586D01*
X17486523Y-11345015D01*
X17496047Y-11297396D01*
X17496047Y-11259300D01*
X17486523Y-11211681D01*
X17476999Y-11183110D01*
X17467475Y-11164062D01*
X17448428Y-11135491D01*
X17438904Y-11125967D01*
M02*
