G04 #@! TF.GenerationSoftware,KiCad,Pcbnew,(6.0.0)*
G04 #@! TF.CreationDate,2023-12-03T01:04:49-08:00*
G04 #@! TF.ProjectId,8BitSerialDACBoard,38426974-5365-4726-9961-6c444143426f,rev?*
G04 #@! TF.SameCoordinates,Original*
G04 #@! TF.FileFunction,Copper,L1,Top*
G04 #@! TF.FilePolarity,Positive*
%FSLAX46Y46*%
G04 Gerber Fmt 4.6, Leading zero omitted, Abs format (unit mm)*
G04 Created by KiCad (PCBNEW (6.0.0)) date 2023-12-03 01:04:49*
%MOMM*%
%LPD*%
G01*
G04 APERTURE LIST*
G04 Aperture macros list*
%AMRoundRect*
0 Rectangle with rounded corners*
0 $1 Rounding radius*
0 $2 $3 $4 $5 $6 $7 $8 $9 X,Y pos of 4 corners*
0 Add a 4 corners polygon primitive as box body*
4,1,4,$2,$3,$4,$5,$6,$7,$8,$9,$2,$3,0*
0 Add four circle primitives for the rounded corners*
1,1,$1+$1,$2,$3*
1,1,$1+$1,$4,$5*
1,1,$1+$1,$6,$7*
1,1,$1+$1,$8,$9*
0 Add four rect primitives between the rounded corners*
20,1,$1+$1,$2,$3,$4,$5,0*
20,1,$1+$1,$4,$5,$6,$7,0*
20,1,$1+$1,$6,$7,$8,$9,0*
20,1,$1+$1,$8,$9,$2,$3,0*%
%AMFreePoly0*
4,1,6,0.500000,-0.750000,-0.650000,-0.750000,-0.150000,0.000000,-0.650000,0.750000,0.500000,0.750000,0.500000,-0.750000,0.500000,-0.750000,$1*%
%AMFreePoly1*
4,1,6,1.000000,0.000000,0.500000,-0.750000,-0.500000,-0.750000,-0.500000,0.750000,0.500000,0.750000,1.000000,0.000000,1.000000,0.000000,$1*%
G04 Aperture macros list end*
G04 #@! TA.AperFunction,SMDPad,CuDef*
%ADD10RoundRect,0.112500X-0.112500X0.637500X-0.112500X-0.637500X0.112500X-0.637500X0.112500X0.637500X0*%
G04 #@! TD*
G04 #@! TA.AperFunction,SMDPad,CuDef*
%ADD11FreePoly0,90.000000*%
G04 #@! TD*
G04 #@! TA.AperFunction,SMDPad,CuDef*
%ADD12FreePoly1,90.000000*%
G04 #@! TD*
G04 #@! TA.AperFunction,ComponentPad*
%ADD13R,1.700000X1.700000*%
G04 #@! TD*
G04 #@! TA.AperFunction,ComponentPad*
%ADD14O,1.700000X1.700000*%
G04 #@! TD*
G04 #@! TA.AperFunction,SMDPad,CuDef*
%ADD15RoundRect,0.237500X0.237500X-0.300000X0.237500X0.300000X-0.237500X0.300000X-0.237500X-0.300000X0*%
G04 #@! TD*
G04 #@! TA.AperFunction,ViaPad*
%ADD16C,0.800000*%
G04 #@! TD*
G04 #@! TA.AperFunction,Conductor*
%ADD17C,0.250000*%
G04 #@! TD*
G04 #@! TA.AperFunction,Conductor*
%ADD18C,0.500000*%
G04 #@! TD*
G04 APERTURE END LIST*
D10*
X142980000Y-91730000D03*
X142330000Y-91730000D03*
X141680000Y-91730000D03*
X141030000Y-91730000D03*
X140380000Y-91730000D03*
X139730000Y-91730000D03*
X139080000Y-91730000D03*
X138430000Y-91730000D03*
X138430000Y-97530000D03*
X139080000Y-97530000D03*
X139730000Y-97530000D03*
X140380000Y-97530000D03*
X141030000Y-97530000D03*
X141680000Y-97530000D03*
X142330000Y-97530000D03*
X142980000Y-97530000D03*
D11*
X130290000Y-95785000D03*
D12*
X130290000Y-97235000D03*
D11*
X132850000Y-95785000D03*
D12*
X132850000Y-97235000D03*
D13*
X149370000Y-101300000D03*
D14*
X146830000Y-101300000D03*
X144290000Y-101300000D03*
X141750000Y-101300000D03*
X139210000Y-101300000D03*
X136670000Y-101300000D03*
X134130000Y-101300000D03*
X131590000Y-101300000D03*
D15*
X136390000Y-95400000D03*
X136390000Y-93675000D03*
D16*
X133450000Y-88450000D03*
X146400000Y-88510000D03*
X152580000Y-102170000D03*
X152610000Y-89040000D03*
X152780000Y-94540000D03*
X152800000Y-96570000D03*
X128120000Y-96160000D03*
X128210000Y-101960000D03*
X128160000Y-94290000D03*
X128250000Y-89070000D03*
X146190000Y-98480000D03*
X130290000Y-98650000D03*
X141233482Y-98826120D03*
X139303322Y-99853504D03*
X143380000Y-90340000D03*
X144548897Y-91228306D03*
X148450000Y-97890000D03*
X151470000Y-94700000D03*
X150450000Y-90420000D03*
X138420000Y-90350000D03*
X130790000Y-90360000D03*
X134710000Y-90310000D03*
X136600000Y-90230000D03*
D17*
X144389040Y-93829040D02*
X148450000Y-97890000D01*
X141111001Y-93829040D02*
X144389040Y-93829040D01*
D18*
X145240000Y-97530000D02*
X146190000Y-98480000D01*
X142980000Y-97530000D02*
X145240000Y-97530000D01*
D17*
X132295000Y-95785000D02*
X132850000Y-95785000D01*
X131775480Y-96304520D02*
X132295000Y-95785000D01*
X131775480Y-98945480D02*
X131775480Y-96304520D01*
X134130000Y-101300000D02*
X131775480Y-98945480D01*
X130290000Y-98650000D02*
X130290000Y-97235000D01*
X141030000Y-98622638D02*
X141233482Y-98826120D01*
X141030000Y-97530000D02*
X141030000Y-98622638D01*
X139730000Y-99426826D02*
X139303322Y-99853504D01*
X139730000Y-97530000D02*
X139730000Y-99426826D01*
X139080000Y-98815386D02*
X139080000Y-97530000D01*
X136670000Y-101225386D02*
X139080000Y-98815386D01*
X136670000Y-101300000D02*
X136670000Y-101225386D01*
X132850000Y-97480000D02*
X136670000Y-101300000D01*
X132850000Y-97235000D02*
X132850000Y-97480000D01*
X130790000Y-91150000D02*
X130790000Y-90360000D01*
X135902020Y-96262020D02*
X130790000Y-91150000D01*
X141638638Y-96262020D02*
X135902020Y-96262020D01*
X142330000Y-97530000D02*
X142330000Y-96953382D01*
X142330000Y-96953382D02*
X141638638Y-96262020D01*
D18*
X141730533Y-95400000D02*
X136390000Y-95400000D01*
X142980000Y-96649467D02*
X141730533Y-95400000D01*
X142980000Y-97530000D02*
X142980000Y-96649467D01*
D17*
X141680000Y-98248039D02*
X141680000Y-97530000D01*
X142811961Y-99380000D02*
X141680000Y-98248039D01*
X144910000Y-99380000D02*
X142811961Y-99380000D01*
X146830000Y-101300000D02*
X144910000Y-99380000D01*
X141750000Y-101300000D02*
X140380000Y-99930000D01*
X140380000Y-99930000D02*
X140380000Y-97530000D01*
X151470000Y-99200000D02*
X151470000Y-94700000D01*
X149370000Y-101300000D02*
X151470000Y-99200000D01*
X149220000Y-98144614D02*
X149220000Y-91310000D01*
X148750103Y-98614511D02*
X149220000Y-98144614D01*
X148149897Y-98614511D02*
X148750103Y-98614511D01*
X143813946Y-94278560D02*
X148149897Y-98614511D01*
X149220000Y-91310000D02*
X150110000Y-90420000D01*
X150110000Y-90420000D02*
X150450000Y-90420000D01*
X140910521Y-94278560D02*
X143813946Y-94278560D01*
X139080000Y-92448039D02*
X140910521Y-94278560D01*
X139080000Y-91730000D02*
X139080000Y-92448039D01*
X139730000Y-92448039D02*
X141111001Y-93829040D01*
X139730000Y-91730000D02*
X139730000Y-92448039D01*
X144548897Y-92318897D02*
X144548897Y-91228306D01*
X143488274Y-93379520D02*
X144548897Y-92318897D01*
X140380000Y-92448039D02*
X141311481Y-93379520D01*
X140380000Y-91730000D02*
X140380000Y-92448039D01*
X141311481Y-93379520D02*
X143488274Y-93379520D01*
X141030000Y-92448039D02*
X141030000Y-91730000D01*
X141511961Y-92930000D02*
X141030000Y-92448039D01*
X143529520Y-90489520D02*
X143529520Y-92700480D01*
X143529520Y-92700480D02*
X143300000Y-92930000D01*
X143300000Y-92930000D02*
X141511961Y-92930000D01*
X143380000Y-90340000D02*
X143529520Y-90489520D01*
X141128039Y-89160000D02*
X135860000Y-89160000D01*
X135860000Y-89160000D02*
X134710000Y-90310000D01*
X142980000Y-91011961D02*
X141128039Y-89160000D01*
X142980000Y-91730000D02*
X142980000Y-91011961D01*
X137204511Y-89625489D02*
X136600000Y-90230000D01*
X140943528Y-89625489D02*
X137204511Y-89625489D01*
X142330000Y-91011961D02*
X140943528Y-89625489D01*
X142330000Y-91730000D02*
X142330000Y-91011961D01*
X141018039Y-90350000D02*
X138420000Y-90350000D01*
X141680000Y-91730000D02*
X141680000Y-91011961D01*
X141680000Y-91011961D02*
X141018039Y-90350000D01*
G04 #@! TA.AperFunction,Conductor*
G36*
X151690056Y-88049500D02*
G01*
X151691431Y-88049714D01*
X151704859Y-88051805D01*
X151704861Y-88051805D01*
X151713730Y-88053186D01*
X151722632Y-88052022D01*
X151722634Y-88052022D01*
X151728959Y-88051195D01*
X151754282Y-88050452D01*
X151900552Y-88060913D01*
X151923343Y-88062543D01*
X151941137Y-88065101D01*
X152131540Y-88106521D01*
X152148788Y-88111586D01*
X152331358Y-88179682D01*
X152347710Y-88187149D01*
X152413020Y-88222810D01*
X152518734Y-88280534D01*
X152533848Y-88290248D01*
X152623683Y-88357497D01*
X152689842Y-88407023D01*
X152703428Y-88418796D01*
X152841204Y-88556572D01*
X152852977Y-88570158D01*
X152969752Y-88726152D01*
X152979466Y-88741266D01*
X153037190Y-88846980D01*
X153072851Y-88912290D01*
X153080318Y-88928642D01*
X153148414Y-89111212D01*
X153153480Y-89128462D01*
X153194899Y-89318863D01*
X153197457Y-89336658D01*
X153208497Y-89491017D01*
X153209041Y-89498629D01*
X153208297Y-89516533D01*
X153208195Y-89524858D01*
X153206814Y-89533730D01*
X153207978Y-89542632D01*
X153207978Y-89542635D01*
X153210936Y-89565251D01*
X153212000Y-89581589D01*
X153212000Y-101470310D01*
X153211032Y-101485895D01*
X153206861Y-101519357D01*
X153208295Y-101528216D01*
X153208295Y-101528219D01*
X153209295Y-101534394D01*
X153210805Y-101559774D01*
X153203840Y-101726883D01*
X153201779Y-101744921D01*
X153166206Y-101934095D01*
X153161574Y-101951650D01*
X153099181Y-102133752D01*
X153092074Y-102150458D01*
X153004162Y-102321697D01*
X152994728Y-102337208D01*
X152899587Y-102470896D01*
X152883117Y-102494038D01*
X152871554Y-102508031D01*
X152818246Y-102563812D01*
X152738560Y-102647195D01*
X152725103Y-102659383D01*
X152573493Y-102777986D01*
X152558427Y-102788112D01*
X152501513Y-102820671D01*
X152391340Y-102883698D01*
X152374987Y-102891548D01*
X152195883Y-102962136D01*
X152178565Y-102967555D01*
X151991200Y-103011663D01*
X151973275Y-103014540D01*
X151904278Y-103020558D01*
X151813712Y-103028456D01*
X151796498Y-103028003D01*
X151796498Y-103028004D01*
X151787527Y-103028028D01*
X151778632Y-103026778D01*
X151751762Y-103030699D01*
X151733625Y-103032020D01*
X149519113Y-103032980D01*
X128755447Y-103041982D01*
X128739166Y-103040933D01*
X128721437Y-103038631D01*
X128707492Y-103036820D01*
X128698630Y-103038208D01*
X128698625Y-103038208D01*
X128692536Y-103039162D01*
X128667076Y-103040538D01*
X128502050Y-103032715D01*
X128483882Y-103030523D01*
X128297052Y-102994062D01*
X128279393Y-102989262D01*
X128202233Y-102962133D01*
X128099809Y-102926121D01*
X128083036Y-102918815D01*
X127914502Y-102830332D01*
X127898959Y-102820671D01*
X127745006Y-102708698D01*
X127731038Y-102696897D01*
X127594932Y-102563809D01*
X127582815Y-102550102D01*
X127467422Y-102398701D01*
X127457416Y-102383380D01*
X127365175Y-102216869D01*
X127357493Y-102200259D01*
X127290345Y-102022143D01*
X127285150Y-102004597D01*
X127264390Y-101909603D01*
X127244508Y-101818623D01*
X127241911Y-101800513D01*
X127230885Y-101642785D01*
X127231639Y-101625600D01*
X127231623Y-101625600D01*
X127231759Y-101616625D01*
X127233166Y-101607756D01*
X127229017Y-101575297D01*
X127228550Y-101567966D01*
X130258257Y-101567966D01*
X130288565Y-101702446D01*
X130291645Y-101712275D01*
X130371770Y-101909603D01*
X130376413Y-101918794D01*
X130487694Y-102100388D01*
X130493777Y-102108699D01*
X130633213Y-102269667D01*
X130640580Y-102276883D01*
X130804434Y-102412916D01*
X130812881Y-102418831D01*
X130996756Y-102526279D01*
X131006042Y-102530729D01*
X131205001Y-102606703D01*
X131214899Y-102609579D01*
X131318250Y-102630606D01*
X131332299Y-102629410D01*
X131336000Y-102619065D01*
X131336000Y-101572115D01*
X131331525Y-101556876D01*
X131330135Y-101555671D01*
X131322452Y-101554000D01*
X130273225Y-101554000D01*
X130259694Y-101557973D01*
X130258257Y-101567966D01*
X127228550Y-101567966D01*
X127228000Y-101559321D01*
X127228000Y-101034183D01*
X130254389Y-101034183D01*
X130255912Y-101042607D01*
X130268292Y-101046000D01*
X131317885Y-101046000D01*
X131333124Y-101041525D01*
X131334329Y-101040135D01*
X131336000Y-101032452D01*
X131336000Y-99983102D01*
X131332082Y-99969758D01*
X131317806Y-99967771D01*
X131279324Y-99973660D01*
X131269288Y-99976051D01*
X131066868Y-100042212D01*
X131057359Y-100046209D01*
X130868463Y-100144542D01*
X130859738Y-100150036D01*
X130689433Y-100277905D01*
X130681726Y-100284748D01*
X130534590Y-100438717D01*
X130528104Y-100446727D01*
X130408098Y-100622649D01*
X130403000Y-100631623D01*
X130313338Y-100824783D01*
X130309775Y-100834470D01*
X130254389Y-101034183D01*
X127228000Y-101034183D01*
X127228000Y-97735000D01*
X129026271Y-97735000D01*
X129031500Y-97808111D01*
X129072696Y-97948411D01*
X129077567Y-97955990D01*
X129146878Y-98063841D01*
X129146880Y-98063844D01*
X129151750Y-98071421D01*
X129158560Y-98077322D01*
X129255445Y-98161274D01*
X129255448Y-98161276D01*
X129262257Y-98167176D01*
X129270454Y-98170920D01*
X129270455Y-98170920D01*
X129359773Y-98211710D01*
X129413429Y-98258203D01*
X129433431Y-98326324D01*
X129427264Y-98365260D01*
X129414147Y-98405632D01*
X129396458Y-98460072D01*
X129395768Y-98466633D01*
X129395768Y-98466635D01*
X129389559Y-98525712D01*
X129376496Y-98650000D01*
X129377186Y-98656565D01*
X129393362Y-98810467D01*
X129396458Y-98839928D01*
X129455473Y-99021556D01*
X129458776Y-99027278D01*
X129458777Y-99027279D01*
X129482385Y-99068169D01*
X129550960Y-99186944D01*
X129555378Y-99191851D01*
X129555379Y-99191852D01*
X129629168Y-99273803D01*
X129678747Y-99328866D01*
X129759645Y-99387642D01*
X129814337Y-99427378D01*
X129833248Y-99441118D01*
X129839276Y-99443802D01*
X129839278Y-99443803D01*
X129985420Y-99508869D01*
X130007712Y-99518794D01*
X130101112Y-99538647D01*
X130188056Y-99557128D01*
X130188061Y-99557128D01*
X130194513Y-99558500D01*
X130385487Y-99558500D01*
X130391939Y-99557128D01*
X130391944Y-99557128D01*
X130478888Y-99538647D01*
X130572288Y-99518794D01*
X130594580Y-99508869D01*
X130740722Y-99443803D01*
X130740724Y-99443802D01*
X130746752Y-99441118D01*
X130765664Y-99427378D01*
X130820355Y-99387642D01*
X130901253Y-99328866D01*
X130950832Y-99273803D01*
X131004678Y-99214001D01*
X131065124Y-99176761D01*
X131136108Y-99178113D01*
X131195092Y-99217627D01*
X131208031Y-99239420D01*
X131209193Y-99238781D01*
X131213007Y-99245720D01*
X131215928Y-99253097D01*
X131220590Y-99259513D01*
X131220590Y-99259514D01*
X131241916Y-99288867D01*
X131248432Y-99298787D01*
X131266221Y-99328866D01*
X131270938Y-99336842D01*
X131285259Y-99351163D01*
X131298099Y-99366196D01*
X131310008Y-99382587D01*
X131316112Y-99387637D01*
X131316117Y-99387642D01*
X131344078Y-99410773D01*
X131352859Y-99418763D01*
X131807975Y-99873880D01*
X131842000Y-99936192D01*
X131840697Y-99965795D01*
X131844000Y-99965795D01*
X131844000Y-102618517D01*
X131848064Y-102632359D01*
X131861478Y-102634393D01*
X131868184Y-102633534D01*
X131878262Y-102631392D01*
X132082255Y-102570191D01*
X132091842Y-102566433D01*
X132283095Y-102472739D01*
X132291945Y-102467464D01*
X132465328Y-102343792D01*
X132473200Y-102337139D01*
X132624052Y-102186812D01*
X132630730Y-102178965D01*
X132758022Y-102001819D01*
X132759279Y-102002722D01*
X132806373Y-101959362D01*
X132876311Y-101947145D01*
X132941751Y-101974678D01*
X132969579Y-102006511D01*
X132979158Y-102022143D01*
X133029987Y-102105088D01*
X133176250Y-102273938D01*
X133348126Y-102416632D01*
X133541000Y-102529338D01*
X133749692Y-102609030D01*
X133754760Y-102610061D01*
X133754763Y-102610062D01*
X133849862Y-102629410D01*
X133968597Y-102653567D01*
X133973772Y-102653757D01*
X133973774Y-102653757D01*
X134186673Y-102661564D01*
X134186677Y-102661564D01*
X134191837Y-102661753D01*
X134196957Y-102661097D01*
X134196959Y-102661097D01*
X134408288Y-102634025D01*
X134408289Y-102634025D01*
X134413416Y-102633368D01*
X134418366Y-102631883D01*
X134622429Y-102570661D01*
X134622434Y-102570659D01*
X134627384Y-102569174D01*
X134827994Y-102470896D01*
X135009860Y-102341173D01*
X135168096Y-102183489D01*
X135188509Y-102155082D01*
X135298453Y-102002077D01*
X135299776Y-102003028D01*
X135346645Y-101959857D01*
X135416580Y-101947625D01*
X135482026Y-101975144D01*
X135509875Y-102006994D01*
X135519158Y-102022143D01*
X135569987Y-102105088D01*
X135716250Y-102273938D01*
X135888126Y-102416632D01*
X136081000Y-102529338D01*
X136289692Y-102609030D01*
X136294760Y-102610061D01*
X136294763Y-102610062D01*
X136389862Y-102629410D01*
X136508597Y-102653567D01*
X136513772Y-102653757D01*
X136513774Y-102653757D01*
X136726673Y-102661564D01*
X136726677Y-102661564D01*
X136731837Y-102661753D01*
X136736957Y-102661097D01*
X136736959Y-102661097D01*
X136948288Y-102634025D01*
X136948289Y-102634025D01*
X136953416Y-102633368D01*
X136958366Y-102631883D01*
X137162429Y-102570661D01*
X137162434Y-102570659D01*
X137167384Y-102569174D01*
X137367994Y-102470896D01*
X137549860Y-102341173D01*
X137708096Y-102183489D01*
X137728509Y-102155082D01*
X137838453Y-102002077D01*
X137839776Y-102003028D01*
X137886645Y-101959857D01*
X137956580Y-101947625D01*
X138022026Y-101975144D01*
X138049875Y-102006994D01*
X138059158Y-102022143D01*
X138109987Y-102105088D01*
X138256250Y-102273938D01*
X138428126Y-102416632D01*
X138621000Y-102529338D01*
X138829692Y-102609030D01*
X138834760Y-102610061D01*
X138834763Y-102610062D01*
X138929862Y-102629410D01*
X139048597Y-102653567D01*
X139053772Y-102653757D01*
X139053774Y-102653757D01*
X139266673Y-102661564D01*
X139266677Y-102661564D01*
X139271837Y-102661753D01*
X139276957Y-102661097D01*
X139276959Y-102661097D01*
X139488288Y-102634025D01*
X139488289Y-102634025D01*
X139493416Y-102633368D01*
X139498366Y-102631883D01*
X139702429Y-102570661D01*
X139702434Y-102570659D01*
X139707384Y-102569174D01*
X139907994Y-102470896D01*
X140089860Y-102341173D01*
X140248096Y-102183489D01*
X140268509Y-102155082D01*
X140378453Y-102002077D01*
X140379776Y-102003028D01*
X140426645Y-101959857D01*
X140496580Y-101947625D01*
X140562026Y-101975144D01*
X140589875Y-102006994D01*
X140599158Y-102022143D01*
X140649987Y-102105088D01*
X140796250Y-102273938D01*
X140968126Y-102416632D01*
X141161000Y-102529338D01*
X141369692Y-102609030D01*
X141374760Y-102610061D01*
X141374763Y-102610062D01*
X141469862Y-102629410D01*
X141588597Y-102653567D01*
X141593772Y-102653757D01*
X141593774Y-102653757D01*
X141806673Y-102661564D01*
X141806677Y-102661564D01*
X141811837Y-102661753D01*
X141816957Y-102661097D01*
X141816959Y-102661097D01*
X142028288Y-102634025D01*
X142028289Y-102634025D01*
X142033416Y-102633368D01*
X142038366Y-102631883D01*
X142242429Y-102570661D01*
X142242434Y-102570659D01*
X142247384Y-102569174D01*
X142447994Y-102470896D01*
X142629860Y-102341173D01*
X142788096Y-102183489D01*
X142808509Y-102155082D01*
X142918453Y-102002077D01*
X142919776Y-102003028D01*
X142966645Y-101959857D01*
X143036580Y-101947625D01*
X143102026Y-101975144D01*
X143129875Y-102006994D01*
X143139158Y-102022143D01*
X143189987Y-102105088D01*
X143336250Y-102273938D01*
X143508126Y-102416632D01*
X143701000Y-102529338D01*
X143909692Y-102609030D01*
X143914760Y-102610061D01*
X143914763Y-102610062D01*
X144009862Y-102629410D01*
X144128597Y-102653567D01*
X144133772Y-102653757D01*
X144133774Y-102653757D01*
X144346673Y-102661564D01*
X144346677Y-102661564D01*
X144351837Y-102661753D01*
X144356957Y-102661097D01*
X144356959Y-102661097D01*
X144568288Y-102634025D01*
X144568289Y-102634025D01*
X144573416Y-102633368D01*
X144578366Y-102631883D01*
X144782429Y-102570661D01*
X144782434Y-102570659D01*
X144787384Y-102569174D01*
X144987994Y-102470896D01*
X145169860Y-102341173D01*
X145328096Y-102183489D01*
X145348509Y-102155082D01*
X145458453Y-102002077D01*
X145459776Y-102003028D01*
X145506645Y-101959857D01*
X145576580Y-101947625D01*
X145642026Y-101975144D01*
X145669875Y-102006994D01*
X145679158Y-102022143D01*
X145729987Y-102105088D01*
X145876250Y-102273938D01*
X146048126Y-102416632D01*
X146241000Y-102529338D01*
X146449692Y-102609030D01*
X146454760Y-102610061D01*
X146454763Y-102610062D01*
X146549862Y-102629410D01*
X146668597Y-102653567D01*
X146673772Y-102653757D01*
X146673774Y-102653757D01*
X146886673Y-102661564D01*
X146886677Y-102661564D01*
X146891837Y-102661753D01*
X146896957Y-102661097D01*
X146896959Y-102661097D01*
X147108288Y-102634025D01*
X147108289Y-102634025D01*
X147113416Y-102633368D01*
X147118366Y-102631883D01*
X147322429Y-102570661D01*
X147322434Y-102570659D01*
X147327384Y-102569174D01*
X147527994Y-102470896D01*
X147709860Y-102341173D01*
X147818091Y-102233319D01*
X147880462Y-102199404D01*
X147951268Y-102204592D01*
X148008030Y-102247238D01*
X148025012Y-102278341D01*
X148069385Y-102396705D01*
X148156739Y-102513261D01*
X148273295Y-102600615D01*
X148409684Y-102651745D01*
X148471866Y-102658500D01*
X150268134Y-102658500D01*
X150330316Y-102651745D01*
X150466705Y-102600615D01*
X150583261Y-102513261D01*
X150670615Y-102396705D01*
X150721745Y-102260316D01*
X150728500Y-102198134D01*
X150728500Y-100889594D01*
X150748502Y-100821473D01*
X150765405Y-100800499D01*
X151862247Y-99703657D01*
X151870537Y-99696113D01*
X151877018Y-99692000D01*
X151923659Y-99642332D01*
X151926413Y-99639491D01*
X151946134Y-99619770D01*
X151948612Y-99616575D01*
X151956318Y-99607553D01*
X151981158Y-99581101D01*
X151986586Y-99575321D01*
X151992732Y-99564142D01*
X151996346Y-99557568D01*
X152007199Y-99541045D01*
X152014753Y-99531306D01*
X152019613Y-99525041D01*
X152037176Y-99484457D01*
X152042383Y-99473827D01*
X152063695Y-99435060D01*
X152065666Y-99427383D01*
X152065668Y-99427378D01*
X152068732Y-99415442D01*
X152075138Y-99396730D01*
X152080034Y-99385417D01*
X152083181Y-99378145D01*
X152085074Y-99366197D01*
X152090097Y-99334481D01*
X152092504Y-99322860D01*
X152101528Y-99287711D01*
X152101528Y-99287710D01*
X152103500Y-99280030D01*
X152103500Y-99259769D01*
X152105051Y-99240058D01*
X152106979Y-99227885D01*
X152108219Y-99220057D01*
X152104059Y-99176046D01*
X152103500Y-99164189D01*
X152103500Y-95402524D01*
X152123502Y-95334403D01*
X152135858Y-95318221D01*
X152209040Y-95236944D01*
X152304527Y-95071556D01*
X152363542Y-94889928D01*
X152383504Y-94700000D01*
X152382380Y-94689304D01*
X152364232Y-94516635D01*
X152364232Y-94516633D01*
X152363542Y-94510072D01*
X152304527Y-94328444D01*
X152287203Y-94298437D01*
X152212341Y-94168774D01*
X152209040Y-94163056D01*
X152182639Y-94133734D01*
X152085675Y-94026045D01*
X152085674Y-94026044D01*
X152081253Y-94021134D01*
X151960601Y-93933475D01*
X151932094Y-93912763D01*
X151932093Y-93912762D01*
X151926752Y-93908882D01*
X151920724Y-93906198D01*
X151920722Y-93906197D01*
X151758319Y-93833891D01*
X151758318Y-93833891D01*
X151752288Y-93831206D01*
X151658888Y-93811353D01*
X151571944Y-93792872D01*
X151571939Y-93792872D01*
X151565487Y-93791500D01*
X151374513Y-93791500D01*
X151368061Y-93792872D01*
X151368056Y-93792872D01*
X151281112Y-93811353D01*
X151187712Y-93831206D01*
X151181682Y-93833891D01*
X151181681Y-93833891D01*
X151019278Y-93906197D01*
X151019276Y-93906198D01*
X151013248Y-93908882D01*
X151007907Y-93912762D01*
X151007906Y-93912763D01*
X150979399Y-93933475D01*
X150858747Y-94021134D01*
X150854326Y-94026044D01*
X150854325Y-94026045D01*
X150757362Y-94133734D01*
X150730960Y-94163056D01*
X150727659Y-94168774D01*
X150652798Y-94298437D01*
X150635473Y-94328444D01*
X150576458Y-94510072D01*
X150575768Y-94516633D01*
X150575768Y-94516635D01*
X150557620Y-94689304D01*
X150556496Y-94700000D01*
X150576458Y-94889928D01*
X150635473Y-95071556D01*
X150730960Y-95236944D01*
X150804137Y-95318215D01*
X150834853Y-95382221D01*
X150836500Y-95402524D01*
X150836500Y-98885405D01*
X150816498Y-98953526D01*
X150799595Y-98974500D01*
X149869500Y-99904595D01*
X149807188Y-99938621D01*
X149780405Y-99941500D01*
X148471866Y-99941500D01*
X148409684Y-99948255D01*
X148273295Y-99999385D01*
X148156739Y-100086739D01*
X148069385Y-100203295D01*
X148066233Y-100211703D01*
X148024919Y-100321907D01*
X147982277Y-100378671D01*
X147915716Y-100403371D01*
X147846367Y-100388163D01*
X147813743Y-100362476D01*
X147763151Y-100306875D01*
X147763142Y-100306866D01*
X147759670Y-100303051D01*
X147755619Y-100299852D01*
X147755615Y-100299848D01*
X147588414Y-100167800D01*
X147588410Y-100167798D01*
X147584359Y-100164598D01*
X147548028Y-100144542D01*
X147457240Y-100094425D01*
X147388789Y-100056638D01*
X147383920Y-100054914D01*
X147383916Y-100054912D01*
X147183087Y-99983795D01*
X147183083Y-99983794D01*
X147178212Y-99982069D01*
X147173119Y-99981162D01*
X147173116Y-99981161D01*
X146963373Y-99943800D01*
X146963367Y-99943799D01*
X146958284Y-99942894D01*
X146884452Y-99941992D01*
X146740081Y-99940228D01*
X146740079Y-99940228D01*
X146734911Y-99940165D01*
X146514091Y-99973955D01*
X146501532Y-99978060D01*
X146430568Y-99980210D01*
X146373294Y-99947389D01*
X146029500Y-99603595D01*
X145995474Y-99541283D01*
X146000539Y-99470468D01*
X146043086Y-99413632D01*
X146109606Y-99388821D01*
X146118595Y-99388500D01*
X146285487Y-99388500D01*
X146291939Y-99387128D01*
X146291944Y-99387128D01*
X146378888Y-99368647D01*
X146472288Y-99348794D01*
X146478319Y-99346109D01*
X146640722Y-99273803D01*
X146640724Y-99273802D01*
X146646752Y-99271118D01*
X146662373Y-99259769D01*
X146706257Y-99227885D01*
X146801253Y-99158866D01*
X146817469Y-99140856D01*
X146924621Y-99021852D01*
X146924622Y-99021851D01*
X146929040Y-99016944D01*
X147024527Y-98851556D01*
X147075396Y-98694998D01*
X147115468Y-98636394D01*
X147180865Y-98608757D01*
X147250822Y-98620864D01*
X147284323Y-98644841D01*
X147646240Y-99006758D01*
X147653784Y-99015048D01*
X147657897Y-99021529D01*
X147663674Y-99026954D01*
X147707564Y-99068169D01*
X147710406Y-99070924D01*
X147730128Y-99090646D01*
X147733270Y-99093083D01*
X147733330Y-99093130D01*
X147742342Y-99100828D01*
X147755775Y-99113442D01*
X147774576Y-99131097D01*
X147781519Y-99134914D01*
X147792328Y-99140856D01*
X147808850Y-99151709D01*
X147824856Y-99164125D01*
X147832134Y-99167275D01*
X147832135Y-99167275D01*
X147865434Y-99181685D01*
X147876084Y-99186902D01*
X147914837Y-99208206D01*
X147922512Y-99210177D01*
X147922513Y-99210177D01*
X147934459Y-99213244D01*
X147953164Y-99219648D01*
X147971752Y-99227692D01*
X147979575Y-99228931D01*
X147979585Y-99228934D01*
X148015421Y-99234610D01*
X148027041Y-99237016D01*
X148058856Y-99245184D01*
X148069867Y-99248011D01*
X148090121Y-99248011D01*
X148109831Y-99249562D01*
X148129840Y-99252731D01*
X148137732Y-99251985D01*
X148156477Y-99250213D01*
X148173859Y-99248570D01*
X148185716Y-99248011D01*
X148671336Y-99248011D01*
X148682519Y-99248538D01*
X148690012Y-99250213D01*
X148697938Y-99249964D01*
X148697939Y-99249964D01*
X148758089Y-99248073D01*
X148762048Y-99248011D01*
X148789959Y-99248011D01*
X148793894Y-99247514D01*
X148793959Y-99247506D01*
X148805796Y-99246573D01*
X148838054Y-99245559D01*
X148842073Y-99245433D01*
X148849992Y-99245184D01*
X148869446Y-99239532D01*
X148888803Y-99235524D01*
X148901033Y-99233979D01*
X148901034Y-99233979D01*
X148908900Y-99232985D01*
X148916271Y-99230066D01*
X148916273Y-99230066D01*
X148950015Y-99216707D01*
X148961245Y-99212862D01*
X148996086Y-99202740D01*
X148996087Y-99202740D01*
X149003696Y-99200529D01*
X149010515Y-99196496D01*
X149010520Y-99196494D01*
X149021131Y-99190218D01*
X149038879Y-99181523D01*
X149057720Y-99174063D01*
X149089587Y-99150911D01*
X149093490Y-99148075D01*
X149103410Y-99141559D01*
X149134638Y-99123091D01*
X149134641Y-99123089D01*
X149141465Y-99119053D01*
X149155786Y-99104732D01*
X149170820Y-99091891D01*
X149172534Y-99090646D01*
X149187210Y-99079983D01*
X149215401Y-99045906D01*
X149223391Y-99037127D01*
X149612247Y-98648271D01*
X149620537Y-98640727D01*
X149627018Y-98636614D01*
X149673659Y-98586946D01*
X149676413Y-98584105D01*
X149696135Y-98564383D01*
X149698619Y-98561181D01*
X149706317Y-98552169D01*
X149731161Y-98525712D01*
X149736586Y-98519935D01*
X149746347Y-98502180D01*
X149757198Y-98485661D01*
X149769614Y-98469655D01*
X149787174Y-98429077D01*
X149792391Y-98418427D01*
X149813695Y-98379674D01*
X149818733Y-98360051D01*
X149825137Y-98341348D01*
X149830033Y-98330034D01*
X149830033Y-98330033D01*
X149833181Y-98322759D01*
X149834420Y-98314936D01*
X149834423Y-98314926D01*
X149840099Y-98279090D01*
X149842505Y-98267470D01*
X149851528Y-98232325D01*
X149851528Y-98232324D01*
X149853500Y-98224644D01*
X149853500Y-98204390D01*
X149855051Y-98184679D01*
X149856980Y-98172500D01*
X149858220Y-98164671D01*
X149854059Y-98120652D01*
X149853500Y-98108795D01*
X149853500Y-91624595D01*
X149873502Y-91556474D01*
X149890405Y-91535500D01*
X150094100Y-91331805D01*
X150156412Y-91297779D01*
X150209392Y-91297654D01*
X150348047Y-91327127D01*
X150348060Y-91327128D01*
X150354513Y-91328500D01*
X150545487Y-91328500D01*
X150551939Y-91327128D01*
X150551944Y-91327128D01*
X150638888Y-91308647D01*
X150732288Y-91288794D01*
X150747292Y-91282114D01*
X150900722Y-91213803D01*
X150900724Y-91213802D01*
X150906752Y-91211118D01*
X150930601Y-91193791D01*
X150962157Y-91170864D01*
X151061253Y-91098866D01*
X151089046Y-91067999D01*
X151184621Y-90961852D01*
X151184622Y-90961851D01*
X151189040Y-90956944D01*
X151284527Y-90791556D01*
X151343542Y-90609928D01*
X151347908Y-90568394D01*
X151362814Y-90426565D01*
X151363504Y-90420000D01*
X151343542Y-90230072D01*
X151284527Y-90048444D01*
X151189040Y-89883056D01*
X151104671Y-89789354D01*
X151065675Y-89746045D01*
X151065674Y-89746044D01*
X151061253Y-89741134D01*
X150951143Y-89661134D01*
X150912094Y-89632763D01*
X150912093Y-89632762D01*
X150906752Y-89628882D01*
X150900724Y-89626198D01*
X150900722Y-89626197D01*
X150738319Y-89553891D01*
X150738318Y-89553891D01*
X150732288Y-89551206D01*
X150638888Y-89531353D01*
X150551944Y-89512872D01*
X150551939Y-89512872D01*
X150545487Y-89511500D01*
X150354513Y-89511500D01*
X150348061Y-89512872D01*
X150348056Y-89512872D01*
X150261113Y-89531353D01*
X150167712Y-89551206D01*
X150161682Y-89553891D01*
X150161681Y-89553891D01*
X149999278Y-89626197D01*
X149999276Y-89626198D01*
X149993248Y-89628882D01*
X149987907Y-89632762D01*
X149987906Y-89632763D01*
X149948857Y-89661134D01*
X149838747Y-89741134D01*
X149834326Y-89746044D01*
X149834325Y-89746045D01*
X149795330Y-89789354D01*
X149710960Y-89883056D01*
X149707659Y-89888774D01*
X149667602Y-89958155D01*
X149655564Y-89975474D01*
X149644701Y-89988604D01*
X149636715Y-89997380D01*
X148827747Y-90806348D01*
X148819461Y-90813888D01*
X148812982Y-90818000D01*
X148807557Y-90823777D01*
X148766357Y-90867651D01*
X148763602Y-90870493D01*
X148743865Y-90890230D01*
X148741385Y-90893427D01*
X148733682Y-90902447D01*
X148703414Y-90934679D01*
X148699595Y-90941625D01*
X148699593Y-90941628D01*
X148693652Y-90952434D01*
X148682801Y-90968953D01*
X148670386Y-90984959D01*
X148667241Y-90992228D01*
X148667238Y-90992232D01*
X148652826Y-91025537D01*
X148647609Y-91036187D01*
X148626305Y-91074940D01*
X148624334Y-91082615D01*
X148624334Y-91082616D01*
X148621267Y-91094562D01*
X148614863Y-91113266D01*
X148606819Y-91131855D01*
X148605580Y-91139678D01*
X148605577Y-91139688D01*
X148599901Y-91175524D01*
X148597495Y-91187144D01*
X148591340Y-91211118D01*
X148586500Y-91229970D01*
X148586500Y-91250224D01*
X148584949Y-91269934D01*
X148581780Y-91289943D01*
X148582526Y-91297835D01*
X148585941Y-91333961D01*
X148586500Y-91345819D01*
X148586500Y-96826406D01*
X148566498Y-96894527D01*
X148512842Y-96941020D01*
X148442568Y-96951124D01*
X148377988Y-96921630D01*
X148371405Y-96915501D01*
X144892692Y-93436787D01*
X144885152Y-93428501D01*
X144881040Y-93422022D01*
X144831388Y-93375396D01*
X144828547Y-93372642D01*
X144808810Y-93352905D01*
X144805613Y-93350425D01*
X144796591Y-93342720D01*
X144764361Y-93312454D01*
X144757415Y-93308635D01*
X144757412Y-93308633D01*
X144746606Y-93302692D01*
X144730087Y-93291841D01*
X144720344Y-93284284D01*
X144720345Y-93284284D01*
X144714081Y-93279426D01*
X144708279Y-93276915D01*
X144660313Y-93225542D01*
X144647608Y-93155692D01*
X144674684Y-93090061D01*
X144683810Y-93079888D01*
X144941144Y-92822554D01*
X144949434Y-92815010D01*
X144955915Y-92810897D01*
X144982934Y-92782125D01*
X145002555Y-92761230D01*
X145005310Y-92758388D01*
X145025031Y-92738667D01*
X145027509Y-92735472D01*
X145035215Y-92726450D01*
X145042148Y-92719067D01*
X145065483Y-92694218D01*
X145075243Y-92676465D01*
X145086096Y-92659942D01*
X145093650Y-92650203D01*
X145098510Y-92643938D01*
X145116073Y-92603354D01*
X145121280Y-92592724D01*
X145142592Y-92553957D01*
X145144563Y-92546280D01*
X145144565Y-92546275D01*
X145147629Y-92534339D01*
X145154035Y-92515627D01*
X145158931Y-92504314D01*
X145162078Y-92497042D01*
X145165149Y-92477656D01*
X145168994Y-92453378D01*
X145171401Y-92441757D01*
X145180425Y-92406608D01*
X145180425Y-92406607D01*
X145182397Y-92398927D01*
X145182397Y-92378666D01*
X145183948Y-92358955D01*
X145185876Y-92346782D01*
X145187116Y-92338954D01*
X145182956Y-92294943D01*
X145182397Y-92283086D01*
X145182397Y-91930830D01*
X145202399Y-91862709D01*
X145214755Y-91846527D01*
X145287937Y-91765250D01*
X145383424Y-91599862D01*
X145442439Y-91418234D01*
X145462401Y-91228306D01*
X145460877Y-91213803D01*
X145443129Y-91044941D01*
X145443129Y-91044939D01*
X145442439Y-91038378D01*
X145383424Y-90856750D01*
X145377763Y-90846944D01*
X145305946Y-90722554D01*
X145287937Y-90691362D01*
X145280919Y-90683567D01*
X145164572Y-90554351D01*
X145164571Y-90554350D01*
X145160150Y-90549440D01*
X145005649Y-90437188D01*
X144999621Y-90434504D01*
X144999619Y-90434503D01*
X144837216Y-90362197D01*
X144837215Y-90362197D01*
X144831185Y-90359512D01*
X144737785Y-90339659D01*
X144650841Y-90321178D01*
X144650836Y-90321178D01*
X144644384Y-90319806D01*
X144453410Y-90319806D01*
X144446957Y-90321178D01*
X144446953Y-90321178D01*
X144434837Y-90323754D01*
X144431802Y-90324399D01*
X144361011Y-90318997D01*
X144304379Y-90276180D01*
X144280295Y-90214323D01*
X144274232Y-90156634D01*
X144274231Y-90156631D01*
X144273542Y-90150072D01*
X144214527Y-89968444D01*
X144197207Y-89938444D01*
X144122341Y-89808774D01*
X144119040Y-89803056D01*
X144097177Y-89778774D01*
X143995675Y-89666045D01*
X143995674Y-89666044D01*
X143991253Y-89661134D01*
X143871616Y-89574212D01*
X143842094Y-89552763D01*
X143842093Y-89552762D01*
X143836752Y-89548882D01*
X143830724Y-89546198D01*
X143830722Y-89546197D01*
X143668319Y-89473891D01*
X143668318Y-89473891D01*
X143662288Y-89471206D01*
X143568888Y-89451353D01*
X143481944Y-89432872D01*
X143481939Y-89432872D01*
X143475487Y-89431500D01*
X143284513Y-89431500D01*
X143278061Y-89432872D01*
X143278056Y-89432872D01*
X143191113Y-89451353D01*
X143097712Y-89471206D01*
X143091682Y-89473891D01*
X143091681Y-89473891D01*
X142929278Y-89546197D01*
X142929276Y-89546198D01*
X142923248Y-89548882D01*
X142917907Y-89552762D01*
X142917906Y-89552763D01*
X142803279Y-89636045D01*
X142768747Y-89661134D01*
X142764326Y-89666044D01*
X142742140Y-89690683D01*
X142681693Y-89727922D01*
X142610710Y-89726569D01*
X142559410Y-89695466D01*
X141631691Y-88767747D01*
X141624151Y-88759461D01*
X141620039Y-88752982D01*
X141594073Y-88728598D01*
X141570388Y-88706357D01*
X141567546Y-88703602D01*
X141547809Y-88683865D01*
X141544612Y-88681385D01*
X141535590Y-88673680D01*
X141531436Y-88669779D01*
X141503360Y-88643414D01*
X141496414Y-88639595D01*
X141496411Y-88639593D01*
X141485605Y-88633652D01*
X141469086Y-88622801D01*
X141468622Y-88622441D01*
X141453080Y-88610386D01*
X141445811Y-88607241D01*
X141445807Y-88607238D01*
X141412502Y-88592826D01*
X141401852Y-88587609D01*
X141363099Y-88566305D01*
X141343476Y-88561267D01*
X141324773Y-88554863D01*
X141313459Y-88549967D01*
X141313458Y-88549967D01*
X141306184Y-88546819D01*
X141298361Y-88545580D01*
X141298351Y-88545577D01*
X141262515Y-88539901D01*
X141250895Y-88537495D01*
X141215750Y-88528472D01*
X141215749Y-88528472D01*
X141208069Y-88526500D01*
X141187815Y-88526500D01*
X141168104Y-88524949D01*
X141155925Y-88523020D01*
X141148096Y-88521780D01*
X141118825Y-88524547D01*
X141104078Y-88525941D01*
X141092220Y-88526500D01*
X135938768Y-88526500D01*
X135927585Y-88525973D01*
X135920092Y-88524298D01*
X135912166Y-88524547D01*
X135912165Y-88524547D01*
X135852002Y-88526438D01*
X135848044Y-88526500D01*
X135820144Y-88526500D01*
X135816154Y-88527004D01*
X135804320Y-88527936D01*
X135760111Y-88529326D01*
X135752495Y-88531539D01*
X135752493Y-88531539D01*
X135740652Y-88534979D01*
X135721293Y-88538988D01*
X135719983Y-88539154D01*
X135701203Y-88541526D01*
X135693837Y-88544442D01*
X135693831Y-88544444D01*
X135660098Y-88557800D01*
X135648868Y-88561645D01*
X135632828Y-88566305D01*
X135606407Y-88573981D01*
X135599584Y-88578016D01*
X135588966Y-88584295D01*
X135571213Y-88592992D01*
X135563568Y-88596019D01*
X135552383Y-88600448D01*
X135538705Y-88610386D01*
X135516612Y-88626437D01*
X135506695Y-88632951D01*
X135468638Y-88655458D01*
X135454317Y-88669779D01*
X135439284Y-88682619D01*
X135422893Y-88694528D01*
X135417843Y-88700632D01*
X135417838Y-88700637D01*
X135394707Y-88728598D01*
X135386717Y-88737379D01*
X134759499Y-89364596D01*
X134697187Y-89398621D01*
X134670404Y-89401500D01*
X134614513Y-89401500D01*
X134608061Y-89402872D01*
X134608056Y-89402872D01*
X134521112Y-89421353D01*
X134427712Y-89441206D01*
X134421682Y-89443891D01*
X134421681Y-89443891D01*
X134259278Y-89516197D01*
X134259276Y-89516198D01*
X134253248Y-89518882D01*
X134247907Y-89522762D01*
X134247906Y-89522763D01*
X134224182Y-89540000D01*
X134098747Y-89631134D01*
X134094326Y-89636044D01*
X134094325Y-89636045D01*
X133999703Y-89741134D01*
X133970960Y-89773056D01*
X133875473Y-89938444D01*
X133816458Y-90120072D01*
X133815768Y-90126633D01*
X133815768Y-90126635D01*
X133804974Y-90229338D01*
X133796496Y-90310000D01*
X133797186Y-90316565D01*
X133809582Y-90434503D01*
X133816458Y-90499928D01*
X133875473Y-90681556D01*
X133878776Y-90687278D01*
X133878777Y-90687279D01*
X133884436Y-90697080D01*
X133970960Y-90846944D01*
X133975378Y-90851851D01*
X133975379Y-90851852D01*
X134092512Y-90981941D01*
X134098747Y-90988866D01*
X134163894Y-91036198D01*
X134246354Y-91096109D01*
X134253248Y-91101118D01*
X134259276Y-91103802D01*
X134259278Y-91103803D01*
X134380976Y-91157986D01*
X134427712Y-91178794D01*
X134498573Y-91193856D01*
X134608056Y-91217128D01*
X134608061Y-91217128D01*
X134614513Y-91218500D01*
X134805487Y-91218500D01*
X134811939Y-91217128D01*
X134811944Y-91217128D01*
X134921427Y-91193856D01*
X134992288Y-91178794D01*
X135039024Y-91157986D01*
X135160722Y-91103803D01*
X135160724Y-91103802D01*
X135166752Y-91101118D01*
X135173647Y-91096109D01*
X135256106Y-91036198D01*
X135321253Y-90988866D01*
X135327488Y-90981941D01*
X135444621Y-90851852D01*
X135444622Y-90851851D01*
X135449040Y-90846944D01*
X135535564Y-90697080D01*
X135541223Y-90687279D01*
X135541224Y-90687278D01*
X135544527Y-90681556D01*
X135546569Y-90675271D01*
X135546571Y-90675267D01*
X135553275Y-90654635D01*
X135593349Y-90596030D01*
X135658746Y-90568394D01*
X135728703Y-90580502D01*
X135782226Y-90630573D01*
X135860960Y-90766944D01*
X135865378Y-90771851D01*
X135865379Y-90771852D01*
X135951637Y-90867651D01*
X135988747Y-90908866D01*
X136087843Y-90980864D01*
X136104202Y-90992749D01*
X136143248Y-91021118D01*
X136149276Y-91023802D01*
X136149278Y-91023803D01*
X136311681Y-91096109D01*
X136317712Y-91098794D01*
X136411112Y-91118647D01*
X136498056Y-91137128D01*
X136498061Y-91137128D01*
X136504513Y-91138500D01*
X136695487Y-91138500D01*
X136701939Y-91137128D01*
X136701944Y-91137128D01*
X136788888Y-91118647D01*
X136882288Y-91098794D01*
X136888319Y-91096109D01*
X137050722Y-91023803D01*
X137050724Y-91023802D01*
X137056752Y-91021118D01*
X137095799Y-90992749D01*
X137112157Y-90980864D01*
X137211253Y-90908866D01*
X137248363Y-90867651D01*
X137334621Y-90771852D01*
X137334622Y-90771851D01*
X137339040Y-90766944D01*
X137359472Y-90731556D01*
X137366368Y-90719611D01*
X137417750Y-90670617D01*
X137487463Y-90657180D01*
X137553375Y-90683567D01*
X137583744Y-90722554D01*
X137585473Y-90721556D01*
X137680960Y-90886944D01*
X137681444Y-90887482D01*
X137704570Y-90952295D01*
X137701593Y-90981941D01*
X137702720Y-90982147D01*
X137699264Y-91001071D01*
X137697193Y-91027375D01*
X137697000Y-91032302D01*
X137697000Y-91486885D01*
X137701475Y-91502124D01*
X137702865Y-91503329D01*
X137710548Y-91505000D01*
X138322897Y-91505000D01*
X138391018Y-91525002D01*
X138437511Y-91578658D01*
X138447684Y-91645359D01*
X138446500Y-91649970D01*
X138446500Y-91919240D01*
X138426498Y-91987361D01*
X138372842Y-92033854D01*
X138302568Y-92043958D01*
X138237988Y-92014464D01*
X138202997Y-91960018D01*
X138199135Y-91956671D01*
X138191452Y-91955000D01*
X137715115Y-91955000D01*
X137699876Y-91959475D01*
X137698671Y-91960865D01*
X137697000Y-91968548D01*
X137697000Y-92427699D01*
X137697193Y-92432625D01*
X137699264Y-92458929D01*
X137701562Y-92471516D01*
X137741295Y-92608276D01*
X137747542Y-92622712D01*
X137819278Y-92744011D01*
X137828918Y-92756438D01*
X137928562Y-92856082D01*
X137940989Y-92865722D01*
X138062288Y-92937458D01*
X138076724Y-92943705D01*
X138187605Y-92975919D01*
X138201706Y-92975879D01*
X138205000Y-92968610D01*
X138205000Y-92592270D01*
X138225002Y-92524149D01*
X138278658Y-92477656D01*
X138348932Y-92467552D01*
X138413512Y-92497046D01*
X138451997Y-92557118D01*
X138454978Y-92567379D01*
X138458987Y-92586739D01*
X138461526Y-92606836D01*
X138464445Y-92614207D01*
X138464445Y-92614209D01*
X138477804Y-92647951D01*
X138481649Y-92659181D01*
X138493982Y-92701632D01*
X138498015Y-92708451D01*
X138498017Y-92708456D01*
X138504293Y-92719067D01*
X138512988Y-92736815D01*
X138520448Y-92755656D01*
X138525110Y-92762072D01*
X138525110Y-92762073D01*
X138546436Y-92791426D01*
X138552952Y-92801346D01*
X138565495Y-92822554D01*
X138575458Y-92839401D01*
X138589779Y-92853722D01*
X138602619Y-92868755D01*
X138614528Y-92885146D01*
X138620632Y-92890196D01*
X138620853Y-92890431D01*
X138648854Y-92945781D01*
X138649896Y-92945475D01*
X138651552Y-92951114D01*
X138652902Y-92953783D01*
X138653159Y-92956588D01*
X138658973Y-92976389D01*
X138679916Y-92979400D01*
X138744497Y-93008893D01*
X138751079Y-93015022D01*
X140162462Y-94426405D01*
X140196488Y-94488717D01*
X140191423Y-94559532D01*
X140148876Y-94616368D01*
X140082356Y-94641179D01*
X140073367Y-94641500D01*
X137316534Y-94641500D01*
X137248413Y-94621498D01*
X137201920Y-94567842D01*
X137191816Y-94497568D01*
X137217651Y-94437409D01*
X137220375Y-94433960D01*
X137303912Y-94298437D01*
X137310056Y-94285259D01*
X137360315Y-94133734D01*
X137363181Y-94120368D01*
X137372672Y-94027730D01*
X137373000Y-94021315D01*
X137373000Y-93947115D01*
X137368525Y-93931876D01*
X137367135Y-93930671D01*
X137359452Y-93929000D01*
X135425115Y-93929000D01*
X135409876Y-93933475D01*
X135408671Y-93934865D01*
X135407000Y-93942548D01*
X135407000Y-94021266D01*
X135407337Y-94027782D01*
X135417075Y-94121632D01*
X135419968Y-94135028D01*
X135470488Y-94286453D01*
X135476653Y-94299615D01*
X135560426Y-94434992D01*
X135569464Y-94446394D01*
X135571139Y-94448067D01*
X135571919Y-94449493D01*
X135574007Y-94452127D01*
X135573556Y-94452484D01*
X135605219Y-94510349D01*
X135600216Y-94581169D01*
X135571299Y-94626254D01*
X135568476Y-94629083D01*
X135563071Y-94634497D01*
X135559229Y-94640729D01*
X135559228Y-94640731D01*
X135496969Y-94741732D01*
X135444197Y-94789225D01*
X135374125Y-94800647D01*
X135309002Y-94772373D01*
X135300615Y-94764710D01*
X133938790Y-93402885D01*
X135407000Y-93402885D01*
X135411475Y-93418124D01*
X135412865Y-93419329D01*
X135420548Y-93421000D01*
X136117885Y-93421000D01*
X136133124Y-93416525D01*
X136134329Y-93415135D01*
X136136000Y-93407452D01*
X136136000Y-93402885D01*
X136644000Y-93402885D01*
X136648475Y-93418124D01*
X136649865Y-93419329D01*
X136657548Y-93421000D01*
X137354885Y-93421000D01*
X137370124Y-93416525D01*
X137371329Y-93415135D01*
X137373000Y-93407452D01*
X137373000Y-93328734D01*
X137372663Y-93322218D01*
X137362925Y-93228368D01*
X137360032Y-93214972D01*
X137309512Y-93063547D01*
X137303347Y-93050385D01*
X137219574Y-92915008D01*
X137210540Y-92903610D01*
X137097871Y-92791137D01*
X137086460Y-92782125D01*
X136950937Y-92698588D01*
X136937759Y-92692444D01*
X136786234Y-92642185D01*
X136772868Y-92639319D01*
X136680230Y-92629828D01*
X136673815Y-92629500D01*
X136662115Y-92629500D01*
X136646876Y-92633975D01*
X136645671Y-92635365D01*
X136644000Y-92643048D01*
X136644000Y-93402885D01*
X136136000Y-93402885D01*
X136136000Y-92647615D01*
X136131525Y-92632376D01*
X136130135Y-92631171D01*
X136122452Y-92629500D01*
X136106234Y-92629500D01*
X136099718Y-92629837D01*
X136005868Y-92639575D01*
X135992472Y-92642468D01*
X135841047Y-92692988D01*
X135827885Y-92699153D01*
X135692508Y-92782926D01*
X135681110Y-92791960D01*
X135568637Y-92904629D01*
X135559625Y-92916040D01*
X135476088Y-93051563D01*
X135469944Y-93064741D01*
X135419685Y-93216266D01*
X135416819Y-93229632D01*
X135407328Y-93322270D01*
X135407000Y-93328685D01*
X135407000Y-93402885D01*
X133938790Y-93402885D01*
X131562197Y-91026292D01*
X131528171Y-90963980D01*
X131533236Y-90893165D01*
X131542173Y-90874197D01*
X131621223Y-90737279D01*
X131621224Y-90737278D01*
X131624527Y-90731556D01*
X131683542Y-90549928D01*
X131703504Y-90360000D01*
X131699424Y-90321178D01*
X131684232Y-90176635D01*
X131684232Y-90176633D01*
X131683542Y-90170072D01*
X131624527Y-89988444D01*
X131529040Y-89823056D01*
X131516181Y-89808774D01*
X131405675Y-89686045D01*
X131405674Y-89686044D01*
X131401253Y-89681134D01*
X131246752Y-89568882D01*
X131240724Y-89566198D01*
X131240722Y-89566197D01*
X131078319Y-89493891D01*
X131078318Y-89493891D01*
X131072288Y-89491206D01*
X130971741Y-89469834D01*
X130891944Y-89452872D01*
X130891939Y-89452872D01*
X130885487Y-89451500D01*
X130694513Y-89451500D01*
X130688061Y-89452872D01*
X130688056Y-89452872D01*
X130608259Y-89469834D01*
X130507712Y-89491206D01*
X130501682Y-89493891D01*
X130501681Y-89493891D01*
X130339278Y-89566197D01*
X130339276Y-89566198D01*
X130333248Y-89568882D01*
X130178747Y-89681134D01*
X130174326Y-89686044D01*
X130174325Y-89686045D01*
X130063820Y-89808774D01*
X130050960Y-89823056D01*
X129955473Y-89988444D01*
X129896458Y-90170072D01*
X129895768Y-90176633D01*
X129895768Y-90176635D01*
X129880576Y-90321178D01*
X129876496Y-90360000D01*
X129896458Y-90549928D01*
X129955473Y-90731556D01*
X130050960Y-90896944D01*
X130124137Y-90978215D01*
X130154853Y-91042221D01*
X130156500Y-91062524D01*
X130156500Y-91071233D01*
X130155973Y-91082416D01*
X130154298Y-91089909D01*
X130154547Y-91097835D01*
X130154547Y-91097836D01*
X130156438Y-91157986D01*
X130156500Y-91161945D01*
X130156500Y-91189856D01*
X130156997Y-91193790D01*
X130156997Y-91193791D01*
X130157005Y-91193856D01*
X130157938Y-91205693D01*
X130159327Y-91249889D01*
X130161829Y-91258500D01*
X130164978Y-91269339D01*
X130168987Y-91288700D01*
X130171526Y-91308797D01*
X130174445Y-91316168D01*
X130174445Y-91316170D01*
X130187804Y-91349912D01*
X130191649Y-91361142D01*
X130203982Y-91403593D01*
X130208015Y-91410412D01*
X130208017Y-91410417D01*
X130214293Y-91421028D01*
X130222988Y-91438776D01*
X130230448Y-91457617D01*
X130235110Y-91464033D01*
X130235110Y-91464034D01*
X130256436Y-91493387D01*
X130262952Y-91503307D01*
X130275783Y-91525002D01*
X130285458Y-91541362D01*
X130299779Y-91555683D01*
X130312619Y-91570716D01*
X130324528Y-91587107D01*
X130330634Y-91592158D01*
X130358605Y-91615298D01*
X130367384Y-91623288D01*
X133300271Y-94556176D01*
X133334297Y-94618488D01*
X133329232Y-94689304D01*
X133286685Y-94746139D01*
X133220165Y-94770950D01*
X133211176Y-94771271D01*
X132100000Y-94771271D01*
X132068014Y-94773559D01*
X132033627Y-94776018D01*
X132033626Y-94776018D01*
X132026889Y-94776500D01*
X131947382Y-94799845D01*
X131895235Y-94815157D01*
X131895233Y-94815158D01*
X131886589Y-94817696D01*
X131879010Y-94822567D01*
X131771159Y-94891878D01*
X131771156Y-94891880D01*
X131763579Y-94896750D01*
X131757678Y-94903560D01*
X131673726Y-95000445D01*
X131673724Y-95000448D01*
X131667824Y-95007257D01*
X131607081Y-95140266D01*
X131586271Y-95285000D01*
X131586271Y-95545634D01*
X131566269Y-95613755D01*
X131549366Y-95634729D01*
X131383227Y-95800868D01*
X131374941Y-95808408D01*
X131368462Y-95812520D01*
X131363037Y-95818297D01*
X131321837Y-95862171D01*
X131319082Y-95865013D01*
X131299345Y-95884750D01*
X131296865Y-95887947D01*
X131289162Y-95896967D01*
X131258894Y-95929199D01*
X131255075Y-95936145D01*
X131255073Y-95936148D01*
X131249132Y-95946954D01*
X131238281Y-95963473D01*
X131225866Y-95979479D01*
X131222721Y-95986748D01*
X131222718Y-95986752D01*
X131208306Y-96020057D01*
X131203084Y-96030717D01*
X131190517Y-96053577D01*
X131140173Y-96103636D01*
X131070756Y-96118530D01*
X131010210Y-96097715D01*
X130575449Y-95807874D01*
X130574966Y-95807552D01*
X130560442Y-95798218D01*
X130446467Y-95748464D01*
X130434692Y-95743324D01*
X130434691Y-95743324D01*
X130426431Y-95739718D01*
X130417490Y-95738585D01*
X130417488Y-95738585D01*
X130290307Y-95722476D01*
X130290305Y-95722476D01*
X130281368Y-95721344D01*
X130137004Y-95744582D01*
X130061863Y-95780436D01*
X130009095Y-95805614D01*
X130009092Y-95805616D01*
X130005034Y-95807552D01*
X129255034Y-96307552D01*
X129203579Y-96346750D01*
X129199328Y-96351656D01*
X129113726Y-96450445D01*
X129113724Y-96450448D01*
X129107824Y-96457257D01*
X129047081Y-96590266D01*
X129045798Y-96599189D01*
X129044411Y-96608837D01*
X129026271Y-96735000D01*
X129026271Y-97735000D01*
X127228000Y-97735000D01*
X127228000Y-89574212D01*
X127229541Y-89554565D01*
X127229647Y-89553891D01*
X127233172Y-89531564D01*
X127231218Y-89516372D01*
X127230532Y-89491017D01*
X127237360Y-89398621D01*
X127242959Y-89322863D01*
X127245572Y-89305021D01*
X127287343Y-89115646D01*
X127292480Y-89098352D01*
X127360872Y-88916889D01*
X127368428Y-88900504D01*
X127462037Y-88730673D01*
X127471856Y-88715534D01*
X127483113Y-88700637D01*
X127588765Y-88560813D01*
X127600646Y-88547233D01*
X127610482Y-88537495D01*
X127738459Y-88410796D01*
X127752146Y-88399062D01*
X127908043Y-88283702D01*
X127923268Y-88274043D01*
X128094032Y-88182141D01*
X128110489Y-88174750D01*
X128292639Y-88108178D01*
X128309978Y-88103216D01*
X128499754Y-88063349D01*
X128517632Y-88060913D01*
X128678810Y-88050625D01*
X128696474Y-88051498D01*
X128705026Y-88051670D01*
X128713877Y-88053120D01*
X128747956Y-88048938D01*
X128763302Y-88048000D01*
X151670672Y-88048000D01*
X151690056Y-88049500D01*
G37*
G04 #@! TD.AperFunction*
M02*
